<?xml version="1.0" encoding="UTF-8"?>
<!DOCTYPE svg PUBLIC "-//W3C//DTD SVG 1.1//EN" "http://www.w3.org/Graphics/SVG/1.1/DTD/svg11.dtd">
<svg xmlns="http://www.w3.org/2000/svg" version="1.1" width="389px" height="642px" style="shape-rendering:geometricPrecision; text-rendering:geometricPrecision; image-rendering:optimizeQuality; fill-rule:evenodd; clip-rule:evenodd" xmlns:xlink="http://www.w3.org/1999/xlink">
<g><path style="opacity:0.999" fill="#fdfdfd" d="M 101.5,18.5 C 130.915,49.416 160.915,79.916 191.5,110C 192.094,110.464 192.761,110.631 193.5,110.5C 202.909,121.413 212.909,131.913 223.5,142C 224.094,142.464 224.761,142.631 225.5,142.5C 237.244,155.747 249.578,168.581 262.5,181C 263.094,181.464 263.761,181.631 264.5,181.5C 265.167,184.167 266.833,185.833 269.5,186.5C 269.833,188.833 271.167,190.167 273.5,190.5C 274.5,193.5 276.5,195.5 279.5,196.5C 279.5,197.833 280.167,198.5 281.5,198.5C 283.167,202.167 285.833,204.833 289.5,206.5C 289.5,207.833 290.167,208.5 291.5,208.5C 291.5,209.833 292.167,210.5 293.5,210.5C 293.5,212.5 294.5,213.5 296.5,213.5C 296.5,215.5 297.5,216.5 299.5,216.5C 299.5,218.5 300.5,219.5 302.5,219.5C 302.5,220.833 303.167,221.5 304.5,221.5C 304.5,223.5 305.5,224.5 307.5,224.5C 307.5,225.833 308.167,226.5 309.5,226.5C 309.5,228.5 310.5,229.5 312.5,229.5C 313.167,232.167 314.833,233.833 317.5,234.5C 317.5,236.5 318.5,237.5 320.5,237.5C 320.5,239.5 321.5,240.5 323.5,240.5C 323.5,241.833 324.167,242.5 325.5,242.5C 327.167,243.5 328.5,244.833 329.5,246.5C 329.5,247.833 330.167,248.5 331.5,248.5C 331.5,249.833 332.167,250.5 333.5,250.5C 333.5,251.833 334.167,252.5 335.5,252.5C 337.833,254.167 339.833,256.167 341.5,258.5C 341.5,260.5 342.5,261.5 344.5,261.5C 345.5,261.833 346.167,262.5 346.5,263.5C 346.5,265.5 347.5,266.5 349.5,266.5C 349.5,268.5 350.5,269.5 352.5,269.5C 352.5,271.5 353.5,272.5 355.5,272.5C 358.5,274.833 361.167,277.5 363.5,280.5C 363.427,282.027 364.094,283.027 365.5,283.5C 375.705,293.596 380.705,305.93 380.5,320.5C 380.391,333.997 376.224,345.997 368,356.5C 278.112,446.721 187.946,536.555 97.5,626C 74.9226,641.421 52.5892,641.254 30.5,625.5C 30.0269,624.094 29.0269,623.427 27.5,623.5C 22.7363,620.072 19.0696,615.738 16.5,610.5C 16.7148,608.821 16.0481,607.821 14.5,607.5C 12.2531,603.863 10.9198,599.863 10.5,595.5C 9.73683,587.858 9.4035,580.191 9.5,572.5C 9.72566,565.823 11.7257,559.823 15.5,554.5C 16.9063,554.027 17.573,553.027 17.5,551.5C 19.2624,550.738 20.2624,549.404 20.5,547.5C 22.5869,546.415 23.9202,544.749 24.5,542.5C 24.8333,541.5 25.5,540.833 26.5,540.5C 29.5,539.5 31.5,537.5 32.5,534.5C 33.1667,533.167 34.1667,532.167 35.5,531.5C 37.5,531.5 38.5,530.5 38.5,528.5C 40.8333,528.167 42.1667,526.833 42.5,524.5C 44.8333,524.167 46.1667,522.833 46.5,520.5C 49.1667,519.833 50.8333,518.167 51.5,515.5C 53.5,515.5 54.5,514.5 54.5,512.5C 57.5,511.5 59.5,509.5 60.5,506.5C 63.179,506.475 64.5123,505.142 64.5,502.5C 68.2109,500.789 70.8776,498.123 72.5,494.5C 74.8333,494.167 76.1667,492.833 76.5,490.5C 76.8333,489.5 77.5,488.833 78.5,488.5C 80.5,488.5 81.5,487.5 81.5,485.5C 81.8333,484.5 82.5,483.833 83.5,483.5C 85.5,483.5 86.5,482.5 86.5,480.5C 88.8333,480.167 90.1667,478.833 90.5,476.5C 92.8333,476.167 94.1667,474.833 94.5,472.5C 97.1667,471.833 98.8333,470.167 99.5,467.5C 101.5,467.5 102.5,466.5 102.5,464.5C 106.877,462.123 110.21,458.79 112.5,454.5C 114.5,454.5 115.5,453.5 115.5,451.5C 117.833,451.167 119.167,449.833 119.5,447.5C 121.5,447.5 122.5,446.5 122.5,444.5C 124.833,444.167 126.167,442.833 126.5,440.5C 129.5,439.5 131.5,437.5 132.5,434.5C 135.179,434.475 136.512,433.142 136.5,430.5C 139.5,429.5 141.5,427.5 142.5,424.5C 144.833,424.167 146.167,422.833 146.5,420.5C 149.167,419.833 150.833,418.167 151.5,415.5C 155.167,413.833 157.833,411.167 159.5,407.5C 163.167,405.833 165.833,403.167 167.5,399.5C 169.5,399.5 170.5,398.5 170.5,396.5C 173.167,395.833 174.833,394.167 175.5,391.5C 177.833,391.167 179.167,389.833 179.5,387.5C 181.833,387.167 183.167,385.833 183.5,383.5C 185.833,383.167 187.167,381.833 187.5,379.5C 189.5,379.5 190.5,378.5 190.5,376.5C 194.5,374.5 197.5,371.5 199.5,367.5C 203.167,365.833 205.833,363.167 207.5,359.5C 213.833,355.167 219.167,349.833 223.5,343.5C 226.833,342.167 229.167,339.833 230.5,336.5C 236.075,332.433 241.241,327.766 246,322.5C 247.077,319.738 246.244,318.072 243.5,317.5C 241.844,315.54 240.177,313.54 238.5,311.5C 227.448,299.446 215.781,288.113 203.5,277.5C 198.5,270.5 192.5,264.5 185.5,259.5C 183.833,255.833 181.167,253.167 177.5,251.5C 176.5,248.5 174.5,246.5 171.5,245.5C 170.5,245.167 169.833,244.5 169.5,243.5C 167.805,239.805 165.139,237.139 161.5,235.5C 160.5,232.5 158.5,230.5 155.5,229.5C 154.5,229.167 153.833,228.5 153.5,227.5C 152.5,224.5 150.5,222.5 147.5,221.5C 146.5,221.167 145.833,220.5 145.5,219.5C 145.167,217.167 143.833,215.833 141.5,215.5C 140.271,212.026 137.938,209.693 134.5,208.5C 134.5,206.5 133.5,205.5 131.5,205.5C 130.5,205.167 129.833,204.5 129.5,203.5C 128.833,200.833 127.167,199.167 124.5,198.5C 122.833,197.5 121.5,196.167 120.5,194.5C 119.5,191.5 117.5,189.5 114.5,188.5C 113.5,188.167 112.833,187.5 112.5,186.5C 111.5,183.5 109.5,181.5 106.5,180.5C 105.5,180.167 104.833,179.5 104.5,178.5C 104.167,176.167 102.833,174.833 100.5,174.5C 98.8333,173.5 97.5,172.167 96.5,170.5C 96.5,169.167 95.8333,168.5 94.5,168.5C 92.1667,166.833 90.1667,164.833 88.5,162.5C 88.1667,160.167 86.8333,158.833 84.5,158.5C 83.5,158.167 82.8333,157.5 82.5,156.5C 82.5123,153.858 81.179,152.525 78.5,152.5C 76.1667,150.833 74.1667,148.833 72.5,146.5C 72.5,144.5 71.5,143.5 69.5,143.5C 69.5,141.5 68.5,140.5 66.5,140.5C 66.5123,137.858 65.179,136.525 62.5,136.5C 58.1667,132.833 54.1667,128.833 50.5,124.5C 50.5123,121.858 49.179,120.525 46.5,120.5C 44.1667,118.833 42.1667,116.833 40.5,114.5C 40.5,112.5 39.5,111.5 37.5,111.5C 35.1667,109.833 33.1667,107.833 31.5,105.5C 31.5,103.5 30.5,102.5 28.5,102.5C 27.5,102.167 26.8333,101.5 26.5,100.5C 26.5123,97.858 25.179,96.5246 22.5,96.5C 22.5,95.1667 21.8333,94.5 20.5,94.5C 13.8125,87.1221 9.81252,78.4555 8.5,68.5C 8.3018,60.4659 8.63514,52.4659 9.5,44.5C 9.9236,40.9882 10.9236,37.6548 12.5,34.5C 13.9063,34.0269 14.573,33.0269 14.5,31.5C 14.3284,30.5084 14.6618,29.8417 15.5,29.5C 17.2624,28.7377 18.2624,27.4044 18.5,25.5C 19.4431,22.8908 21.1097,20.8908 23.5,19.5C 26.0892,18.5806 28.0892,16.914 29.5,14.5C 30.8021,12.1782 32.8021,10.8449 35.5,10.5C 37.0269,10.573 38.0269,9.90632 38.5,8.5C 40.0495,7.5592 41.7162,6.89254 43.5,6.5C 46.4282,6.43487 49.0948,5.7682 51.5,4.5C 70.4998,0.419375 87.1664,5.08604 101.5,18.5 Z"/></g>
<g><path style="opacity:0.592" fill="#828282" d="M 51.5,4.5 C 49.0948,5.7682 46.4282,6.43487 43.5,6.5C 45.8383,4.96046 48.5049,4.29379 51.5,4.5 Z"/></g>
<g><path style="opacity:0.502" fill="#717171" d="M 38.5,8.5 C 38.0269,9.90632 37.0269,10.573 35.5,10.5C 35.9731,9.09368 36.9731,8.42702 38.5,8.5 Z"/></g>
<g><path style="opacity:0.733" fill="#9a9a9a" d="M 29.5,14.5 C 28.0892,16.914 26.0892,18.5806 23.5,19.5C 24.9108,17.086 26.9108,15.4194 29.5,14.5 Z"/></g>
<g><path style="opacity:0.216" fill="#474747" d="M 101.5,18.5 C 132.5,48.8333 163.167,79.5 193.5,110.5C 192.761,110.631 192.094,110.464 191.5,110C 160.915,79.916 130.915,49.416 101.5,18.5 Z"/></g>
<g><path style="opacity:0.698" fill="#767676" d="M 18.5,25.5 C 18.2624,27.4044 17.2624,28.7377 15.5,29.5C 15.7376,27.5956 16.7376,26.2623 18.5,25.5 Z"/></g>
<g><path style="opacity:0.047" fill="#383838" d="M 14.5,31.5 C 14.573,33.0269 13.9063,34.0269 12.5,34.5C 12.427,32.9731 13.0937,31.9731 14.5,31.5 Z"/></g>
<g><path style="opacity:0.231" fill="#7f7f7f" d="M 9.5,44.5 C 8.63514,52.4659 8.3018,60.4659 8.5,68.5C 7.3454,61.6791 7.17874,54.6791 8,47.5C 8.23209,46.2625 8.73209,45.2625 9.5,44.5 Z"/></g>
<g><path style="opacity:0.227" fill="#424242" d="M 20.5,94.5 C 21.8333,94.5 22.5,95.1667 22.5,96.5C 21.5,96.1667 20.8333,95.5 20.5,94.5 Z"/></g>
<g><path style="opacity:0.953" fill="#929292" d="M 22.5,96.5 C 25.179,96.5246 26.5123,97.858 26.5,100.5C 24.8333,99.5 23.5,98.1667 22.5,96.5 Z"/></g>
<g><path style="opacity:0.447" fill="#5a5a5a" d="M 28.5,102.5 C 30.5,102.5 31.5,103.5 31.5,105.5C 30.1667,104.833 29.1667,103.833 28.5,102.5 Z"/></g>
<g><path style="opacity:0.392" fill="#555555" d="M 37.5,111.5 C 39.5,111.5 40.5,112.5 40.5,114.5C 39.1667,113.833 38.1667,112.833 37.5,111.5 Z"/></g>
<g><path style="opacity:0.235" fill="#494949" d="M 193.5,110.5 C 204.5,120.833 215.167,131.5 225.5,142.5C 224.761,142.631 224.094,142.464 223.5,142C 212.909,131.913 202.909,121.413 193.5,110.5 Z"/></g>
<g><path style="opacity:0.949" fill="#919191" d="M 46.5,120.5 C 49.179,120.525 50.5123,121.858 50.5,124.5C 48.8333,123.5 47.5,122.167 46.5,120.5 Z"/></g>
<g><path style="opacity:0.945" fill="#8f8f8f" d="M 62.5,136.5 C 65.179,136.525 66.5123,137.858 66.5,140.5C 64.8333,139.5 63.5,138.167 62.5,136.5 Z"/></g>
<g><path style="opacity:0.369" fill="#525252" d="M 66.5,140.5 C 68.5,140.5 69.5,141.5 69.5,143.5C 68.1667,142.833 67.1667,141.833 66.5,140.5 Z"/></g>
<g><path style="opacity:0.353" fill="#585858" d="M 69.5,143.5 C 71.5,143.5 72.5,144.5 72.5,146.5C 71.1667,145.833 70.1667,144.833 69.5,143.5 Z"/></g>
<g><path style="opacity:0.247" fill="#4b4b4b" d="M 225.5,142.5 C 238.833,155.167 251.833,168.167 264.5,181.5C 263.761,181.631 263.094,181.464 262.5,181C 249.578,168.581 237.244,155.747 225.5,142.5 Z"/></g>
<g><path style="opacity:0.949" fill="#8f8f8f" d="M 78.5,152.5 C 81.179,152.525 82.5123,153.858 82.5,156.5C 80.8333,155.5 79.5,154.167 78.5,152.5 Z"/></g>
<g><path style="opacity:0.388" fill="#505050" d="M 84.5,158.5 C 86.8333,158.833 88.1667,160.167 88.5,162.5C 86.8333,161.5 85.5,160.167 84.5,158.5 Z"/></g>
<g><path style="opacity:0.361" fill="#4d4d4d" d="M 94.5,168.5 C 95.8333,168.5 96.5,169.167 96.5,170.5C 95.5,170.167 94.8333,169.5 94.5,168.5 Z"/></g>
<g><path style="opacity:0.353" fill="#4f4f4f" d="M 100.5,174.5 C 102.833,174.833 104.167,176.167 104.5,178.5C 102.833,177.5 101.5,176.167 100.5,174.5 Z"/></g>
<g><path style="opacity:0.345" fill="#525252" d="M 106.5,180.5 C 109.5,181.5 111.5,183.5 112.5,186.5C 110.167,184.833 108.167,182.833 106.5,180.5 Z"/></g>
<g><path style="opacity:0.247" fill="#4a4a4a" d="M 264.5,181.5 C 266.5,182.833 268.167,184.5 269.5,186.5C 266.833,185.833 265.167,184.167 264.5,181.5 Z"/></g>
<g><path style="opacity:0.243" fill="#4c4c4c" d="M 269.5,186.5 C 271.167,187.5 272.5,188.833 273.5,190.5C 271.167,190.167 269.833,188.833 269.5,186.5 Z"/></g>
<g><path style="opacity:0.337" fill="#515151" d="M 114.5,188.5 C 117.5,189.5 119.5,191.5 120.5,194.5C 118.167,192.833 116.167,190.833 114.5,188.5 Z"/></g>
<g><path style="opacity:0.247" fill="#4b4b4b" d="M 273.5,190.5 C 275.833,192.167 277.833,194.167 279.5,196.5C 276.5,195.5 274.5,193.5 273.5,190.5 Z"/></g>
<g><path style="opacity:0.243" fill="#4d4d4d" d="M 279.5,196.5 C 280.5,196.833 281.167,197.5 281.5,198.5C 280.167,198.5 279.5,197.833 279.5,196.5 Z"/></g>
<g><path style="opacity:0.325" fill="#505050" d="M 124.5,198.5 C 127.167,199.167 128.833,200.833 129.5,203.5C 127.5,202.167 125.833,200.5 124.5,198.5 Z"/></g>
<g><path style="opacity:0.243" fill="#4c4c4c" d="M 281.5,198.5 C 284.5,200.833 287.167,203.5 289.5,206.5C 285.833,204.833 283.167,202.167 281.5,198.5 Z"/></g>
<g><path style="opacity:0.29" fill="#4e4e4e" d="M 131.5,205.5 C 133.5,205.5 134.5,206.5 134.5,208.5C 133.167,207.833 132.167,206.833 131.5,205.5 Z"/></g>
<g><path style="opacity:0.247" fill="#4c4c4c" d="M 289.5,206.5 C 290.5,206.833 291.167,207.5 291.5,208.5C 290.167,208.5 289.5,207.833 289.5,206.5 Z"/></g>
<g><path style="opacity:0.243" fill="#4d4d4d" d="M 291.5,208.5 C 292.5,208.833 293.167,209.5 293.5,210.5C 292.167,210.5 291.5,209.833 291.5,208.5 Z"/></g>
<g><path style="opacity:0.306" fill="#636363" d="M 134.5,208.5 C 137.938,209.693 140.271,212.026 141.5,215.5C 138.833,213.5 136.5,211.167 134.5,208.5 Z"/></g>
<g><path style="opacity:0.239" fill="#4c4c4c" d="M 293.5,210.5 C 294.833,211.167 295.833,212.167 296.5,213.5C 294.5,213.5 293.5,212.5 293.5,210.5 Z"/></g>
<g><path style="opacity:0.243" fill="#4f4f4f" d="M 296.5,213.5 C 297.833,214.167 298.833,215.167 299.5,216.5C 297.5,216.5 296.5,215.5 296.5,213.5 Z"/></g>
<g><path style="opacity:0.282" fill="#4c4c4c" d="M 141.5,215.5 C 143.833,215.833 145.167,217.167 145.5,219.5C 143.833,218.5 142.5,217.167 141.5,215.5 Z"/></g>
<g><path style="opacity:0.243" fill="#4d4d4d" d="M 299.5,216.5 C 300.833,217.167 301.833,218.167 302.5,219.5C 300.5,219.5 299.5,218.5 299.5,216.5 Z"/></g>
<g><path style="opacity:0.243" fill="#4d4d4d" d="M 302.5,219.5 C 303.5,219.833 304.167,220.5 304.5,221.5C 303.167,221.5 302.5,220.833 302.5,219.5 Z"/></g>
<g><path style="opacity:0.271" fill="#4c4c4c" d="M 147.5,221.5 C 150.5,222.5 152.5,224.5 153.5,227.5C 151.167,225.833 149.167,223.833 147.5,221.5 Z"/></g>
<g><path style="opacity:0.239" fill="#4d4d4d" d="M 304.5,221.5 C 305.833,222.167 306.833,223.167 307.5,224.5C 305.5,224.5 304.5,223.5 304.5,221.5 Z"/></g>
<g><path style="opacity:0.247" fill="#4c4c4c" d="M 307.5,224.5 C 308.5,224.833 309.167,225.5 309.5,226.5C 308.167,226.5 307.5,225.833 307.5,224.5 Z"/></g>
<g><path style="opacity:0.243" fill="#4e4e4e" d="M 309.5,226.5 C 310.833,227.167 311.833,228.167 312.5,229.5C 310.5,229.5 309.5,228.5 309.5,226.5 Z"/></g>
<g><path style="opacity:0.275" fill="#4d4d4d" d="M 155.5,229.5 C 158.5,230.5 160.5,232.5 161.5,235.5C 159.167,233.833 157.167,231.833 155.5,229.5 Z"/></g>
<g><path style="opacity:0.247" fill="#4e4e4e" d="M 312.5,229.5 C 314.5,230.833 316.167,232.5 317.5,234.5C 314.833,233.833 313.167,232.167 312.5,229.5 Z"/></g>
<g><path style="opacity:0.251" fill="#4e4e4e" d="M 317.5,234.5 C 318.833,235.167 319.833,236.167 320.5,237.5C 318.5,237.5 317.5,236.5 317.5,234.5 Z"/></g>
<g><path style="opacity:0.286" fill="#616161" d="M 161.5,235.5 C 165.139,237.139 167.805,239.805 169.5,243.5C 166.5,241.167 163.833,238.5 161.5,235.5 Z"/></g>
<g><path style="opacity:0.259" fill="#4f4f4f" d="M 320.5,237.5 C 321.833,238.167 322.833,239.167 323.5,240.5C 321.5,240.5 320.5,239.5 320.5,237.5 Z"/></g>
<g><path style="opacity:0.255" fill="#4c4c4c" d="M 323.5,240.5 C 324.5,240.833 325.167,241.5 325.5,242.5C 324.167,242.5 323.5,241.833 323.5,240.5 Z"/></g>
<g><path style="opacity:0.263" fill="#4b4b4b" d="M 171.5,245.5 C 174.5,246.5 176.5,248.5 177.5,251.5C 175.167,249.833 173.167,247.833 171.5,245.5 Z"/></g>
<g><path style="opacity:0.275" fill="#4d4d4d" d="M 329.5,246.5 C 330.5,246.833 331.167,247.5 331.5,248.5C 330.167,248.5 329.5,247.833 329.5,246.5 Z"/></g>
<g><path style="opacity:0.294" fill="#4d4d4d" d="M 331.5,248.5 C 332.5,248.833 333.167,249.5 333.5,250.5C 332.167,250.5 331.5,249.833 331.5,248.5 Z"/></g>
<g><path style="opacity:0.263" fill="#4c4c4c" d="M 177.5,251.5 C 181.167,253.167 183.833,255.833 185.5,259.5C 182.5,257.167 179.833,254.5 177.5,251.5 Z"/></g>
<g><path style="opacity:0.282" fill="#4c4c4c" d="M 333.5,250.5 C 334.5,250.833 335.167,251.5 335.5,252.5C 334.167,252.5 333.5,251.833 333.5,250.5 Z"/></g>
<g><path style="opacity:0.259" fill="#494949" d="M 185.5,259.5 C 192.5,264.5 198.5,270.5 203.5,277.5C 197.167,271.833 191.167,265.833 185.5,259.5 Z"/></g>
<g><path style="opacity:0.341" fill="#4d4d4d" d="M 341.5,258.5 C 342.833,259.167 343.833,260.167 344.5,261.5C 342.5,261.5 341.5,260.5 341.5,258.5 Z"/></g>
<g><path style="opacity:0.361" fill="#4f4f4f" d="M 346.5,263.5 C 347.833,264.167 348.833,265.167 349.5,266.5C 347.5,266.5 346.5,265.5 346.5,263.5 Z"/></g>
<g><path style="opacity:0.365" fill="#555555" d="M 349.5,266.5 C 350.833,267.167 351.833,268.167 352.5,269.5C 350.5,269.5 349.5,268.5 349.5,266.5 Z"/></g>
<g><path style="opacity:0.345" fill="#505050" d="M 352.5,269.5 C 353.833,270.167 354.833,271.167 355.5,272.5C 353.5,272.5 352.5,271.5 352.5,269.5 Z"/></g>
<g><path style="opacity:0.247" fill="#494949" d="M 203.5,277.5 C 215.781,288.113 227.448,299.446 238.5,311.5C 226.219,300.887 214.552,289.554 203.5,277.5 Z"/></g>
<g><path style="opacity:0.337" fill="#6e6e6e" d="M 363.5,280.5 C 364.906,280.973 365.573,281.973 365.5,283.5C 364.094,283.027 363.427,282.027 363.5,280.5 Z"/></g>
<g><path style="opacity:0.373" fill="#6f6f6f" d="M 243.5,317.5 C 246.244,318.072 247.077,319.738 246,322.5C 241.241,327.766 236.075,332.433 230.5,336.5C 235.13,331.369 239.963,326.369 245,321.5C 245.3,319.934 244.8,318.601 243.5,317.5 Z"/></g>
<g><path style="opacity:0.408" fill="#727272" d="M 230.5,336.5 C 229.167,339.833 226.833,342.167 223.5,343.5C 225.5,340.833 227.833,338.5 230.5,336.5 Z"/></g>
<g><path style="opacity:0.424" fill="#717171" d="M 223.5,343.5 C 219.167,349.833 213.833,355.167 207.5,359.5C 212.5,353.833 217.833,348.5 223.5,343.5 Z"/></g>
<g><path style="opacity:0.467" fill="#707070" d="M 207.5,359.5 C 205.833,363.167 203.167,365.833 199.5,367.5C 201.833,364.5 204.5,361.833 207.5,359.5 Z"/></g>
<g><path style="opacity:0.498" fill="#727272" d="M 199.5,367.5 C 197.5,371.5 194.5,374.5 190.5,376.5C 193.167,373.167 196.167,370.167 199.5,367.5 Z"/></g>
<g><path style="opacity:0.475" fill="#6e6e6e" d="M 190.5,376.5 C 190.5,378.5 189.5,379.5 187.5,379.5C 188.167,378.167 189.167,377.167 190.5,376.5 Z"/></g>
<g><path style="opacity:0.471" fill="#747474" d="M 187.5,379.5 C 187.167,381.833 185.833,383.167 183.5,383.5C 184.5,381.833 185.833,380.5 187.5,379.5 Z"/></g>
<g><path style="opacity:0.49" fill="#717171" d="M 183.5,383.5 C 183.167,385.833 181.833,387.167 179.5,387.5C 180.5,385.833 181.833,384.5 183.5,383.5 Z"/></g>
<g><path style="opacity:0.486" fill="#6d6d6d" d="M 179.5,387.5 C 179.167,389.833 177.833,391.167 175.5,391.5C 176.5,389.833 177.833,388.5 179.5,387.5 Z"/></g>
<g><path style="opacity:0.514" fill="#757575" d="M 175.5,391.5 C 174.833,394.167 173.167,395.833 170.5,396.5C 171.833,394.5 173.5,392.833 175.5,391.5 Z"/></g>
<g><path style="opacity:0.49" fill="#707070" d="M 170.5,396.5 C 170.5,398.5 169.5,399.5 167.5,399.5C 168.167,398.167 169.167,397.167 170.5,396.5 Z"/></g>
<g><path style="opacity:0.514" fill="#767676" d="M 167.5,399.5 C 165.833,403.167 163.167,405.833 159.5,407.5C 161.833,404.5 164.5,401.833 167.5,399.5 Z"/></g>
<g><path style="opacity:0.482" fill="#717171" d="M 159.5,407.5 C 157.833,411.167 155.167,413.833 151.5,415.5C 153.833,412.5 156.5,409.833 159.5,407.5 Z"/></g>
<g><path style="opacity:0.506" fill="#747474" d="M 151.5,415.5 C 150.833,418.167 149.167,419.833 146.5,420.5C 147.833,418.5 149.5,416.833 151.5,415.5 Z"/></g>
<g><path style="opacity:0.502" fill="#757575" d="M 146.5,420.5 C 146.167,422.833 144.833,424.167 142.5,424.5C 143.5,422.833 144.833,421.5 146.5,420.5 Z"/></g>
<g><path style="opacity:0.506" fill="#717171" d="M 142.5,424.5 C 141.5,427.5 139.5,429.5 136.5,430.5C 138.167,428.167 140.167,426.167 142.5,424.5 Z"/></g>
<g><path style="opacity:0.961" fill="#9b9b9b" d="M 136.5,430.5 C 136.512,433.142 135.179,434.475 132.5,434.5C 133.5,432.833 134.833,431.5 136.5,430.5 Z"/></g>
<g><path style="opacity:0.51" fill="#7c7c7c" d="M 132.5,434.5 C 131.5,437.5 129.5,439.5 126.5,440.5C 128.167,438.167 130.167,436.167 132.5,434.5 Z"/></g>
<g><path style="opacity:0.522" fill="#787878" d="M 126.5,440.5 C 126.167,442.833 124.833,444.167 122.5,444.5C 123.5,442.833 124.833,441.5 126.5,440.5 Z"/></g>
<g><path style="opacity:0.522" fill="#767676" d="M 122.5,444.5 C 122.5,446.5 121.5,447.5 119.5,447.5C 120.167,446.167 121.167,445.167 122.5,444.5 Z"/></g>
<g><path style="opacity:0.514" fill="#767676" d="M 119.5,447.5 C 119.167,449.833 117.833,451.167 115.5,451.5C 116.5,449.833 117.833,448.5 119.5,447.5 Z"/></g>
<g><path style="opacity:0.549" fill="#757575" d="M 115.5,451.5 C 115.5,453.5 114.5,454.5 112.5,454.5C 113.167,453.167 114.167,452.167 115.5,451.5 Z"/></g>
<g><path style="opacity:0.514" fill="#878787" d="M 112.5,454.5 C 110.21,458.79 106.877,462.123 102.5,464.5C 105.5,460.833 108.833,457.5 112.5,454.5 Z"/></g>
<g><path style="opacity:0.529" fill="#757575" d="M 102.5,464.5 C 102.5,466.5 101.5,467.5 99.5,467.5C 100.167,466.167 101.167,465.167 102.5,464.5 Z"/></g>
<g><path style="opacity:0.553" fill="#7e7e7e" d="M 99.5,467.5 C 98.8333,470.167 97.1667,471.833 94.5,472.5C 95.8333,470.5 97.5,468.833 99.5,467.5 Z"/></g>
<g><path style="opacity:0.533" fill="#787878" d="M 94.5,472.5 C 94.1667,474.833 92.8333,476.167 90.5,476.5C 91.5,474.833 92.8333,473.5 94.5,472.5 Z"/></g>
<g><path style="opacity:0.514" fill="#7b7b7b" d="M 90.5,476.5 C 90.1667,478.833 88.8333,480.167 86.5,480.5C 87.5,478.833 88.8333,477.5 90.5,476.5 Z"/></g>
<g><path style="opacity:0.545" fill="#767676" d="M 86.5,480.5 C 86.5,482.5 85.5,483.5 83.5,483.5C 84.1667,482.167 85.1667,481.167 86.5,480.5 Z"/></g>
<g><path style="opacity:0.529" fill="#7d7d7d" d="M 81.5,485.5 C 81.5,487.5 80.5,488.5 78.5,488.5C 79.1667,487.167 80.1667,486.167 81.5,485.5 Z"/></g>
<g><path style="opacity:0.537" fill="#7b7b7b" d="M 76.5,490.5 C 76.1667,492.833 74.8333,494.167 72.5,494.5C 73.5,492.833 74.8333,491.5 76.5,490.5 Z"/></g>
<g><path style="opacity:0.518" fill="#898989" d="M 72.5,494.5 C 70.8776,498.123 68.2109,500.789 64.5,502.5C 66.8333,499.5 69.5,496.833 72.5,494.5 Z"/></g>
<g><path style="opacity:0.957" fill="#9f9f9f" d="M 64.5,502.5 C 64.5123,505.142 63.179,506.475 60.5,506.5C 61.5,504.833 62.8333,503.5 64.5,502.5 Z"/></g>
<g><path style="opacity:0.553" fill="#838383" d="M 60.5,506.5 C 59.5,509.5 57.5,511.5 54.5,512.5C 56.1667,510.167 58.1667,508.167 60.5,506.5 Z"/></g>
<g><path style="opacity:0.541" fill="#797979" d="M 54.5,512.5 C 54.5,514.5 53.5,515.5 51.5,515.5C 52.1667,514.167 53.1667,513.167 54.5,512.5 Z"/></g>
<g><path style="opacity:0.573" fill="#848484" d="M 51.5,515.5 C 50.8333,518.167 49.1667,519.833 46.5,520.5C 47.8333,518.5 49.5,516.833 51.5,515.5 Z"/></g>
<g><path style="opacity:0.569" fill="#7a7a7a" d="M 46.5,520.5 C 46.1667,522.833 44.8333,524.167 42.5,524.5C 43.5,522.833 44.8333,521.5 46.5,520.5 Z"/></g>
<g><path style="opacity:0.545" fill="#7e7e7e" d="M 42.5,524.5 C 42.1667,526.833 40.8333,528.167 38.5,528.5C 39.5,526.833 40.8333,525.5 42.5,524.5 Z"/></g>
<g><path style="opacity:0.576" fill="#7c7c7c" d="M 38.5,528.5 C 38.5,530.5 37.5,531.5 35.5,531.5C 36.1667,530.167 37.1667,529.167 38.5,528.5 Z"/></g>
<g><path style="opacity:0.522" fill="#858585" d="M 32.5,534.5 C 31.5,537.5 29.5,539.5 26.5,540.5C 28.1667,538.167 30.1667,536.167 32.5,534.5 Z"/></g>
<g><path style="opacity:0.22" fill="#585858" d="M 24.5,542.5 C 23.9202,544.749 22.5869,546.415 20.5,547.5C 21.0798,545.251 22.4131,543.585 24.5,542.5 Z"/></g>
<g><path style="opacity:0.604" fill="#727272" d="M 20.5,547.5 C 20.2624,549.404 19.2624,550.738 17.5,551.5C 17.7376,549.596 18.7376,548.262 20.5,547.5 Z"/></g>
<g><path style="opacity:0.129" fill="#4a4a4a" d="M 17.5,551.5 C 17.573,553.027 16.9063,554.027 15.5,554.5C 15.427,552.973 16.0937,551.973 17.5,551.5 Z"/></g>
<g><path style="opacity:0.188" fill="#999999" d="M 9.5,572.5 C 9.4035,580.191 9.73683,587.858 10.5,595.5C 9.02074,591.091 8.35407,586.424 8.5,581.5C 8.50199,578.314 8.83533,575.314 9.5,572.5 Z"/></g>
<g><path style="opacity:0.714" fill="#737373" d="M 14.5,607.5 C 16.0481,607.821 16.7148,608.821 16.5,610.5C 15.5987,609.71 14.9321,608.71 14.5,607.5 Z"/></g>
<g><path style="opacity:0.38" fill="#696969" d="M 27.5,623.5 C 29.0269,623.427 30.0269,624.094 30.5,625.5C 28.9731,625.573 27.9731,624.906 27.5,623.5 Z"/></g>
</svg>
