<?xml version="1.0" encoding="UTF-8"?>
<!DOCTYPE svg PUBLIC "-//W3C//DTD SVG 1.1//EN" "http://www.w3.org/Graphics/SVG/1.1/DTD/svg11.dtd">
<svg xmlns="http://www.w3.org/2000/svg" version="1.1" width="389px" height="642px" style="shape-rendering:geometricPrecision; text-rendering:geometricPrecision; image-rendering:optimizeQuality; fill-rule:evenodd; clip-rule:evenodd" xmlns:xlink="http://www.w3.org/1999/xlink">
<g><path style="opacity:1" fill="#020202" d="M 90.5,10.5 C 90.8212,12.0481 91.8212,12.7148 93.5,12.5C 94.0347,14.4456 95.368,15.4456 97.5,15.5C 98.8333,16.1667 99.8333,17.1667 100.5,18.5C 178.882,97.8822 257.882,176.549 337.5,254.5C 344.907,263.412 352.907,271.912 361.5,280C 362.094,280.464 362.761,280.631 363.5,280.5C 363.738,282.404 364.738,283.738 366.5,284.5C 369.471,286.443 371.471,289.109 372.5,292.5C 372.427,294.027 373.094,295.027 374.5,295.5C 375.931,296.78 376.598,298.447 376.5,300.5C 376.723,304.162 377.723,307.495 379.5,310.5C 379.665,318.862 379.332,327.195 378.5,335.5C 376.598,343.304 373.098,350.304 368,356.5C 278.833,445.667 189.667,534.833 100.5,624C 84.3106,636.938 66.3106,640.438 46.5,634.5C 45.3646,632.787 43.698,632.12 41.5,632.5C 40.5084,632.672 39.8417,632.338 39.5,631.5C 39.0269,630.094 38.0269,629.427 36.5,629.5C 35.5084,629.672 34.8417,629.338 34.5,628.5C 33.7377,626.738 32.4044,625.738 30.5,625.5C 24.4497,621.783 19.7831,616.783 16.5,610.5C 16.7148,608.821 16.0481,607.821 14.5,607.5C 11.8372,602.845 10.1706,597.845 9.5,592.5C 9.5,586.833 9.5,581.167 9.5,575.5C 9.83333,572.833 10.1667,570.167 10.5,567.5C 10.5,566.833 10.5,566.167 10.5,565.5C 12.2132,564.365 12.8799,562.698 12.5,560.5C 12.9925,558.181 13.9925,556.181 15.5,554.5C 16.9063,554.027 17.573,553.027 17.5,551.5C 19.2624,550.738 20.2624,549.404 20.5,547.5C 22.5869,546.415 23.9202,544.749 24.5,542.5C 24.8333,541.5 25.5,540.833 26.5,540.5C 29.5,539.5 31.5,537.5 32.5,534.5C 34.5,534.5 35.5,533.5 35.5,531.5C 37.5,531.5 38.5,530.5 38.5,528.5C 40.8333,528.167 42.1667,526.833 42.5,524.5C 44.8333,524.167 46.1667,522.833 46.5,520.5C 50.1667,518.833 52.8333,516.167 54.5,512.5C 58.1667,510.833 60.8333,508.167 62.5,504.5C 62.8333,503.5 63.5,502.833 64.5,502.5C 67.5,501.5 69.5,499.5 70.5,496.5C 73.4548,495.545 75.4548,493.545 76.5,490.5C 78.5,490.5 79.5,489.5 79.5,487.5C 81.8333,487.167 83.1667,485.833 83.5,483.5C 85.5,483.5 86.5,482.5 86.5,480.5C 90.1667,478.833 92.8333,476.167 94.5,472.5C 98.1667,470.833 100.833,468.167 102.5,464.5C 106.877,462.123 110.21,458.79 112.5,454.5C 115.833,453.167 118.167,450.833 119.5,447.5C 122.833,446.167 125.167,443.833 126.5,440.5C 132.833,436.167 138.167,430.833 142.5,424.5C 146.5,422.5 149.5,419.5 151.5,415.5C 167.748,400.755 183.581,385.421 199,369.5C 199.464,368.906 199.631,368.239 199.5,367.5C 215.782,352.885 231.449,337.552 246.5,321.5C 247.525,321.103 247.692,320.437 247,319.5C 203.583,275.582 159.75,232.249 115.5,189.5C 113.833,185.833 111.167,183.167 107.5,181.5C 102.167,174.167 95.8333,167.833 88.5,162.5C 73.7545,146.252 58.4212,130.419 42.5,115C 41.9056,114.536 41.2389,114.369 40.5,114.5C 36.251,108.91 31.5843,103.577 26.5,98.5C 25.4231,97.2949 24.0898,96.6282 22.5,96.5C 22.573,94.9731 21.9063,93.9731 20.5,93.5C 15.537,88.8526 12.2037,83.1859 10.5,76.5C 9.83333,72.5 9.16667,68.5 8.5,64.5C 8.5,58.8333 8.5,53.1667 8.5,47.5C 8.36596,45.7085 8.69929,44.0418 9.5,42.5C 11.2132,41.3646 11.8799,39.698 11.5,37.5C 11.5569,36.391 11.8902,35.391 12.5,34.5C 13.9063,34.0269 14.573,33.0269 14.5,31.5C 14.3284,30.5084 14.6618,29.8417 15.5,29.5C 17.2624,28.7377 18.2624,27.4044 18.5,25.5C 20.2624,24.7377 21.2624,23.4044 21.5,21.5C 21.8333,20.5 22.5,19.8333 23.5,19.5C 26.0892,18.5806 28.0892,16.914 29.5,14.5C 31.4044,14.2624 32.7377,13.2624 33.5,11.5C 33.8417,10.6618 34.5084,10.3284 35.5,10.5C 37.0269,10.573 38.0269,9.90632 38.5,8.5C 40.698,8.87988 42.3646,8.21321 43.5,6.5C 47.479,6.25759 51.1456,5.25759 54.5,3.5C 67.4097,1.48224 79.4097,3.81557 90.5,10.5 Z"/></g>
<g><path style="opacity:0.812" fill="#848484" d="M 54.5,3.5 C 51.1456,5.25759 47.479,6.25759 43.5,6.5C 46.8544,4.74241 50.521,3.74241 54.5,3.5 Z"/></g>
<g><path style="opacity:0.976" fill="#696969" d="M 43.5,6.5 C 42.3646,8.21321 40.698,8.87988 38.5,8.5C 39.9303,7.46253 41.597,6.79586 43.5,6.5 Z"/></g>
<g><path style="opacity:0.753" fill="#878787" d="M 38.5,8.5 C 38.0269,9.90632 37.0269,10.573 35.5,10.5C 35.9731,9.09368 36.9731,8.42702 38.5,8.5 Z"/></g>
<g><path style="opacity:0.973" fill="#696969" d="M 90.5,10.5 C 91.7095,10.9321 92.7095,11.5987 93.5,12.5C 91.8212,12.7148 90.8212,12.0481 90.5,10.5 Z"/></g>
<g><path style="opacity:0.753" fill="#707070" d="M 33.5,11.5 C 32.7377,13.2624 31.4044,14.2624 29.5,14.5C 30.2623,12.7376 31.5956,11.7376 33.5,11.5 Z"/></g>
<g><path style="opacity:0.725" fill="#797979" d="M 93.5,12.5 C 95.2303,13.0256 96.5637,14.0256 97.5,15.5C 95.368,15.4456 94.0347,14.4456 93.5,12.5 Z"/></g>
<g><path style="opacity:0.89" fill="#5a5a5a" d="M 29.5,14.5 C 28.0892,16.914 26.0892,18.5806 23.5,19.5C 24.9108,17.086 26.9108,15.4194 29.5,14.5 Z"/></g>
<g><path style="opacity:0.004" fill="#aeaeae" d="M 100.5,18.5 C 180.118,96.4512 259.118,175.118 337.5,254.5C 257.882,176.549 178.882,97.8822 100.5,18.5 Z"/></g>
<g><path style="opacity:0.808" fill="#828282" d="M 21.5,21.5 C 21.2624,23.4044 20.2624,24.7377 18.5,25.5C 18.7376,23.5956 19.7376,22.2623 21.5,21.5 Z"/></g>
<g><path style="opacity:0.878" fill="#7d7d7d" d="M 18.5,25.5 C 18.2624,27.4044 17.2624,28.7377 15.5,29.5C 15.7376,27.5956 16.7376,26.2623 18.5,25.5 Z"/></g>
<g><path style="opacity:0.153" fill="#bfbfbf" d="M 14.5,31.5 C 14.573,33.0269 13.9063,34.0269 12.5,34.5C 12.427,32.9731 13.0937,31.9731 14.5,31.5 Z"/></g>
<g><path style="opacity:0.886" fill="#7a7a7a" d="M 11.5,37.5 C 11.8799,39.698 11.2132,41.3646 9.5,42.5C 9.79586,40.597 10.4625,38.9303 11.5,37.5 Z"/></g>
<g><path style="opacity:0.647" fill="#767676" d="M 8.5,47.5 C 8.5,53.1667 8.5,58.8333 8.5,64.5C 8.16667,64.5 7.83333,64.5 7.5,64.5C 6.71362,58.7171 7.04696,53.0505 8.5,47.5 Z"/></g>
<g><path style="opacity:0.051" fill="#c6c6c6" d="M 7.5,64.5 C 7.83333,64.5 8.16667,64.5 8.5,64.5C 9.16667,68.5 9.83333,72.5 10.5,76.5C 8.58413,72.8371 7.58413,68.8371 7.5,64.5 Z"/></g>
<g><path style="opacity:0.012" fill="#cacaca" d="M 20.5,93.5 C 21.9063,93.9731 22.573,94.9731 22.5,96.5C 21.0937,96.0269 20.427,95.0269 20.5,93.5 Z"/></g>
<g><path style="opacity:0.69" fill="#939393" d="M 22.5,96.5 C 24.0898,96.6282 25.4231,97.2949 26.5,98.5C 31.5843,103.577 36.251,108.91 40.5,114.5C 34.1667,108.833 28.1667,102.833 22.5,96.5 Z"/></g>
<g><path style="opacity:0.675" fill="#a0a0a0" d="M 40.5,114.5 C 41.2389,114.369 41.9056,114.536 42.5,115C 58.4212,130.419 73.7545,146.252 88.5,162.5C 72.1667,146.833 56.1667,130.833 40.5,114.5 Z"/></g>
<g><path style="opacity:0.655" fill="#a4a4a4" d="M 88.5,162.5 C 95.8333,167.833 102.167,174.167 107.5,181.5C 100.833,175.5 94.5,169.167 88.5,162.5 Z"/></g>
<g><path style="opacity:0.643" fill="#a7a7a7" d="M 107.5,181.5 C 111.167,183.167 113.833,185.833 115.5,189.5C 112.5,187.167 109.833,184.5 107.5,181.5 Z"/></g>
<g><path style="opacity:0.651" fill="#adadad" d="M 115.5,189.5 C 159.75,232.249 203.583,275.582 247,319.5C 247.692,320.437 247.525,321.103 246.5,321.5C 246.167,321.5 245.833,321.5 245.5,321.5C 245.631,320.761 245.464,320.094 245,319.5C 201.632,276.299 158.465,232.965 115.5,189.5 Z"/></g>
<g><path style="opacity:0.647" fill="#a2a2a2" d="M 337.5,254.5 C 346.5,262.833 355.167,271.5 363.5,280.5C 362.761,280.631 362.094,280.464 361.5,280C 352.907,271.912 344.907,263.412 337.5,254.5 Z"/></g>
<g><path style="opacity:0.71" fill="#9a9a9a" d="M 363.5,280.5 C 365.262,281.262 366.262,282.596 366.5,284.5C 364.738,283.738 363.738,282.404 363.5,280.5 Z"/></g>
<g><path style="opacity:0.325" fill="#ababab" d="M 372.5,292.5 C 373.906,292.973 374.573,293.973 374.5,295.5C 373.094,295.027 372.427,294.027 372.5,292.5 Z"/></g>
<g><path style="opacity:0.922" fill="#6f6f6f" d="M 376.5,300.5 C 378.605,303.408 379.605,306.742 379.5,310.5C 377.723,307.495 376.723,304.162 376.5,300.5 Z"/></g>
<g><path style="opacity:0.102" fill="#ababab" d="M 379.5,310.5 C 380.165,313.817 380.499,317.317 380.5,321C 380.707,326.102 380.04,330.935 378.5,335.5C 379.332,327.195 379.665,318.862 379.5,310.5 Z"/></g>
<g><path style="opacity:0.714" fill="#838383" d="M 245.5,321.5 C 245.833,321.5 246.167,321.5 246.5,321.5C 231.449,337.552 215.782,352.885 199.5,367.5C 214.5,351.833 229.833,336.5 245.5,321.5 Z"/></g>
<g><path style="opacity:0.737" fill="#7f7f7f" d="M 199.5,367.5 C 199.631,368.239 199.464,368.906 199,369.5C 183.581,385.421 167.748,400.755 151.5,415.5C 167.167,399.167 183.167,383.167 199.5,367.5 Z"/></g>
<g><path style="opacity:0.745" fill="#7f7f7f" d="M 151.5,415.5 C 149.5,419.5 146.5,422.5 142.5,424.5C 145.167,421.167 148.167,418.167 151.5,415.5 Z"/></g>
<g><path style="opacity:0.765" fill="#7c7c7c" d="M 142.5,424.5 C 138.167,430.833 132.833,436.167 126.5,440.5C 131.5,434.833 136.833,429.5 142.5,424.5 Z"/></g>
<g><path style="opacity:0.765" fill="#7c7c7c" d="M 126.5,440.5 C 125.167,443.833 122.833,446.167 119.5,447.5C 121.5,444.833 123.833,442.5 126.5,440.5 Z"/></g>
<g><path style="opacity:0.745" fill="#7d7d7d" d="M 119.5,447.5 C 118.167,450.833 115.833,453.167 112.5,454.5C 114.5,451.833 116.833,449.5 119.5,447.5 Z"/></g>
<g><path style="opacity:0.776" fill="#717171" d="M 112.5,454.5 C 110.21,458.79 106.877,462.123 102.5,464.5C 105.5,460.833 108.833,457.5 112.5,454.5 Z"/></g>
<g><path style="opacity:0.757" fill="#7a7a7a" d="M 102.5,464.5 C 100.833,468.167 98.1667,470.833 94.5,472.5C 96.8333,469.5 99.5,466.833 102.5,464.5 Z"/></g>
<g><path style="opacity:0.773" fill="#787878" d="M 94.5,472.5 C 92.8333,476.167 90.1667,478.833 86.5,480.5C 88.8333,477.5 91.5,474.833 94.5,472.5 Z"/></g>
<g><path style="opacity:0.784" fill="#7a7a7a" d="M 86.5,480.5 C 86.5,482.5 85.5,483.5 83.5,483.5C 84.1667,482.167 85.1667,481.167 86.5,480.5 Z"/></g>
<g><path style="opacity:0.769" fill="#7e7e7e" d="M 83.5,483.5 C 83.1667,485.833 81.8333,487.167 79.5,487.5C 80.5,485.833 81.8333,484.5 83.5,483.5 Z"/></g>
<g><path style="opacity:0.769" fill="#7f7f7f" d="M 79.5,487.5 C 79.5,489.5 78.5,490.5 76.5,490.5C 77.1667,489.167 78.1667,488.167 79.5,487.5 Z"/></g>
<g><path style="opacity:1" fill="#525252" d="M 76.5,490.5 C 75.4548,493.545 73.4548,495.545 70.5,496.5C 72.1667,494.167 74.1667,492.167 76.5,490.5 Z"/></g>
<g><path style="opacity:0.788" fill="#777777" d="M 70.5,496.5 C 69.5,499.5 67.5,501.5 64.5,502.5C 66.1667,500.167 68.1667,498.167 70.5,496.5 Z"/></g>
<g><path style="opacity:0.78" fill="#737373" d="M 62.5,504.5 C 60.8333,508.167 58.1667,510.833 54.5,512.5C 56.8333,509.5 59.5,506.833 62.5,504.5 Z"/></g>
<g><path style="opacity:0.773" fill="#777777" d="M 54.5,512.5 C 52.8333,516.167 50.1667,518.833 46.5,520.5C 48.8333,517.5 51.5,514.833 54.5,512.5 Z"/></g>
<g><path style="opacity:0.788" fill="#787878" d="M 46.5,520.5 C 46.1667,522.833 44.8333,524.167 42.5,524.5C 43.5,522.833 44.8333,521.5 46.5,520.5 Z"/></g>
<g><path style="opacity:0.769" fill="#777777" d="M 42.5,524.5 C 42.1667,526.833 40.8333,528.167 38.5,528.5C 39.5,526.833 40.8333,525.5 42.5,524.5 Z"/></g>
<g><path style="opacity:0.8" fill="#787878" d="M 38.5,528.5 C 38.5,530.5 37.5,531.5 35.5,531.5C 36.1667,530.167 37.1667,529.167 38.5,528.5 Z"/></g>
<g><path style="opacity:0.788" fill="#747474" d="M 35.5,531.5 C 35.5,533.5 34.5,534.5 32.5,534.5C 33.1667,533.167 34.1667,532.167 35.5,531.5 Z"/></g>
<g><path style="opacity:0.792" fill="#6c6c6c" d="M 32.5,534.5 C 31.5,537.5 29.5,539.5 26.5,540.5C 28.1667,538.167 30.1667,536.167 32.5,534.5 Z"/></g>
<g><path style="opacity:0.553" fill="#a1a1a1" d="M 24.5,542.5 C 23.9202,544.749 22.5869,546.415 20.5,547.5C 21.0798,545.251 22.4131,543.585 24.5,542.5 Z"/></g>
<g><path style="opacity:0.839" fill="#808080" d="M 20.5,547.5 C 20.2624,549.404 19.2624,550.738 17.5,551.5C 17.7376,549.596 18.7376,548.262 20.5,547.5 Z"/></g>
<g><path style="opacity:0.294" fill="#b0b0b0" d="M 17.5,551.5 C 17.573,553.027 16.9063,554.027 15.5,554.5C 15.427,552.973 16.0937,551.973 17.5,551.5 Z"/></g>
<g><path style="opacity:0.82" fill="#909090" d="M 12.5,560.5 C 12.8799,562.698 12.2132,564.365 10.5,565.5C 10.7959,563.597 11.4625,561.93 12.5,560.5 Z"/></g>
<g><path style="opacity:0.4" fill="#ababab" d="M 10.5,567.5 C 10.1667,570.167 9.83333,572.833 9.5,575.5C 9.16667,575.5 8.83333,575.5 8.5,575.5C 8.29379,572.505 8.96046,569.838 10.5,567.5 Z"/></g>
<g><path style="opacity:0.759" fill="#8b8b8b" d="M 8.5,575.5 C 8.83333,575.5 9.16667,575.5 9.5,575.5C 9.5,581.167 9.5,586.833 9.5,592.5C 7.76185,587.012 7.42852,581.345 8.5,575.5 Z"/></g>
<g><path style="opacity:0.937" fill="#767676" d="M 14.5,607.5 C 16.0481,607.821 16.7148,608.821 16.5,610.5C 15.5987,609.71 14.9321,608.71 14.5,607.5 Z"/></g>
<g><path style="opacity:0.761" fill="#6d6d6d" d="M 30.5,625.5 C 32.4044,625.738 33.7377,626.738 34.5,628.5C 32.5956,628.262 31.2623,627.262 30.5,625.5 Z"/></g>
<g><path style="opacity:0.373" fill="#9b9b9b" d="M 36.5,629.5 C 38.0269,629.427 39.0269,630.094 39.5,631.5C 37.9731,631.573 36.9731,630.906 36.5,629.5 Z"/></g>
<g><path style="opacity:0.855" fill="#828282" d="M 41.5,632.5 C 43.698,632.12 45.3646,632.787 46.5,634.5C 44.597,634.204 42.9303,633.537 41.5,632.5 Z"/></g>
</svg>
