<?xml version="1.0" encoding="UTF-8"?>
<!DOCTYPE svg PUBLIC "-//W3C//DTD SVG 1.1//EN" "http://www.w3.org/Graphics/SVG/1.1/DTD/svg11.dtd">
<svg xmlns="http://www.w3.org/2000/svg" version="1.1" width="476px" height="524px" style="shape-rendering:geometricPrecision; text-rendering:geometricPrecision; image-rendering:optimizeQuality; fill-rule:evenodd; clip-rule:evenodd" xmlns:xlink="http://www.w3.org/1999/xlink">
<g><path style="opacity:0.996" fill="#fdfcfc" d="M 240.5,-0.5 C 243.5,-0.5 246.5,-0.5 249.5,-0.5C 263.494,14.3273 277.994,28.6606 293,42.5C 295,46.1667 295,49.8333 293,53.5C 278.833,67.6667 264.667,81.8333 250.5,96C 246.864,97.8985 243.197,97.8985 239.5,96C 238.748,95.3292 238.414,94.4959 238.5,93.5C 237.577,86.891 237.244,80.2244 237.5,73.5C 233.629,73.185 229.962,73.5184 226.5,74.5C 148.613,85.2342 94.7794,126.901 65,199.5C 56.9216,222.124 52.9216,245.457 53,269.5C 47.4231,286.038 36.2565,291.538 19.5,286C 13.7966,282.632 9.96326,277.799 8,271.5C 7.7931,180.728 45.6264,110.895 121.5,62C 155.462,41.6212 192.129,30.4545 231.5,28.5C 233.5,28.5 235.5,28.5 237.5,28.5C 236.99,19.3606 237.656,10.3606 239.5,1.5C 239.833,0.833333 240.167,0.166667 240.5,-0.5 Z"/></g>
<g><path style="opacity:0.084" fill="#c9c7c7" d="M 239.5,1.5 C 237.656,10.3606 236.99,19.3606 237.5,28.5C 235.5,28.5 233.5,28.5 231.5,28.5C 232.919,27.5489 234.585,27.2155 236.5,27.5C 236.334,19.8261 236.5,12.1594 237,4.5C 237.377,3.05773 238.21,2.05773 239.5,1.5 Z"/></g>
<g><path style="opacity:0.102" fill="#cac5c4" d="M 226.5,74.5 C 229.962,73.5184 233.629,73.185 237.5,73.5C 237.244,80.2244 237.577,86.891 238.5,93.5C 237.883,93.3893 237.383,93.056 237,92.5C 236.501,86.5092 236.334,80.5092 236.5,74.5C 233.167,74.5 229.833,74.5 226.5,74.5 Z"/></g>
<g><path style="opacity:0.175" fill="#d8d4d5" d="M 181.5,196.5 C 173.333,196.238 165,196.571 156.5,197.5C 157.263,196.732 158.263,196.232 159.5,196C 166.869,195.274 174.202,195.441 181.5,196.5 Z"/></g>
<g><path style="opacity:0.992" fill="#fbfbfb" d="M 156.5,197.5 C 165,196.571 173.333,196.238 181.5,196.5C 207.297,204.428 215.797,221.094 207,246.5C 204.02,250.314 200.854,253.981 197.5,257.5C 219.275,273.131 223.108,292.465 209,315.5C 201.551,324.64 192.051,330.306 180.5,332.5C 173.852,333.139 167.186,333.473 160.5,333.5C 142.121,331.298 129.287,321.631 122,304.5C 119.771,298.669 120.105,293.002 123,287.5C 129.138,281.707 135.805,281.04 143,285.5C 146,291.5 149,297.5 152,303.5C 155.429,309.409 160.596,312.076 167.5,311.5C 180.06,310.44 186.727,303.606 187.5,291C 188.011,281.667 184.011,275.333 175.5,272C 167.091,271.907 158.757,271.24 150.5,270C 144.272,263.953 143.938,257.62 149.5,251C 156.513,248.148 163.846,246.815 171.5,247C 181.925,241.184 184.425,233.017 179,222.5C 172.926,217.371 166.093,216.204 158.5,219C 156.376,220.122 154.543,221.622 153,223.5C 150.806,227.749 148.806,232.082 147,236.5C 141.209,241.18 135.042,241.68 128.5,238C 122.984,229.281 123.484,220.781 130,212.5C 137.106,203.878 145.939,198.878 156.5,197.5 Z"/></g>
<g><path style="opacity:0.986" fill="#fdfcfc" d="M 248.5,196.5 C 267.17,196.333 285.836,196.5 304.5,197C 327.216,200.04 342.549,212.373 350.5,234C 358.378,260.053 356.211,284.887 344,308.5C 335.316,320.928 323.482,328.428 308.5,331C 290.191,332.499 271.858,332.833 253.5,332C 244.121,331.62 238.954,326.787 238,317.5C 237.737,283.451 237.57,249.285 237.5,215C 237.022,206.177 240.688,200.01 248.5,196.5 Z M 270.5,221.5 C 279.392,221.2 288.392,221.7 297.5,223C 312.128,225.699 320.295,234.532 322,249.5C 322.667,258.5 322.667,267.5 322,276.5C 320.846,285.979 317.013,294.145 310.5,301C 307.382,302.893 304.049,304.226 300.5,305C 291.893,306.339 283.226,306.839 274.5,306.5C 272.833,306.5 271.167,306.5 269.5,306.5C 269.175,278.093 269.509,249.759 270.5,221.5 Z"/></g>
<g><path style="opacity:0.996" fill="#fdfdfd" d="M 466.5,251.5 C 466.485,263.178 466.152,274.845 465.5,286.5C 452.637,374.077 406.303,436.91 326.5,475C 306.316,483.796 285.316,489.629 263.5,492.5C 254.845,493.083 246.178,493.416 237.5,493.5C 237.748,502.54 237.415,511.54 236.5,520.5C 235.833,521.5 235.167,522.5 234.5,523.5C 231.833,523.5 229.167,523.5 226.5,523.5C 211.866,509.034 197.032,494.7 182,480.5C 180,476.833 180,473.167 182,469.5C 196.167,455.333 210.333,441.167 224.5,427C 227.366,425.543 230.366,425.21 233.5,426C 235.426,426.422 236.426,427.589 236.5,429.5C 237.423,436.109 237.756,442.776 237.5,449.5C 242.032,449.818 246.366,449.485 250.5,448.5C 316.692,438.937 366.359,405.271 399.5,347.5C 404.208,342.074 407.208,335.741 408.5,328.5C 413.913,313.182 417.913,297.515 420.5,281.5C 422.259,272.733 422.925,263.733 422.5,254.5C 424.452,241.751 431.952,235.084 445,234.5C 456.167,235.172 463.333,240.839 466.5,251.5 Z"/></g>
<g><path style="opacity:0.116" fill="#dbdbd9" d="M 270.5,221.5 C 269.509,249.759 269.175,278.093 269.5,306.5C 271.167,306.5 272.833,306.5 274.5,306.5C 272.735,307.461 270.735,307.795 268.5,307.5C 267.841,278.481 268.508,249.814 270.5,221.5 Z"/></g>
<g><path style="opacity:0.035" fill="#d9d8d8" d="M 422.5,254.5 C 422.925,263.733 422.259,272.733 420.5,281.5C 420.84,272.326 421.507,263.326 422.5,254.5 Z"/></g>
<g><path style="opacity:0.349" fill="#d9d9d6" d="M 466.5,251.5 C 467.166,255.653 467.499,259.987 467.5,264.5C 467.602,272.052 466.935,279.385 465.5,286.5C 466.152,274.845 466.485,263.178 466.5,251.5 Z"/></g>
<g><path style="opacity:0.092" fill="#c9c5c2" d="M 180.5,332.5 C 176.594,333.94 172.427,334.606 168,334.5C 165.31,334.497 162.81,334.164 160.5,333.5C 167.186,333.473 173.852,333.139 180.5,332.5 Z"/></g>
<g><path style="opacity:0.42" fill="#dbd6d8" d="M 408.5,328.5 C 407.208,335.741 404.208,342.074 399.5,347.5C 402.263,340.976 405.263,334.643 408.5,328.5 Z"/></g>
<g><path style="opacity:0.075" fill="#d1ceca" d="M 236.5,429.5 C 237.117,429.611 237.617,429.944 238,430.5C 238.499,436.491 238.666,442.491 238.5,448.5C 242.5,448.5 246.5,448.5 250.5,448.5C 246.366,449.485 242.032,449.818 237.5,449.5C 237.756,442.776 237.423,436.109 236.5,429.5 Z"/></g>
<g><path style="opacity:0.051" fill="#d0ccc9" d="M 263.5,492.5 C 255.657,493.781 247.657,494.781 239.5,495.5C 238.669,503.145 238.169,510.812 238,518.5C 237.722,519.416 237.222,520.082 236.5,520.5C 237.415,511.54 237.748,502.54 237.5,493.5C 246.178,493.416 254.845,493.083 263.5,492.5 Z"/></g>
</svg>
