<?xml version="1.0" encoding="UTF-8"?>
<!DOCTYPE svg PUBLIC "-//W3C//DTD SVG 1.1//EN" "http://www.w3.org/Graphics/SVG/1.1/DTD/svg11.dtd">
<svg xmlns="http://www.w3.org/2000/svg" version="1.1" width="592px" height="592px" style="shape-rendering:geometricPrecision; text-rendering:geometricPrecision; image-rendering:optimizeQuality; fill-rule:evenodd; clip-rule:evenodd" xmlns:xlink="http://www.w3.org/1999/xlink">
<g><path style="opacity:1" fill="#000000" d="M -0.5,-0.5 C 36.8333,-0.5 74.1667,-0.5 111.5,-0.5C 111.5,36.8333 111.5,74.1667 111.5,111.5C 74.1667,111.5 36.8333,111.5 -0.5,111.5C -0.5,74.1667 -0.5,36.8333 -0.5,-0.5 Z"/></g>
<g><path style="opacity:1" fill="#fefffe" d="M 111.5,-0.5 C 116.833,-0.5 122.167,-0.5 127.5,-0.5C 127.5,15.5 127.5,31.5 127.5,47.5C 132.833,47.5 138.167,47.5 143.5,47.5C 143.5,58.1667 143.5,68.8333 143.5,79.5C 138.167,79.5 132.833,79.5 127.5,79.5C 127.5,100.833 127.5,122.167 127.5,143.5C 132.833,143.5 138.167,143.5 143.5,143.5C 143.5,154.167 143.5,164.833 143.5,175.5C 148.833,175.5 154.167,175.5 159.5,175.5C 159.5,180.833 159.5,186.167 159.5,191.5C 148.833,191.5 138.167,191.5 127.5,191.5C 127.5,186.167 127.5,180.833 127.5,175.5C 122.167,175.5 116.833,175.5 111.5,175.5C 111.5,170.167 111.5,164.833 111.5,159.5C 106.167,159.5 100.833,159.5 95.5,159.5C 95.5,164.833 95.5,170.167 95.5,175.5C 90.1667,175.5 84.8333,175.5 79.5,175.5C 79.5,180.833 79.5,186.167 79.5,191.5C 84.8333,191.5 90.1667,191.5 95.5,191.5C 95.5,196.833 95.5,202.167 95.5,207.5C 84.8333,207.5 74.1667,207.5 63.5,207.5C 63.5,212.833 63.5,218.167 63.5,223.5C 58.1667,223.5 52.8333,223.5 47.5,223.5C 47.5,212.833 47.5,202.167 47.5,191.5C 52.8333,191.5 58.1667,191.5 63.5,191.5C 63.5,186.167 63.5,180.833 63.5,175.5C 58.1667,175.5 52.8333,175.5 47.5,175.5C 47.5,170.167 47.5,164.833 47.5,159.5C 42.1667,159.5 36.8333,159.5 31.5,159.5C 31.5,154.167 31.5,148.833 31.5,143.5C 20.8333,143.5 10.1667,143.5 -0.5,143.5C -0.5,132.833 -0.5,122.167 -0.5,111.5C 36.8333,111.5 74.1667,111.5 111.5,111.5C 111.5,74.1667 111.5,36.8333 111.5,-0.5 Z"/></g>
<g><path style="opacity:1" fill="#000000" d="M 127.5,-0.5 C 132.833,-0.5 138.167,-0.5 143.5,-0.5C 143.5,4.83333 143.5,10.1667 143.5,15.5C 154.167,15.5 164.833,15.5 175.5,15.5C 175.5,10.1667 175.5,4.83333 175.5,-0.5C 196.833,-0.5 218.167,-0.5 239.5,-0.5C 239.5,15.5 239.5,31.5 239.5,47.5C 244.833,47.5 250.167,47.5 255.5,47.5C 255.5,52.8333 255.5,58.1667 255.5,63.5C 266.167,63.5 276.833,63.5 287.5,63.5C 287.5,58.1667 287.5,52.8333 287.5,47.5C 303.5,47.5 319.5,47.5 335.5,47.5C 335.5,42.1667 335.5,36.8333 335.5,31.5C 356.833,31.5 378.167,31.5 399.5,31.5C 399.5,36.8333 399.5,42.1667 399.5,47.5C 404.833,47.5 410.167,47.5 415.5,47.5C 415.5,52.8333 415.5,58.1667 415.5,63.5C 399.5,63.5 383.5,63.5 367.5,63.5C 367.5,58.1667 367.5,52.8333 367.5,47.5C 362.167,47.5 356.833,47.5 351.5,47.5C 351.5,58.1667 351.5,68.8333 351.5,79.5C 346.167,79.5 340.833,79.5 335.5,79.5C 335.5,90.1667 335.5,100.833 335.5,111.5C 330.167,111.5 324.833,111.5 319.5,111.5C 319.5,106.167 319.5,100.833 319.5,95.5C 314.167,95.5 308.833,95.5 303.5,95.5C 303.5,90.1667 303.5,84.8333 303.5,79.5C 298.167,79.5 292.833,79.5 287.5,79.5C 287.5,84.8333 287.5,90.1667 287.5,95.5C 282.167,95.5 276.833,95.5 271.5,95.5C 271.5,90.1667 271.5,84.8333 271.5,79.5C 266.167,79.5 260.833,79.5 255.5,79.5C 255.5,84.8333 255.5,90.1667 255.5,95.5C 250.167,95.5 244.833,95.5 239.5,95.5C 239.5,84.8333 239.5,74.1667 239.5,63.5C 234.167,63.5 228.833,63.5 223.5,63.5C 223.5,68.8333 223.5,74.1667 223.5,79.5C 207.5,79.5 191.5,79.5 175.5,79.5C 175.5,95.5 175.5,111.5 175.5,127.5C 170.167,127.5 164.833,127.5 159.5,127.5C 159.5,132.833 159.5,138.167 159.5,143.5C 170.167,143.5 180.833,143.5 191.5,143.5C 191.5,154.167 191.5,164.833 191.5,175.5C 186.167,175.5 180.833,175.5 175.5,175.5C 175.5,170.167 175.5,164.833 175.5,159.5C 170.167,159.5 164.833,159.5 159.5,159.5C 159.5,164.833 159.5,170.167 159.5,175.5C 154.167,175.5 148.833,175.5 143.5,175.5C 143.5,164.833 143.5,154.167 143.5,143.5C 138.167,143.5 132.833,143.5 127.5,143.5C 127.5,122.167 127.5,100.833 127.5,79.5C 132.833,79.5 138.167,79.5 143.5,79.5C 143.5,68.8333 143.5,58.1667 143.5,47.5C 138.167,47.5 132.833,47.5 127.5,47.5C 127.5,31.5 127.5,15.5 127.5,-0.5 Z"/></g>
<g><path style="opacity:1" fill="#fefffe" d="M 143.5,-0.5 C 154.167,-0.5 164.833,-0.5 175.5,-0.5C 175.5,4.83333 175.5,10.1667 175.5,15.5C 164.833,15.5 154.167,15.5 143.5,15.5C 143.5,10.1667 143.5,4.83333 143.5,-0.5 Z"/></g>
<g><path style="opacity:1" fill="#fefefe" d="M 239.5,-0.5 C 244.833,-0.5 250.167,-0.5 255.5,-0.5C 255.5,15.5 255.5,31.5 255.5,47.5C 250.167,47.5 244.833,47.5 239.5,47.5C 239.5,31.5 239.5,15.5 239.5,-0.5 Z"/></g>
<g><path style="opacity:1" fill="#000000" d="M 255.5,-0.5 C 260.833,-0.5 266.167,-0.5 271.5,-0.5C 271.5,4.83333 271.5,10.1667 271.5,15.5C 276.833,15.5 282.167,15.5 287.5,15.5C 287.5,26.1667 287.5,36.8333 287.5,47.5C 276.833,47.5 266.167,47.5 255.5,47.5C 255.5,31.5 255.5,15.5 255.5,-0.5 Z"/></g>
<g><path style="opacity:1" fill="#fefefe" d="M 271.5,-0.5 C 276.833,-0.5 282.167,-0.5 287.5,-0.5C 287.5,4.83333 287.5,10.1667 287.5,15.5C 282.167,15.5 276.833,15.5 271.5,15.5C 271.5,10.1667 271.5,4.83333 271.5,-0.5 Z"/></g>
<g><path style="opacity:1" fill="#000000" d="M 287.5,-0.5 C 292.833,-0.5 298.167,-0.5 303.5,-0.5C 303.5,4.83333 303.5,10.1667 303.5,15.5C 298.167,15.5 292.833,15.5 287.5,15.5C 287.5,10.1667 287.5,4.83333 287.5,-0.5 Z"/></g>
<g><path style="opacity:1" fill="#fefefe" d="M 303.5,-0.5 C 308.833,-0.5 314.167,-0.5 319.5,-0.5C 319.5,4.83333 319.5,10.1667 319.5,15.5C 314.167,15.5 308.833,15.5 303.5,15.5C 303.5,10.1667 303.5,4.83333 303.5,-0.5 Z"/></g>
<g><path style="opacity:1" fill="#000000" d="M 319.5,-0.5 C 330.167,-0.5 340.833,-0.5 351.5,-0.5C 351.5,4.83333 351.5,10.1667 351.5,15.5C 340.833,15.5 330.167,15.5 319.5,15.5C 319.5,10.1667 319.5,4.83333 319.5,-0.5 Z"/></g>
<g><path style="opacity:1" fill="#fefefe" d="M 351.5,-0.5 C 356.833,-0.5 362.167,-0.5 367.5,-0.5C 367.5,4.83333 367.5,10.1667 367.5,15.5C 383.5,15.5 399.5,15.5 415.5,15.5C 415.5,26.1667 415.5,36.8333 415.5,47.5C 410.167,47.5 404.833,47.5 399.5,47.5C 399.5,42.1667 399.5,36.8333 399.5,31.5C 378.167,31.5 356.833,31.5 335.5,31.5C 335.5,36.8333 335.5,42.1667 335.5,47.5C 319.5,47.5 303.5,47.5 287.5,47.5C 287.5,36.8333 287.5,26.1667 287.5,15.5C 292.833,15.5 298.167,15.5 303.5,15.5C 303.5,20.8333 303.5,26.1667 303.5,31.5C 308.833,31.5 314.167,31.5 319.5,31.5C 319.5,26.1667 319.5,20.8333 319.5,15.5C 330.167,15.5 340.833,15.5 351.5,15.5C 351.5,10.1667 351.5,4.83333 351.5,-0.5 Z"/></g>
<g><path style="opacity:1" fill="#000000" d="M 367.5,-0.5 C 388.833,-0.5 410.167,-0.5 431.5,-0.5C 431.5,4.83333 431.5,10.1667 431.5,15.5C 436.833,15.5 442.167,15.5 447.5,15.5C 447.5,10.1667 447.5,4.83333 447.5,-0.5C 452.833,-0.5 458.167,-0.5 463.5,-0.5C 463.5,15.5 463.5,31.5 463.5,47.5C 458.167,47.5 452.833,47.5 447.5,47.5C 447.5,52.8333 447.5,58.1667 447.5,63.5C 442.167,63.5 436.833,63.5 431.5,63.5C 431.5,58.1667 431.5,52.8333 431.5,47.5C 426.167,47.5 420.833,47.5 415.5,47.5C 415.5,36.8333 415.5,26.1667 415.5,15.5C 399.5,15.5 383.5,15.5 367.5,15.5C 367.5,10.1667 367.5,4.83333 367.5,-0.5 Z"/></g>
<g><path style="opacity:1" fill="#fefefe" d="M 431.5,-0.5 C 436.833,-0.5 442.167,-0.5 447.5,-0.5C 447.5,4.83333 447.5,10.1667 447.5,15.5C 442.167,15.5 436.833,15.5 431.5,15.5C 431.5,10.1667 431.5,4.83333 431.5,-0.5 Z"/></g>
<g><path style="opacity:1" fill="#fefefe" d="M 463.5,-0.5 C 468.833,-0.5 474.167,-0.5 479.5,-0.5C 479.5,36.8333 479.5,74.1667 479.5,111.5C 516.833,111.5 554.167,111.5 591.5,111.5C 591.5,116.833 591.5,122.167 591.5,127.5C 575.5,127.5 559.5,127.5 543.5,127.5C 543.5,132.833 543.5,138.167 543.5,143.5C 559.5,143.5 575.5,143.5 591.5,143.5C 591.5,148.833 591.5,154.167 591.5,159.5C 580.833,159.5 570.167,159.5 559.5,159.5C 559.5,170.167 559.5,180.833 559.5,191.5C 554.167,191.5 548.833,191.5 543.5,191.5C 543.5,196.833 543.5,202.167 543.5,207.5C 538.167,207.5 532.833,207.5 527.5,207.5C 527.5,202.167 527.5,196.833 527.5,191.5C 522.167,191.5 516.833,191.5 511.5,191.5C 511.5,180.833 511.5,170.167 511.5,159.5C 500.833,159.5 490.167,159.5 479.5,159.5C 479.5,154.167 479.5,148.833 479.5,143.5C 490.167,143.5 500.833,143.5 511.5,143.5C 511.5,138.167 511.5,132.833 511.5,127.5C 495.5,127.5 479.5,127.5 463.5,127.5C 463.5,111.5 463.5,95.5 463.5,79.5C 452.833,79.5 442.167,79.5 431.5,79.5C 431.5,84.8333 431.5,90.1667 431.5,95.5C 426.167,95.5 420.833,95.5 415.5,95.5C 415.5,90.1667 415.5,84.8333 415.5,79.5C 410.167,79.5 404.833,79.5 399.5,79.5C 399.5,84.8333 399.5,90.1667 399.5,95.5C 394.167,95.5 388.833,95.5 383.5,95.5C 383.5,100.833 383.5,106.167 383.5,111.5C 378.167,111.5 372.833,111.5 367.5,111.5C 367.5,100.833 367.5,90.1667 367.5,79.5C 362.167,79.5 356.833,79.5 351.5,79.5C 351.5,68.8333 351.5,58.1667 351.5,47.5C 356.833,47.5 362.167,47.5 367.5,47.5C 367.5,52.8333 367.5,58.1667 367.5,63.5C 383.5,63.5 399.5,63.5 415.5,63.5C 415.5,58.1667 415.5,52.8333 415.5,47.5C 420.833,47.5 426.167,47.5 431.5,47.5C 431.5,52.8333 431.5,58.1667 431.5,63.5C 436.833,63.5 442.167,63.5 447.5,63.5C 447.5,58.1667 447.5,52.8333 447.5,47.5C 452.833,47.5 458.167,47.5 463.5,47.5C 463.5,31.5 463.5,15.5 463.5,-0.5 Z"/></g>
<g><path style="opacity:1" fill="#000000" d="M 479.5,-0.5 C 516.833,-0.5 554.167,-0.5 591.5,-0.5C 591.5,36.8333 591.5,74.1667 591.5,111.5C 554.167,111.5 516.833,111.5 479.5,111.5C 479.5,74.1667 479.5,36.8333 479.5,-0.5 Z"/></g>
<g><path style="opacity:1" fill="#fefffe" d="M 15.5,15.5 C 42.1667,15.5 68.8333,15.5 95.5,15.5C 95.5,42.1667 95.5,68.8333 95.5,95.5C 68.8333,95.5 42.1667,95.5 15.5,95.5C 15.5,68.8333 15.5,42.1667 15.5,15.5 Z"/></g>
<g><path style="opacity:1" fill="#fefefe" d="M 207.5,31.5 C 207.5,26.1667 207.5,20.8333 207.5,15.5C 212.833,15.5 218.167,15.5 223.5,15.5C 223.5,20.8333 223.5,26.1667 223.5,31.5C 218.167,31.5 212.833,31.5 207.5,31.5 Z"/></g>
<g><path style="opacity:1" fill="#000000" d="M 303.5,15.5 C 308.833,15.5 314.167,15.5 319.5,15.5C 319.5,20.8333 319.5,26.1667 319.5,31.5C 314.167,31.5 308.833,31.5 303.5,31.5C 303.5,26.1667 303.5,20.8333 303.5,15.5 Z"/></g>
<g><path style="opacity:1" fill="#fefefe" d="M 495.5,15.5 C 522.167,15.5 548.833,15.5 575.5,15.5C 575.5,42.1667 575.5,68.8333 575.5,95.5C 548.833,95.5 522.167,95.5 495.5,95.5C 495.5,68.8333 495.5,42.1667 495.5,15.5 Z"/></g>
<g><path style="opacity:1" fill="#000000" d="M 31.5,31.5 C 47.5,31.5 63.5,31.5 79.5,31.5C 79.5,47.5 79.5,63.5 79.5,79.5C 63.5,79.5 47.5,79.5 31.5,79.5C 31.5,63.5 31.5,47.5 31.5,31.5 Z"/></g>
<g><path style="opacity:1" fill="#fefefe" d="M 207.5,31.5 C 207.5,36.8333 207.5,42.1667 207.5,47.5C 202.167,47.5 196.833,47.5 191.5,47.5C 191.5,52.8333 191.5,58.1667 191.5,63.5C 186.167,63.5 180.833,63.5 175.5,63.5C 175.5,52.8333 175.5,42.1667 175.5,31.5C 186.167,31.5 196.833,31.5 207.5,31.5 Z"/></g>
<g><path style="opacity:1" fill="#000000" d="M 511.5,31.5 C 527.5,31.5 543.5,31.5 559.5,31.5C 559.5,47.5 559.5,63.5 559.5,79.5C 543.5,79.5 527.5,79.5 511.5,79.5C 511.5,63.5 511.5,47.5 511.5,31.5 Z"/></g>
<g><path style="opacity:1" fill="#fefefe" d="M 255.5,47.5 C 266.167,47.5 276.833,47.5 287.5,47.5C 287.5,52.8333 287.5,58.1667 287.5,63.5C 276.833,63.5 266.167,63.5 255.5,63.5C 255.5,58.1667 255.5,52.8333 255.5,47.5 Z"/></g>
<g><path style="opacity:1" fill="#fefefe" d="M 239.5,95.5 C 234.167,95.5 228.833,95.5 223.5,95.5C 223.5,111.5 223.5,127.5 223.5,143.5C 218.167,143.5 212.833,143.5 207.5,143.5C 207.5,148.833 207.5,154.167 207.5,159.5C 212.833,159.5 218.167,159.5 223.5,159.5C 223.5,164.833 223.5,170.167 223.5,175.5C 228.833,175.5 234.167,175.5 239.5,175.5C 239.5,180.833 239.5,186.167 239.5,191.5C 244.833,191.5 250.167,191.5 255.5,191.5C 255.5,196.833 255.5,202.167 255.5,207.5C 265.839,207.334 276.172,207.5 286.5,208C 248.545,213.954 223.378,235.121 211,271.5C 201.404,314.061 214.571,347.561 250.5,372C 259.847,377.449 269.847,381.116 280.5,383C 277.518,383.498 274.518,383.665 271.5,383.5C 271.5,388.833 271.5,394.167 271.5,399.5C 276.833,399.5 282.167,399.5 287.5,399.5C 287.5,404.833 287.5,410.167 287.5,415.5C 292.833,415.5 298.167,415.5 303.5,415.5C 303.5,420.833 303.5,426.167 303.5,431.5C 292.833,431.5 282.167,431.5 271.5,431.5C 271.5,426.167 271.5,420.833 271.5,415.5C 266.167,415.5 260.833,415.5 255.5,415.5C 255.5,420.833 255.5,426.167 255.5,431.5C 244.833,431.5 234.167,431.5 223.5,431.5C 223.5,420.833 223.5,410.167 223.5,399.5C 228.833,399.5 234.167,399.5 239.5,399.5C 239.5,394.167 239.5,388.833 239.5,383.5C 228.833,383.5 218.167,383.5 207.5,383.5C 207.5,378.167 207.5,372.833 207.5,367.5C 196.833,367.5 186.167,367.5 175.5,367.5C 175.5,362.167 175.5,356.833 175.5,351.5C 170.167,351.5 164.833,351.5 159.5,351.5C 159.5,346.167 159.5,340.833 159.5,335.5C 170.167,335.5 180.833,335.5 191.5,335.5C 191.5,330.167 191.5,324.833 191.5,319.5C 180.833,319.5 170.167,319.5 159.5,319.5C 159.5,314.167 159.5,308.833 159.5,303.5C 148.833,303.5 138.167,303.5 127.5,303.5C 127.5,292.833 127.5,282.167 127.5,271.5C 122.167,271.5 116.833,271.5 111.5,271.5C 111.5,266.167 111.5,260.833 111.5,255.5C 116.833,255.5 122.167,255.5 127.5,255.5C 127.5,244.833 127.5,234.167 127.5,223.5C 116.833,223.5 106.167,223.5 95.5,223.5C 95.5,218.167 95.5,212.833 95.5,207.5C 111.5,207.5 127.5,207.5 143.5,207.5C 143.5,212.833 143.5,218.167 143.5,223.5C 148.833,223.5 154.167,223.5 159.5,223.5C 159.5,218.167 159.5,212.833 159.5,207.5C 164.833,207.5 170.167,207.5 175.5,207.5C 175.5,196.833 175.5,186.167 175.5,175.5C 180.833,175.5 186.167,175.5 191.5,175.5C 191.5,164.833 191.5,154.167 191.5,143.5C 180.833,143.5 170.167,143.5 159.5,143.5C 159.5,138.167 159.5,132.833 159.5,127.5C 164.833,127.5 170.167,127.5 175.5,127.5C 175.5,111.5 175.5,95.5 175.5,79.5C 191.5,79.5 207.5,79.5 223.5,79.5C 223.5,74.1667 223.5,68.8333 223.5,63.5C 228.833,63.5 234.167,63.5 239.5,63.5C 239.5,74.1667 239.5,84.8333 239.5,95.5 Z"/></g>
<g><path style="opacity:1" fill="#fefefe" d="M 271.5,95.5 C 266.167,95.5 260.833,95.5 255.5,95.5C 255.5,90.1667 255.5,84.8333 255.5,79.5C 260.833,79.5 266.167,79.5 271.5,79.5C 271.5,84.8333 271.5,90.1667 271.5,95.5 Z"/></g>
<g><path style="opacity:1" fill="#fefefe" d="M 303.5,95.5 C 298.167,95.5 292.833,95.5 287.5,95.5C 287.5,90.1667 287.5,84.8333 287.5,79.5C 292.833,79.5 298.167,79.5 303.5,79.5C 303.5,84.8333 303.5,90.1667 303.5,95.5 Z"/></g>
<g><path style="opacity:1" fill="#fefefe" d="M 351.5,79.5 C 351.5,90.1667 351.5,100.833 351.5,111.5C 346.167,111.5 340.833,111.5 335.5,111.5C 335.5,100.833 335.5,90.1667 335.5,79.5C 340.833,79.5 346.167,79.5 351.5,79.5 Z"/></g>
<g><path style="opacity:1" fill="#000000" d="M 351.5,79.5 C 356.833,79.5 362.167,79.5 367.5,79.5C 367.5,90.1667 367.5,100.833 367.5,111.5C 372.833,111.5 378.167,111.5 383.5,111.5C 383.5,116.833 383.5,122.167 383.5,127.5C 367.5,127.5 351.5,127.5 335.5,127.5C 335.5,122.167 335.5,116.833 335.5,111.5C 340.833,111.5 346.167,111.5 351.5,111.5C 351.5,100.833 351.5,90.1667 351.5,79.5 Z"/></g>
<g><path style="opacity:1" fill="#000000" d="M 415.5,95.5 C 410.167,95.5 404.833,95.5 399.5,95.5C 399.5,90.1667 399.5,84.8333 399.5,79.5C 404.833,79.5 410.167,79.5 415.5,79.5C 415.5,84.8333 415.5,90.1667 415.5,95.5 Z"/></g>
<g><path style="opacity:1" fill="#000000" d="M 479.5,159.5 C 474.167,159.5 468.833,159.5 463.5,159.5C 463.5,164.833 463.5,170.167 463.5,175.5C 458.167,175.5 452.833,175.5 447.5,175.5C 447.5,186.167 447.5,196.833 447.5,207.5C 442.167,207.5 436.833,207.5 431.5,207.5C 431.5,212.833 431.5,218.167 431.5,223.5C 426.167,223.5 420.833,223.5 415.5,223.5C 415.5,218.167 415.5,212.833 415.5,207.5C 410.167,207.5 404.833,207.5 399.5,207.5C 399.5,202.167 399.5,196.833 399.5,191.5C 388.833,191.5 378.167,191.5 367.5,191.5C 367.5,186.167 367.5,180.833 367.5,175.5C 362.167,175.5 356.833,175.5 351.5,175.5C 351.5,170.167 351.5,164.833 351.5,159.5C 346.167,159.5 340.833,159.5 335.5,159.5C 335.5,164.833 335.5,170.167 335.5,175.5C 330.167,175.5 324.833,175.5 319.5,175.5C 319.5,180.833 319.5,186.167 319.5,191.5C 314.167,191.5 308.833,191.5 303.5,191.5C 303.5,180.833 303.5,170.167 303.5,159.5C 298.167,159.5 292.833,159.5 287.5,159.5C 287.5,175.5 287.5,191.5 287.5,207.5C 329.719,206.256 359.886,224.589 378,262.5C 392.124,304.786 381.957,339.952 347.5,368C 336.673,375.745 324.673,380.745 311.5,383C 330.164,383.5 348.83,383.667 367.5,383.5C 367.5,410.167 367.5,436.833 367.5,463.5C 362.167,463.5 356.833,463.5 351.5,463.5C 351.5,452.833 351.5,442.167 351.5,431.5C 346.167,431.5 340.833,431.5 335.5,431.5C 335.5,426.167 335.5,420.833 335.5,415.5C 330.167,415.5 324.833,415.5 319.5,415.5C 319.5,410.167 319.5,404.833 319.5,399.5C 314.167,399.5 308.833,399.5 303.5,399.5C 303.5,394.5 303.5,389.5 303.5,384.5C 298.167,384.5 292.833,384.5 287.5,384.5C 287.5,389.5 287.5,394.5 287.5,399.5C 282.167,399.5 276.833,399.5 271.5,399.5C 271.5,394.167 271.5,388.833 271.5,383.5C 274.518,383.665 277.518,383.498 280.5,383C 269.847,381.116 259.847,377.449 250.5,372C 214.571,347.561 201.404,314.061 211,271.5C 223.378,235.121 248.545,213.954 286.5,208C 276.172,207.5 265.839,207.334 255.5,207.5C 255.5,202.167 255.5,196.833 255.5,191.5C 250.167,191.5 244.833,191.5 239.5,191.5C 239.5,186.167 239.5,180.833 239.5,175.5C 234.167,175.5 228.833,175.5 223.5,175.5C 223.5,170.167 223.5,164.833 223.5,159.5C 234.167,159.5 244.833,159.5 255.5,159.5C 255.5,148.833 255.5,138.167 255.5,127.5C 250.167,127.5 244.833,127.5 239.5,127.5C 239.5,132.833 239.5,138.167 239.5,143.5C 234.167,143.5 228.833,143.5 223.5,143.5C 223.5,127.5 223.5,111.5 223.5,95.5C 228.833,95.5 234.167,95.5 239.5,95.5C 239.5,100.833 239.5,106.167 239.5,111.5C 244.833,111.5 250.167,111.5 255.5,111.5C 255.5,106.167 255.5,100.833 255.5,95.5C 260.833,95.5 266.167,95.5 271.5,95.5C 271.5,100.833 271.5,106.167 271.5,111.5C 276.833,111.5 282.167,111.5 287.5,111.5C 287.5,106.167 287.5,100.833 287.5,95.5C 292.833,95.5 298.167,95.5 303.5,95.5C 308.833,95.5 314.167,95.5 319.5,95.5C 319.5,100.833 319.5,106.167 319.5,111.5C 319.5,116.833 319.5,122.167 319.5,127.5C 324.833,127.5 330.167,127.5 335.5,127.5C 335.5,132.833 335.5,138.167 335.5,143.5C 346.167,143.5 356.833,143.5 367.5,143.5C 367.5,148.833 367.5,154.167 367.5,159.5C 372.833,159.5 378.167,159.5 383.5,159.5C 383.5,154.167 383.5,148.833 383.5,143.5C 388.833,143.5 394.167,143.5 399.5,143.5C 399.5,138.167 399.5,132.833 399.5,127.5C 410.167,127.5 420.833,127.5 431.5,127.5C 431.5,132.833 431.5,138.167 431.5,143.5C 426.167,143.5 420.833,143.5 415.5,143.5C 415.5,148.833 415.5,154.167 415.5,159.5C 426.167,159.5 436.833,159.5 447.5,159.5C 447.5,138.167 447.5,116.833 447.5,95.5C 442.167,95.5 436.833,95.5 431.5,95.5C 431.5,90.1667 431.5,84.8333 431.5,79.5C 442.167,79.5 452.833,79.5 463.5,79.5C 463.5,95.5 463.5,111.5 463.5,127.5C 479.5,127.5 495.5,127.5 511.5,127.5C 511.5,132.833 511.5,138.167 511.5,143.5C 500.833,143.5 490.167,143.5 479.5,143.5C 479.5,148.833 479.5,154.167 479.5,159.5 Z"/></g>
<g><path style="opacity:1" fill="#fefffe" d="M 159.5,127.5 C 154.167,127.5 148.833,127.5 143.5,127.5C 143.5,116.833 143.5,106.167 143.5,95.5C 148.833,95.5 154.167,95.5 159.5,95.5C 159.5,106.167 159.5,116.833 159.5,127.5 Z"/></g>
<g><path style="opacity:1" fill="#000000" d="M 191.5,95.5 C 196.833,95.5 202.167,95.5 207.5,95.5C 207.5,100.833 207.5,106.167 207.5,111.5C 202.167,111.5 196.833,111.5 191.5,111.5C 191.5,106.167 191.5,100.833 191.5,95.5 Z"/></g>
<g><path style="opacity:1" fill="#fefefe" d="M 239.5,95.5 C 244.833,95.5 250.167,95.5 255.5,95.5C 255.5,100.833 255.5,106.167 255.5,111.5C 250.167,111.5 244.833,111.5 239.5,111.5C 239.5,106.167 239.5,100.833 239.5,95.5 Z"/></g>
<g><path style="opacity:1" fill="#fefefe" d="M 271.5,95.5 C 276.833,95.5 282.167,95.5 287.5,95.5C 287.5,100.833 287.5,106.167 287.5,111.5C 282.167,111.5 276.833,111.5 271.5,111.5C 271.5,106.167 271.5,100.833 271.5,95.5 Z"/></g>
<g><path style="opacity:1" fill="#fefefe" d="M 303.5,95.5 C 308.833,95.5 314.167,95.5 319.5,95.5C 319.5,100.833 319.5,106.167 319.5,111.5C 314.167,111.5 308.833,111.5 303.5,111.5C 303.5,106.167 303.5,100.833 303.5,95.5 Z"/></g>
<g><path style="opacity:1" fill="#000000" d="M 399.5,95.5 C 399.5,100.833 399.5,106.167 399.5,111.5C 394.167,111.5 388.833,111.5 383.5,111.5C 383.5,106.167 383.5,100.833 383.5,95.5C 388.833,95.5 394.167,95.5 399.5,95.5 Z"/></g>
<g><path style="opacity:1" fill="#fefefe" d="M 399.5,95.5 C 404.833,95.5 410.167,95.5 415.5,95.5C 415.5,100.833 415.5,106.167 415.5,111.5C 420.833,111.5 426.167,111.5 431.5,111.5C 431.5,106.167 431.5,100.833 431.5,95.5C 436.833,95.5 442.167,95.5 447.5,95.5C 447.5,116.833 447.5,138.167 447.5,159.5C 436.833,159.5 426.167,159.5 415.5,159.5C 415.5,154.167 415.5,148.833 415.5,143.5C 420.833,143.5 426.167,143.5 431.5,143.5C 431.5,138.167 431.5,132.833 431.5,127.5C 420.833,127.5 410.167,127.5 399.5,127.5C 399.5,132.833 399.5,138.167 399.5,143.5C 394.167,143.5 388.833,143.5 383.5,143.5C 383.5,148.833 383.5,154.167 383.5,159.5C 378.167,159.5 372.833,159.5 367.5,159.5C 367.5,154.167 367.5,148.833 367.5,143.5C 356.833,143.5 346.167,143.5 335.5,143.5C 335.5,138.167 335.5,132.833 335.5,127.5C 351.5,127.5 367.5,127.5 383.5,127.5C 383.5,122.167 383.5,116.833 383.5,111.5C 388.833,111.5 394.167,111.5 399.5,111.5C 399.5,106.167 399.5,100.833 399.5,95.5 Z"/></g>
<g><path style="opacity:1" fill="#000000" d="M 415.5,95.5 C 420.833,95.5 426.167,95.5 431.5,95.5C 431.5,100.833 431.5,106.167 431.5,111.5C 426.167,111.5 420.833,111.5 415.5,111.5C 415.5,106.167 415.5,100.833 415.5,95.5 Z"/></g>
<g><path style="opacity:1" fill="#fefefe" d="M 319.5,111.5 C 324.833,111.5 330.167,111.5 335.5,111.5C 335.5,116.833 335.5,122.167 335.5,127.5C 330.167,127.5 324.833,127.5 319.5,127.5C 319.5,122.167 319.5,116.833 319.5,111.5 Z"/></g>
<g><path style="opacity:1" fill="#000000" d="M 31.5,143.5 C 31.5,138.167 31.5,132.833 31.5,127.5C 47.5,127.5 63.5,127.5 79.5,127.5C 79.5,138.167 79.5,148.833 79.5,159.5C 74.1667,159.5 68.8333,159.5 63.5,159.5C 63.5,154.167 63.5,148.833 63.5,143.5C 52.8333,143.5 42.1667,143.5 31.5,143.5 Z"/></g>
<g><path style="opacity:1" fill="#000000" d="M 95.5,127.5 C 100.833,127.5 106.167,127.5 111.5,127.5C 111.5,132.833 111.5,138.167 111.5,143.5C 106.167,143.5 100.833,143.5 95.5,143.5C 95.5,138.167 95.5,132.833 95.5,127.5 Z"/></g>
<g><path style="opacity:1" fill="#fefefe" d="M 223.5,159.5 C 223.5,154.167 223.5,148.833 223.5,143.5C 228.833,143.5 234.167,143.5 239.5,143.5C 239.5,138.167 239.5,132.833 239.5,127.5C 244.833,127.5 250.167,127.5 255.5,127.5C 255.5,138.167 255.5,148.833 255.5,159.5C 244.833,159.5 234.167,159.5 223.5,159.5 Z"/></g>
<g><path style="opacity:1" fill="#000000" d="M 591.5,127.5 C 591.5,132.833 591.5,138.167 591.5,143.5C 575.5,143.5 559.5,143.5 543.5,143.5C 543.5,138.167 543.5,132.833 543.5,127.5C 559.5,127.5 575.5,127.5 591.5,127.5 Z"/></g>
<g><path style="opacity:1" fill="#000000" d="M -0.5,143.5 C 10.1667,143.5 20.8333,143.5 31.5,143.5C 31.5,148.833 31.5,154.167 31.5,159.5C 36.8333,159.5 42.1667,159.5 47.5,159.5C 47.5,164.833 47.5,170.167 47.5,175.5C 52.8333,175.5 58.1667,175.5 63.5,175.5C 63.5,180.833 63.5,186.167 63.5,191.5C 58.1667,191.5 52.8333,191.5 47.5,191.5C 47.5,202.167 47.5,212.833 47.5,223.5C 52.8333,223.5 58.1667,223.5 63.5,223.5C 63.5,218.167 63.5,212.833 63.5,207.5C 74.1667,207.5 84.8333,207.5 95.5,207.5C 95.5,212.833 95.5,218.167 95.5,223.5C 106.167,223.5 116.833,223.5 127.5,223.5C 127.5,234.167 127.5,244.833 127.5,255.5C 122.167,255.5 116.833,255.5 111.5,255.5C 111.5,260.833 111.5,266.167 111.5,271.5C 116.833,271.5 122.167,271.5 127.5,271.5C 127.5,282.167 127.5,292.833 127.5,303.5C 138.167,303.5 148.833,303.5 159.5,303.5C 159.5,308.833 159.5,314.167 159.5,319.5C 148.833,319.5 138.167,319.5 127.5,319.5C 127.5,324.833 127.5,330.167 127.5,335.5C 116.833,335.5 106.167,335.5 95.5,335.5C 95.5,340.833 95.5,346.167 95.5,351.5C 106.167,351.5 116.833,351.5 127.5,351.5C 127.5,356.833 127.5,362.167 127.5,367.5C 116.833,367.5 106.167,367.5 95.5,367.5C 95.5,372.833 95.5,378.167 95.5,383.5C 90.1667,383.5 84.8333,383.5 79.5,383.5C 79.5,388.833 79.5,394.167 79.5,399.5C 74.1667,399.5 68.8333,399.5 63.5,399.5C 63.5,388.833 63.5,378.167 63.5,367.5C 68.8333,367.5 74.1667,367.5 79.5,367.5C 79.5,362.167 79.5,356.833 79.5,351.5C 74.1667,351.5 68.8333,351.5 63.5,351.5C 63.5,346.167 63.5,340.833 63.5,335.5C 47.5,335.5 31.5,335.5 15.5,335.5C 15.5,330.167 15.5,324.833 15.5,319.5C 10.1667,319.5 4.83333,319.5 -0.5,319.5C -0.5,314.167 -0.5,308.833 -0.5,303.5C 10.1667,303.5 20.8333,303.5 31.5,303.5C 31.5,308.833 31.5,314.167 31.5,319.5C 42.1667,319.5 52.8333,319.5 63.5,319.5C 63.5,314.167 63.5,308.833 63.5,303.5C 58.1667,303.5 52.8333,303.5 47.5,303.5C 47.5,298.167 47.5,292.833 47.5,287.5C 31.5,287.5 15.5,287.5 -0.5,287.5C -0.5,255.5 -0.5,223.5 -0.5,191.5C 10.1667,191.5 20.8333,191.5 31.5,191.5C 31.5,186.167 31.5,180.833 31.5,175.5C 20.8333,175.5 10.1667,175.5 -0.5,175.5C -0.5,164.833 -0.5,154.167 -0.5,143.5 Z"/></g>
<g><path style="opacity:1" fill="#000000" d="M 223.5,143.5 C 223.5,148.833 223.5,154.167 223.5,159.5C 218.167,159.5 212.833,159.5 207.5,159.5C 207.5,154.167 207.5,148.833 207.5,143.5C 212.833,143.5 218.167,143.5 223.5,143.5 Z"/></g>
<g><path style="opacity:1" fill="#fefefe" d="M 287.5,159.5 C 282.167,159.5 276.833,159.5 271.5,159.5C 271.5,154.167 271.5,148.833 271.5,143.5C 276.833,143.5 282.167,143.5 287.5,143.5C 287.5,148.833 287.5,154.167 287.5,159.5 Z"/></g>
<g><path style="opacity:1" fill="#000000" d="M 111.5,175.5 C 106.167,175.5 100.833,175.5 95.5,175.5C 95.5,170.167 95.5,164.833 95.5,159.5C 100.833,159.5 106.167,159.5 111.5,159.5C 111.5,164.833 111.5,170.167 111.5,175.5 Z"/></g>
<g><path style="opacity:1" fill="#fefffe" d="M 175.5,175.5 C 170.167,175.5 164.833,175.5 159.5,175.5C 159.5,170.167 159.5,164.833 159.5,159.5C 164.833,159.5 170.167,159.5 175.5,159.5C 175.5,164.833 175.5,170.167 175.5,175.5 Z"/></g>
<g><path style="opacity:1" fill="#fefefe" d="M 287.5,159.5 C 292.833,159.5 298.167,159.5 303.5,159.5C 303.5,170.167 303.5,180.833 303.5,191.5C 308.833,191.5 314.167,191.5 319.5,191.5C 319.5,196.833 319.5,202.167 319.5,207.5C 324.833,207.5 330.167,207.5 335.5,207.5C 335.5,202.167 335.5,196.833 335.5,191.5C 340.833,191.5 346.167,191.5 351.5,191.5C 351.5,196.833 351.5,202.167 351.5,207.5C 356.833,207.5 362.167,207.5 367.5,207.5C 367.5,202.167 367.5,196.833 367.5,191.5C 378.167,191.5 388.833,191.5 399.5,191.5C 399.5,196.833 399.5,202.167 399.5,207.5C 404.833,207.5 410.167,207.5 415.5,207.5C 415.5,212.833 415.5,218.167 415.5,223.5C 404.833,223.5 394.167,223.5 383.5,223.5C 383.5,239.5 383.5,255.5 383.5,271.5C 388.833,271.5 394.167,271.5 399.5,271.5C 399.5,282.167 399.5,292.833 399.5,303.5C 404.833,303.5 410.167,303.5 415.5,303.5C 415.5,308.833 415.5,314.167 415.5,319.5C 431.5,319.5 447.5,319.5 463.5,319.5C 463.5,314.167 463.5,308.833 463.5,303.5C 468.833,303.5 474.167,303.5 479.5,303.5C 479.5,292.833 479.5,282.167 479.5,271.5C 484.833,271.5 490.167,271.5 495.5,271.5C 495.5,276.833 495.5,282.167 495.5,287.5C 500.833,287.5 506.167,287.5 511.5,287.5C 511.5,292.833 511.5,298.167 511.5,303.5C 538.167,303.5 564.833,303.5 591.5,303.5C 591.5,319.5 591.5,335.5 591.5,351.5C 586.167,351.5 580.833,351.5 575.5,351.5C 575.5,346.167 575.5,340.833 575.5,335.5C 570.167,335.5 564.833,335.5 559.5,335.5C 559.5,330.167 559.5,324.833 559.5,319.5C 554.167,319.5 548.833,319.5 543.5,319.5C 543.5,330.167 543.5,340.833 543.5,351.5C 548.833,351.5 554.167,351.5 559.5,351.5C 559.5,362.167 559.5,372.833 559.5,383.5C 543.5,383.5 527.5,383.5 511.5,383.5C 511.5,378.167 511.5,372.833 511.5,367.5C 500.833,367.5 490.167,367.5 479.5,367.5C 479.5,362.167 479.5,356.833 479.5,351.5C 474.167,351.5 468.833,351.5 463.5,351.5C 463.5,367.5 463.5,383.5 463.5,399.5C 458.167,399.5 452.833,399.5 447.5,399.5C 447.5,404.833 447.5,410.167 447.5,415.5C 431.5,415.5 415.5,415.5 399.5,415.5C 399.5,420.833 399.5,426.167 399.5,431.5C 394.167,431.5 388.833,431.5 383.5,431.5C 383.5,442.167 383.5,452.833 383.5,463.5C 378.167,463.5 372.833,463.5 367.5,463.5C 367.5,436.833 367.5,410.167 367.5,383.5C 348.83,383.667 330.164,383.5 311.5,383C 324.673,380.745 336.673,375.745 347.5,368C 381.957,339.952 392.124,304.786 378,262.5C 359.886,224.589 329.719,206.256 287.5,207.5C 287.5,191.5 287.5,175.5 287.5,159.5 Z"/></g>
<g><path style="opacity:1" fill="#fefefe" d="M 351.5,175.5 C 346.167,175.5 340.833,175.5 335.5,175.5C 335.5,170.167 335.5,164.833 335.5,159.5C 340.833,159.5 346.167,159.5 351.5,159.5C 351.5,164.833 351.5,170.167 351.5,175.5 Z"/></g>
<g><path style="opacity:1" fill="#fefefe" d="M 479.5,159.5 C 479.5,170.167 479.5,180.833 479.5,191.5C 474.167,191.5 468.833,191.5 463.5,191.5C 463.5,196.833 463.5,202.167 463.5,207.5C 458.167,207.5 452.833,207.5 447.5,207.5C 447.5,196.833 447.5,186.167 447.5,175.5C 452.833,175.5 458.167,175.5 463.5,175.5C 463.5,170.167 463.5,164.833 463.5,159.5C 468.833,159.5 474.167,159.5 479.5,159.5 Z"/></g>
<g><path style="opacity:1" fill="#000000" d="M 479.5,159.5 C 490.167,159.5 500.833,159.5 511.5,159.5C 511.5,170.167 511.5,180.833 511.5,191.5C 506.167,191.5 500.833,191.5 495.5,191.5C 495.5,196.833 495.5,202.167 495.5,207.5C 490.167,207.5 484.833,207.5 479.5,207.5C 479.5,212.833 479.5,218.167 479.5,223.5C 474.167,223.5 468.833,223.5 463.5,223.5C 463.5,228.833 463.5,234.167 463.5,239.5C 474.167,239.5 484.833,239.5 495.5,239.5C 495.5,250.167 495.5,260.833 495.5,271.5C 490.167,271.5 484.833,271.5 479.5,271.5C 479.5,282.167 479.5,292.833 479.5,303.5C 474.167,303.5 468.833,303.5 463.5,303.5C 463.5,298.167 463.5,292.833 463.5,287.5C 458.167,287.5 452.833,287.5 447.5,287.5C 447.5,282.167 447.5,276.833 447.5,271.5C 452.833,271.5 458.167,271.5 463.5,271.5C 463.5,266.167 463.5,260.833 463.5,255.5C 458.167,255.5 452.833,255.5 447.5,255.5C 447.5,250.167 447.5,244.833 447.5,239.5C 442.167,239.5 436.833,239.5 431.5,239.5C 431.5,234.167 431.5,228.833 431.5,223.5C 436.833,223.5 442.167,223.5 447.5,223.5C 447.5,218.167 447.5,212.833 447.5,207.5C 452.833,207.5 458.167,207.5 463.5,207.5C 463.5,202.167 463.5,196.833 463.5,191.5C 468.833,191.5 474.167,191.5 479.5,191.5C 479.5,180.833 479.5,170.167 479.5,159.5 Z"/></g>
<g><path style="opacity:1" fill="#000000" d="M 591.5,159.5 C 591.5,164.833 591.5,170.167 591.5,175.5C 586.167,175.5 580.833,175.5 575.5,175.5C 575.5,180.833 575.5,186.167 575.5,191.5C 570.167,191.5 564.833,191.5 559.5,191.5C 559.5,180.833 559.5,170.167 559.5,159.5C 570.167,159.5 580.833,159.5 591.5,159.5 Z"/></g>
<g><path style="opacity:1" fill="#fefffe" d="M -0.5,175.5 C 10.1667,175.5 20.8333,175.5 31.5,175.5C 31.5,180.833 31.5,186.167 31.5,191.5C 20.8333,191.5 10.1667,191.5 -0.5,191.5C -0.5,186.167 -0.5,180.833 -0.5,175.5 Z"/></g>
<g><path style="opacity:1" fill="#000000" d="M 95.5,175.5 C 95.5,180.833 95.5,186.167 95.5,191.5C 90.1667,191.5 84.8333,191.5 79.5,191.5C 79.5,186.167 79.5,180.833 79.5,175.5C 84.8333,175.5 90.1667,175.5 95.5,175.5 Z"/></g>
<g><path style="opacity:1" fill="#fefffe" d="M 95.5,175.5 C 100.833,175.5 106.167,175.5 111.5,175.5C 111.5,180.833 111.5,186.167 111.5,191.5C 106.167,191.5 100.833,191.5 95.5,191.5C 95.5,186.167 95.5,180.833 95.5,175.5 Z"/></g>
<g><path style="opacity:1" fill="#000000" d="M 111.5,175.5 C 116.833,175.5 122.167,175.5 127.5,175.5C 127.5,180.833 127.5,186.167 127.5,191.5C 138.167,191.5 148.833,191.5 159.5,191.5C 159.5,186.167 159.5,180.833 159.5,175.5C 164.833,175.5 170.167,175.5 175.5,175.5C 175.5,186.167 175.5,196.833 175.5,207.5C 170.167,207.5 164.833,207.5 159.5,207.5C 159.5,212.833 159.5,218.167 159.5,223.5C 154.167,223.5 148.833,223.5 143.5,223.5C 143.5,218.167 143.5,212.833 143.5,207.5C 127.5,207.5 111.5,207.5 95.5,207.5C 95.5,202.167 95.5,196.833 95.5,191.5C 100.833,191.5 106.167,191.5 111.5,191.5C 111.5,186.167 111.5,180.833 111.5,175.5 Z"/></g>
<g><path style="opacity:1" fill="#fefefe" d="M 255.5,191.5 C 255.5,186.167 255.5,180.833 255.5,175.5C 260.833,175.5 266.167,175.5 271.5,175.5C 271.5,180.833 271.5,186.167 271.5,191.5C 266.167,191.5 260.833,191.5 255.5,191.5 Z"/></g>
<g><path style="opacity:1" fill="#fefefe" d="M 335.5,175.5 C 335.5,180.833 335.5,186.167 335.5,191.5C 330.167,191.5 324.833,191.5 319.5,191.5C 319.5,186.167 319.5,180.833 319.5,175.5C 324.833,175.5 330.167,175.5 335.5,175.5 Z"/></g>
<g><path style="opacity:1" fill="#000000" d="M 335.5,175.5 C 340.833,175.5 346.167,175.5 351.5,175.5C 351.5,180.833 351.5,186.167 351.5,191.5C 346.167,191.5 340.833,191.5 335.5,191.5C 335.5,186.167 335.5,180.833 335.5,175.5 Z"/></g>
<g><path style="opacity:1" fill="#fefefe" d="M 351.5,175.5 C 356.833,175.5 362.167,175.5 367.5,175.5C 367.5,180.833 367.5,186.167 367.5,191.5C 362.167,191.5 356.833,191.5 351.5,191.5C 351.5,186.167 351.5,180.833 351.5,175.5 Z"/></g>
<g><path style="opacity:1" fill="#fefefe" d="M 399.5,191.5 C 399.5,186.167 399.5,180.833 399.5,175.5C 404.833,175.5 410.167,175.5 415.5,175.5C 415.5,180.833 415.5,186.167 415.5,191.5C 410.167,191.5 404.833,191.5 399.5,191.5 Z"/></g>
<g><path style="opacity:1" fill="#fefefe" d="M 591.5,175.5 C 591.5,180.833 591.5,186.167 591.5,191.5C 586.167,191.5 580.833,191.5 575.5,191.5C 575.5,186.167 575.5,180.833 575.5,175.5C 580.833,175.5 586.167,175.5 591.5,175.5 Z"/></g>
<g><path style="opacity:1" fill="#000000" d="M 239.5,191.5 C 239.5,196.833 239.5,202.167 239.5,207.5C 234.167,207.5 228.833,207.5 223.5,207.5C 223.5,202.167 223.5,196.833 223.5,191.5C 228.833,191.5 234.167,191.5 239.5,191.5 Z"/></g>
<g><path style="opacity:1" fill="#000000" d="M 319.5,191.5 C 324.833,191.5 330.167,191.5 335.5,191.5C 335.5,196.833 335.5,202.167 335.5,207.5C 330.167,207.5 324.833,207.5 319.5,207.5C 319.5,202.167 319.5,196.833 319.5,191.5 Z"/></g>
<g><path style="opacity:1" fill="#000000" d="M 351.5,191.5 C 356.833,191.5 362.167,191.5 367.5,191.5C 367.5,196.833 367.5,202.167 367.5,207.5C 362.167,207.5 356.833,207.5 351.5,207.5C 351.5,202.167 351.5,196.833 351.5,191.5 Z"/></g>
<g><path style="opacity:1" fill="#fefefe" d="M 511.5,191.5 C 516.833,191.5 522.167,191.5 527.5,191.5C 527.5,196.833 527.5,202.167 527.5,207.5C 527.5,212.833 527.5,218.167 527.5,223.5C 516.833,223.5 506.167,223.5 495.5,223.5C 495.5,228.833 495.5,234.167 495.5,239.5C 484.833,239.5 474.167,239.5 463.5,239.5C 463.5,234.167 463.5,228.833 463.5,223.5C 468.833,223.5 474.167,223.5 479.5,223.5C 479.5,218.167 479.5,212.833 479.5,207.5C 484.833,207.5 490.167,207.5 495.5,207.5C 495.5,202.167 495.5,196.833 495.5,191.5C 500.833,191.5 506.167,191.5 511.5,191.5 Z"/></g>
<g><path style="opacity:1" fill="#000000" d="M 511.5,191.5 C 516.833,191.5 522.167,191.5 527.5,191.5C 527.5,196.833 527.5,202.167 527.5,207.5C 522.167,207.5 516.833,207.5 511.5,207.5C 511.5,202.167 511.5,196.833 511.5,191.5 Z"/></g>
<g><path style="opacity:1" fill="#000000" d="M 559.5,191.5 C 559.5,202.167 559.5,212.833 559.5,223.5C 554.167,223.5 548.833,223.5 543.5,223.5C 543.5,228.833 543.5,234.167 543.5,239.5C 527.5,239.5 511.5,239.5 495.5,239.5C 495.5,234.167 495.5,228.833 495.5,223.5C 506.167,223.5 516.833,223.5 527.5,223.5C 527.5,218.167 527.5,212.833 527.5,207.5C 532.833,207.5 538.167,207.5 543.5,207.5C 543.5,202.167 543.5,196.833 543.5,191.5C 548.833,191.5 554.167,191.5 559.5,191.5 Z"/></g>
<g><path style="opacity:1" fill="#fefefe" d="M 559.5,191.5 C 564.833,191.5 570.167,191.5 575.5,191.5C 575.5,196.833 575.5,202.167 575.5,207.5C 580.833,207.5 586.167,207.5 591.5,207.5C 591.5,212.833 591.5,218.167 591.5,223.5C 586.167,223.5 580.833,223.5 575.5,223.5C 575.5,228.833 575.5,234.167 575.5,239.5C 570.167,239.5 564.833,239.5 559.5,239.5C 559.5,244.833 559.5,250.167 559.5,255.5C 554.167,255.5 548.833,255.5 543.5,255.5C 543.5,266.167 543.5,276.833 543.5,287.5C 532.833,287.5 522.167,287.5 511.5,287.5C 511.5,282.167 511.5,276.833 511.5,271.5C 506.167,271.5 500.833,271.5 495.5,271.5C 495.5,260.833 495.5,250.167 495.5,239.5C 511.5,239.5 527.5,239.5 543.5,239.5C 543.5,234.167 543.5,228.833 543.5,223.5C 548.833,223.5 554.167,223.5 559.5,223.5C 559.5,212.833 559.5,202.167 559.5,191.5 Z"/></g>
<g><path style="opacity:1" fill="#000000" d="M 575.5,191.5 C 580.833,191.5 586.167,191.5 591.5,191.5C 591.5,196.833 591.5,202.167 591.5,207.5C 586.167,207.5 580.833,207.5 575.5,207.5C 575.5,202.167 575.5,196.833 575.5,191.5 Z"/></g>
<g><path style="opacity:1" fill="#000000" d="M 175.5,207.5 C 186.167,207.5 196.833,207.5 207.5,207.5C 207.5,212.833 207.5,218.167 207.5,223.5C 202.167,223.5 196.833,223.5 191.5,223.5C 191.5,228.833 191.5,234.167 191.5,239.5C 186.167,239.5 180.833,239.5 175.5,239.5C 175.5,228.833 175.5,218.167 175.5,207.5 Z"/></g>
<g><path style="opacity:1" fill="#fefefe" d="M 447.5,207.5 C 447.5,212.833 447.5,218.167 447.5,223.5C 442.167,223.5 436.833,223.5 431.5,223.5C 431.5,218.167 431.5,212.833 431.5,207.5C 436.833,207.5 442.167,207.5 447.5,207.5 Z"/></g>
<g><path style="opacity:1" fill="#fefffe" d="M 63.5,223.5 C 68.8333,223.5 74.1667,223.5 79.5,223.5C 79.5,234.167 79.5,244.833 79.5,255.5C 74.1667,255.5 68.8333,255.5 63.5,255.5C 63.5,244.833 63.5,234.167 63.5,223.5 Z"/></g>
<g><path style="opacity:1" fill="#000000" d="M 415.5,223.5 C 415.5,228.833 415.5,234.167 415.5,239.5C 420.833,239.5 426.167,239.5 431.5,239.5C 431.5,250.167 431.5,260.833 431.5,271.5C 426.167,271.5 420.833,271.5 415.5,271.5C 415.5,276.833 415.5,282.167 415.5,287.5C 426.167,287.5 436.833,287.5 447.5,287.5C 452.833,287.5 458.167,287.5 463.5,287.5C 463.5,292.833 463.5,298.167 463.5,303.5C 463.5,308.833 463.5,314.167 463.5,319.5C 447.5,319.5 431.5,319.5 415.5,319.5C 415.5,314.167 415.5,308.833 415.5,303.5C 410.167,303.5 404.833,303.5 399.5,303.5C 399.5,292.833 399.5,282.167 399.5,271.5C 394.167,271.5 388.833,271.5 383.5,271.5C 383.5,255.5 383.5,239.5 383.5,223.5C 394.167,223.5 404.833,223.5 415.5,223.5 Z"/></g>
<g><path style="opacity:1" fill="#fefefe" d="M 415.5,223.5 C 420.833,223.5 426.167,223.5 431.5,223.5C 431.5,228.833 431.5,234.167 431.5,239.5C 426.167,239.5 420.833,239.5 415.5,239.5C 415.5,234.167 415.5,228.833 415.5,223.5 Z"/></g>
<g><path style="opacity:1" fill="#000000" d="M 591.5,223.5 C 591.5,228.833 591.5,234.167 591.5,239.5C 586.167,239.5 580.833,239.5 575.5,239.5C 575.5,234.167 575.5,228.833 575.5,223.5C 580.833,223.5 586.167,223.5 591.5,223.5 Z"/></g>
<g><path style="opacity:1" fill="#fcfcfc" d="M 294.5,238.5 C 311.781,247.943 328.947,257.61 346,267.5C 346.667,286.833 346.667,306.167 346,325.5C 329.085,335.04 312.252,344.707 295.5,354.5C 278.748,344.707 261.915,335.04 245,325.5C 244.333,306.167 244.333,286.833 245,267.5C 261.81,258.185 278.31,248.519 294.5,238.5 Z"/></g>
<g><path style="opacity:1" fill="#fefffe" d="M 15.5,239.5 C 20.8333,239.5 26.1667,239.5 31.5,239.5C 31.5,244.833 31.5,250.167 31.5,255.5C 36.8333,255.5 42.1667,255.5 47.5,255.5C 47.5,260.833 47.5,266.167 47.5,271.5C 36.8333,271.5 26.1667,271.5 15.5,271.5C 15.5,260.833 15.5,250.167 15.5,239.5 Z"/></g>
<g><path style="opacity:1" fill="#fefffe" d="M 111.5,255.5 C 106.167,255.5 100.833,255.5 95.5,255.5C 95.5,250.167 95.5,244.833 95.5,239.5C 100.833,239.5 106.167,239.5 111.5,239.5C 111.5,244.833 111.5,250.167 111.5,255.5 Z"/></g>
<g><path style="opacity:1" fill="#fefefe" d="M 415.5,239.5 C 415.5,244.833 415.5,250.167 415.5,255.5C 410.167,255.5 404.833,255.5 399.5,255.5C 399.5,250.167 399.5,244.833 399.5,239.5C 404.833,239.5 410.167,239.5 415.5,239.5 Z"/></g>
<g><path style="opacity:1" fill="#fefefe" d="M 431.5,239.5 C 436.833,239.5 442.167,239.5 447.5,239.5C 447.5,244.833 447.5,250.167 447.5,255.5C 452.833,255.5 458.167,255.5 463.5,255.5C 463.5,260.833 463.5,266.167 463.5,271.5C 458.167,271.5 452.833,271.5 447.5,271.5C 447.5,276.833 447.5,282.167 447.5,287.5C 436.833,287.5 426.167,287.5 415.5,287.5C 415.5,282.167 415.5,276.833 415.5,271.5C 420.833,271.5 426.167,271.5 431.5,271.5C 431.5,260.833 431.5,250.167 431.5,239.5 Z"/></g>
<g><path style="opacity:1" fill="#000000" d="M 575.5,239.5 C 575.5,244.833 575.5,250.167 575.5,255.5C 580.833,255.5 586.167,255.5 591.5,255.5C 591.5,260.833 591.5,266.167 591.5,271.5C 580.833,271.5 570.167,271.5 559.5,271.5C 559.5,276.833 559.5,282.167 559.5,287.5C 570.167,287.5 580.833,287.5 591.5,287.5C 591.5,292.833 591.5,298.167 591.5,303.5C 564.833,303.5 538.167,303.5 511.5,303.5C 511.5,298.167 511.5,292.833 511.5,287.5C 522.167,287.5 532.833,287.5 543.5,287.5C 543.5,276.833 543.5,266.167 543.5,255.5C 548.833,255.5 554.167,255.5 559.5,255.5C 559.5,250.167 559.5,244.833 559.5,239.5C 564.833,239.5 570.167,239.5 575.5,239.5 Z"/></g>
<g><path style="opacity:1" fill="#fefefe" d="M 575.5,239.5 C 580.833,239.5 586.167,239.5 591.5,239.5C 591.5,244.833 591.5,250.167 591.5,255.5C 586.167,255.5 580.833,255.5 575.5,255.5C 575.5,250.167 575.5,244.833 575.5,239.5 Z"/></g>
<g><path style="opacity:1" fill="#020202" d="M 294.5,245.5 C 308.93,252.549 322.93,260.382 336.5,269C 333.922,271.207 331.089,273.04 328,274.5C 317.413,267.788 306.58,261.455 295.5,255.5C 293.37,256.467 291.37,257.634 289.5,259C 288.167,259.667 288.167,260.333 289.5,261C 299.869,266.672 310.203,272.339 320.5,278C 313,282.918 305.333,287.584 297.5,292C 294.581,292.552 291.914,291.885 289.5,290C 277.668,283.252 266.001,276.252 254.5,269C 257.506,266.485 260.84,265.151 264.5,265C 274.147,270.634 283.813,276.301 293.5,282C 296.898,282.16 299.898,280.993 302.5,278.5C 291.997,272.081 281.33,265.914 270.5,260C 278.73,255.392 286.73,250.559 294.5,245.5 Z"/></g>
<g><path style="opacity:1" fill="#000000" d="M 175.5,271.5 C 175.5,266.167 175.5,260.833 175.5,255.5C 180.833,255.5 186.167,255.5 191.5,255.5C 191.5,260.833 191.5,266.167 191.5,271.5C 186.167,271.5 180.833,271.5 175.5,271.5 Z"/></g>
<g><path style="opacity:1" fill="#000000" d="M 511.5,271.5 C 511.5,266.167 511.5,260.833 511.5,255.5C 516.833,255.5 522.167,255.5 527.5,255.5C 527.5,260.833 527.5,266.167 527.5,271.5C 522.167,271.5 516.833,271.5 511.5,271.5 Z"/></g>
<g><path style="opacity:1" fill="#fefffe" d="M 111.5,271.5 C 111.5,276.833 111.5,282.167 111.5,287.5C 106.167,287.5 100.833,287.5 95.5,287.5C 95.5,292.833 95.5,298.167 95.5,303.5C 100.833,303.5 106.167,303.5 111.5,303.5C 111.5,308.833 111.5,314.167 111.5,319.5C 100.833,319.5 90.1667,319.5 79.5,319.5C 79.5,303.5 79.5,287.5 79.5,271.5C 90.1667,271.5 100.833,271.5 111.5,271.5 Z"/></g>
<g><path style="opacity:1" fill="#000000" d="M 175.5,271.5 C 175.5,282.167 175.5,292.833 175.5,303.5C 170.167,303.5 164.833,303.5 159.5,303.5C 159.5,292.833 159.5,282.167 159.5,271.5C 164.833,271.5 170.167,271.5 175.5,271.5 Z"/></g>
<g><path style="opacity:1" fill="#000000" d="M 495.5,271.5 C 500.833,271.5 506.167,271.5 511.5,271.5C 511.5,276.833 511.5,282.167 511.5,287.5C 506.167,287.5 500.833,287.5 495.5,287.5C 495.5,282.167 495.5,276.833 495.5,271.5 Z"/></g>
<g><path style="opacity:1" fill="#fefefe" d="M 591.5,271.5 C 591.5,276.833 591.5,282.167 591.5,287.5C 580.833,287.5 570.167,287.5 559.5,287.5C 559.5,282.167 559.5,276.833 559.5,271.5C 570.167,271.5 580.833,271.5 591.5,271.5 Z"/></g>
<g><path style="opacity:1" fill="#010101" d="M 250.5,274.5 C 264.704,281.873 278.537,289.873 292,298.5C 292.667,301.833 292.667,305.167 292,308.5C 281.168,302.419 270.502,296.085 260,289.5C 259.216,292.76 259.383,295.927 260.5,299C 270.951,304.974 281.451,310.808 292,316.5C 292.832,326.184 292.665,335.851 291.5,345.5C 278.167,337.833 264.833,330.167 251.5,322.5C 250.167,319.167 250.167,315.833 251.5,312.5C 262.049,318.36 272.549,324.36 283,330.5C 283.821,327.446 283.655,324.446 282.5,321.5C 271.919,315.626 261.419,309.626 251,303.5C 250.5,293.839 250.334,284.172 250.5,274.5 Z"/></g>
<g><path style="opacity:1" fill="#020202" d="M 339.5,274.5 C 340.641,277.64 340.808,280.973 340,284.5C 329.581,290.626 319.081,296.626 308.5,302.5C 307.167,305.5 307.167,308.5 308.5,311.5C 318.833,305.5 329.167,299.5 339.5,293.5C 340.833,303.167 340.833,312.833 339.5,322.5C 326.167,330.167 312.833,337.833 299.5,345.5C 298.343,342.216 298.176,338.882 299,335.5C 309.451,329.36 319.951,323.36 330.5,317.5C 331.655,314.554 331.821,311.554 331,308.5C 320.581,314.626 310.081,320.626 299.5,326.5C 298.335,317.184 298.168,307.851 299,298.5C 312.429,290.206 325.929,282.206 339.5,274.5 Z"/></g>
<g><path style="opacity:1" fill="#fefffe" d="M -0.5,287.5 C 15.5,287.5 31.5,287.5 47.5,287.5C 47.5,292.833 47.5,298.167 47.5,303.5C 52.8333,303.5 58.1667,303.5 63.5,303.5C 63.5,308.833 63.5,314.167 63.5,319.5C 52.8333,319.5 42.1667,319.5 31.5,319.5C 31.5,314.167 31.5,308.833 31.5,303.5C 20.8333,303.5 10.1667,303.5 -0.5,303.5C -0.5,298.167 -0.5,292.833 -0.5,287.5 Z"/></g>
<g><path style="opacity:1" fill="#fefefe" d="M 447.5,287.5 C 452.833,287.5 458.167,287.5 463.5,287.5C 463.5,292.833 463.5,298.167 463.5,303.5C 458.167,303.5 452.833,303.5 447.5,303.5C 447.5,298.167 447.5,292.833 447.5,287.5 Z"/></g>
<g><path style="opacity:1" fill="#fefffe" d="M -0.5,319.5 C 4.83333,319.5 10.1667,319.5 15.5,319.5C 15.5,324.833 15.5,330.167 15.5,335.5C 10.1667,335.5 4.83333,335.5 -0.5,335.5C -0.5,330.167 -0.5,324.833 -0.5,319.5 Z"/></g>
<g><path style="opacity:1" fill="#fefffe" d="M 159.5,319.5 C 159.5,324.833 159.5,330.167 159.5,335.5C 148.833,335.5 138.167,335.5 127.5,335.5C 127.5,330.167 127.5,324.833 127.5,319.5C 138.167,319.5 148.833,319.5 159.5,319.5 Z"/></g>
<g><path style="opacity:1" fill="#000000" d="M 159.5,319.5 C 170.167,319.5 180.833,319.5 191.5,319.5C 191.5,324.833 191.5,330.167 191.5,335.5C 180.833,335.5 170.167,335.5 159.5,335.5C 159.5,330.167 159.5,324.833 159.5,319.5 Z"/></g>
<g><path style="opacity:1" fill="#000000" d="M 415.5,319.5 C 415.5,324.833 415.5,330.167 415.5,335.5C 404.833,335.5 394.167,335.5 383.5,335.5C 383.5,330.167 383.5,324.833 383.5,319.5C 394.167,319.5 404.833,319.5 415.5,319.5 Z"/></g>
<g><path style="opacity:1" fill="#000000" d="M 463.5,319.5 C 484.833,319.5 506.167,319.5 527.5,319.5C 527.5,324.833 527.5,330.167 527.5,335.5C 522.167,335.5 516.833,335.5 511.5,335.5C 511.5,340.833 511.5,346.167 511.5,351.5C 506.167,351.5 500.833,351.5 495.5,351.5C 495.5,346.167 495.5,340.833 495.5,335.5C 484.833,335.5 474.167,335.5 463.5,335.5C 463.5,330.167 463.5,324.833 463.5,319.5 Z"/></g>
<g><path style="opacity:1" fill="#000000" d="M 591.5,351.5 C 591.5,356.833 591.5,362.167 591.5,367.5C 586.167,367.5 580.833,367.5 575.5,367.5C 575.5,383.5 575.5,399.5 575.5,415.5C 580.833,415.5 586.167,415.5 591.5,415.5C 591.5,420.833 591.5,426.167 591.5,431.5C 586.167,431.5 580.833,431.5 575.5,431.5C 575.5,447.5 575.5,463.5 575.5,479.5C 580.833,479.5 586.167,479.5 591.5,479.5C 591.5,484.833 591.5,490.167 591.5,495.5C 586.167,495.5 580.833,495.5 575.5,495.5C 575.5,500.833 575.5,506.167 575.5,511.5C 580.833,511.5 586.167,511.5 591.5,511.5C 591.5,516.833 591.5,522.167 591.5,527.5C 575.5,527.5 559.5,527.5 543.5,527.5C 543.5,522.167 543.5,516.833 543.5,511.5C 548.833,511.5 554.167,511.5 559.5,511.5C 559.5,495.5 559.5,479.5 559.5,463.5C 548.833,463.5 538.167,463.5 527.5,463.5C 527.5,468.833 527.5,474.167 527.5,479.5C 532.833,479.5 538.167,479.5 543.5,479.5C 543.5,484.833 543.5,490.167 543.5,495.5C 538.167,495.5 532.833,495.5 527.5,495.5C 527.5,511.5 527.5,527.5 527.5,543.5C 522.167,543.5 516.833,543.5 511.5,543.5C 511.5,548.833 511.5,554.167 511.5,559.5C 516.833,559.5 522.167,559.5 527.5,559.5C 527.5,570.167 527.5,580.833 527.5,591.5C 511.5,591.5 495.5,591.5 479.5,591.5C 479.5,580.833 479.5,570.167 479.5,559.5C 484.833,559.5 490.167,559.5 495.5,559.5C 495.5,554.167 495.5,548.833 495.5,543.5C 490.167,543.5 484.833,543.5 479.5,543.5C 479.5,538.167 479.5,532.833 479.5,527.5C 474.167,527.5 468.833,527.5 463.5,527.5C 463.5,532.833 463.5,538.167 463.5,543.5C 458.167,543.5 452.833,543.5 447.5,543.5C 447.5,548.833 447.5,554.167 447.5,559.5C 452.833,559.5 458.167,559.5 463.5,559.5C 463.5,564.833 463.5,570.167 463.5,575.5C 452.833,575.5 442.167,575.5 431.5,575.5C 431.5,580.833 431.5,586.167 431.5,591.5C 420.833,591.5 410.167,591.5 399.5,591.5C 399.5,586.167 399.5,580.833 399.5,575.5C 404.833,575.5 410.167,575.5 415.5,575.5C 415.5,570.167 415.5,564.833 415.5,559.5C 404.833,559.5 394.167,559.5 383.5,559.5C 383.5,570.167 383.5,580.833 383.5,591.5C 378.167,591.5 372.833,591.5 367.5,591.5C 367.5,586.167 367.5,580.833 367.5,575.5C 362.167,575.5 356.833,575.5 351.5,575.5C 351.5,580.833 351.5,586.167 351.5,591.5C 346.167,591.5 340.833,591.5 335.5,591.5C 335.5,586.167 335.5,580.833 335.5,575.5C 324.833,575.5 314.167,575.5 303.5,575.5C 303.5,570.167 303.5,564.833 303.5,559.5C 314.167,559.5 324.833,559.5 335.5,559.5C 335.5,554.167 335.5,548.833 335.5,543.5C 324.833,543.5 314.167,543.5 303.5,543.5C 303.5,538.167 303.5,532.833 303.5,527.5C 319.5,527.5 335.5,527.5 351.5,527.5C 351.5,538.167 351.5,548.833 351.5,559.5C 356.833,559.5 362.167,559.5 367.5,559.5C 367.5,554.167 367.5,548.833 367.5,543.5C 378.167,543.5 388.833,543.5 399.5,543.5C 399.5,538.167 399.5,532.833 399.5,527.5C 394.167,527.5 388.833,527.5 383.5,527.5C 383.5,522.167 383.5,516.833 383.5,511.5C 367.5,511.5 351.5,511.5 335.5,511.5C 335.5,500.833 335.5,490.167 335.5,479.5C 346.167,479.5 356.833,479.5 367.5,479.5C 367.5,484.833 367.5,490.167 367.5,495.5C 378.167,495.5 388.833,495.5 399.5,495.5C 399.5,500.833 399.5,506.167 399.5,511.5C 404.833,511.5 410.167,511.5 415.5,511.5C 415.5,506.167 415.5,500.833 415.5,495.5C 420.833,495.5 426.167,495.5 431.5,495.5C 431.5,500.833 431.5,506.167 431.5,511.5C 436.833,511.5 442.167,511.5 447.5,511.5C 447.5,500.833 447.5,490.167 447.5,479.5C 436.833,479.5 426.167,479.5 415.5,479.5C 415.5,474.167 415.5,468.833 415.5,463.5C 404.833,463.5 394.167,463.5 383.5,463.5C 383.5,452.833 383.5,442.167 383.5,431.5C 388.833,431.5 394.167,431.5 399.5,431.5C 399.5,426.167 399.5,420.833 399.5,415.5C 415.5,415.5 431.5,415.5 447.5,415.5C 447.5,410.167 447.5,404.833 447.5,399.5C 452.833,399.5 458.167,399.5 463.5,399.5C 463.5,410.167 463.5,420.833 463.5,431.5C 468.833,431.5 474.167,431.5 479.5,431.5C 479.5,426.167 479.5,420.833 479.5,415.5C 484.833,415.5 490.167,415.5 495.5,415.5C 495.5,410.167 495.5,404.833 495.5,399.5C 500.833,399.5 506.167,399.5 511.5,399.5C 511.5,394.167 511.5,388.833 511.5,383.5C 527.5,383.5 543.5,383.5 559.5,383.5C 559.5,372.833 559.5,362.167 559.5,351.5C 554.167,351.5 548.833,351.5 543.5,351.5C 543.5,340.833 543.5,330.167 543.5,319.5C 548.833,319.5 554.167,319.5 559.5,319.5C 559.5,324.833 559.5,330.167 559.5,335.5C 564.833,335.5 570.167,335.5 575.5,335.5C 575.5,340.833 575.5,346.167 575.5,351.5C 580.833,351.5 586.167,351.5 591.5,351.5 Z"/></g>
<g><path style="opacity:1" fill="#000000" d="M -0.5,335.5 C 4.83333,335.5 10.1667,335.5 15.5,335.5C 15.5,340.833 15.5,346.167 15.5,351.5C 10.1667,351.5 4.83333,351.5 -0.5,351.5C -0.5,346.167 -0.5,340.833 -0.5,335.5 Z"/></g>
<g><path style="opacity:1" fill="#fefffe" d="M 15.5,335.5 C 31.5,335.5 47.5,335.5 63.5,335.5C 63.5,340.833 63.5,346.167 63.5,351.5C 58.1667,351.5 52.8333,351.5 47.5,351.5C 47.5,356.833 47.5,362.167 47.5,367.5C 42.1667,367.5 36.8333,367.5 31.5,367.5C 31.5,362.167 31.5,356.833 31.5,351.5C 26.1667,351.5 20.8333,351.5 15.5,351.5C 15.5,346.167 15.5,340.833 15.5,335.5 Z"/></g>
<g><path style="opacity:1" fill="#fefffe" d="M 127.5,335.5 C 127.5,340.833 127.5,346.167 127.5,351.5C 116.833,351.5 106.167,351.5 95.5,351.5C 95.5,346.167 95.5,340.833 95.5,335.5C 106.167,335.5 116.833,335.5 127.5,335.5 Z"/></g>
<g><path style="opacity:1" fill="#000000" d="M 127.5,335.5 C 138.167,335.5 148.833,335.5 159.5,335.5C 159.5,340.833 159.5,346.167 159.5,351.5C 164.833,351.5 170.167,351.5 175.5,351.5C 175.5,356.833 175.5,362.167 175.5,367.5C 164.833,367.5 154.167,367.5 143.5,367.5C 143.5,362.167 143.5,356.833 143.5,351.5C 138.167,351.5 132.833,351.5 127.5,351.5C 127.5,346.167 127.5,340.833 127.5,335.5 Z"/></g>
<g><path style="opacity:1" fill="#000000" d="M 415.5,335.5 C 420.833,335.5 426.167,335.5 431.5,335.5C 431.5,340.833 431.5,346.167 431.5,351.5C 436.833,351.5 442.167,351.5 447.5,351.5C 447.5,356.833 447.5,362.167 447.5,367.5C 436.833,367.5 426.167,367.5 415.5,367.5C 415.5,356.833 415.5,346.167 415.5,335.5 Z"/></g>
<g><path style="opacity:1" fill="#fefffe" d="M -0.5,351.5 C 4.83333,351.5 10.1667,351.5 15.5,351.5C 20.8333,351.5 26.1667,351.5 31.5,351.5C 31.5,356.833 31.5,362.167 31.5,367.5C 31.5,372.833 31.5,378.167 31.5,383.5C 36.8333,383.5 42.1667,383.5 47.5,383.5C 47.5,378.167 47.5,372.833 47.5,367.5C 52.8333,367.5 58.1667,367.5 63.5,367.5C 63.5,378.167 63.5,388.833 63.5,399.5C 68.8333,399.5 74.1667,399.5 79.5,399.5C 79.5,394.167 79.5,388.833 79.5,383.5C 84.8333,383.5 90.1667,383.5 95.5,383.5C 95.5,388.833 95.5,394.167 95.5,399.5C 106.167,399.5 116.833,399.5 127.5,399.5C 127.5,404.833 127.5,410.167 127.5,415.5C 138.167,415.5 148.833,415.5 159.5,415.5C 159.5,420.833 159.5,426.167 159.5,431.5C 164.833,431.5 170.167,431.5 175.5,431.5C 175.5,447.5 175.5,463.5 175.5,479.5C 170.167,479.5 164.833,479.5 159.5,479.5C 159.5,484.833 159.5,490.167 159.5,495.5C 154.167,495.5 148.833,495.5 143.5,495.5C 143.5,500.833 143.5,506.167 143.5,511.5C 148.833,511.5 154.167,511.5 159.5,511.5C 159.5,516.833 159.5,522.167 159.5,527.5C 170.167,527.5 180.833,527.5 191.5,527.5C 191.5,532.833 191.5,538.167 191.5,543.5C 186.167,543.5 180.833,543.5 175.5,543.5C 175.5,554.167 175.5,564.833 175.5,575.5C 170.167,575.5 164.833,575.5 159.5,575.5C 159.5,580.833 159.5,586.167 159.5,591.5C 143.5,591.5 127.5,591.5 111.5,591.5C 111.5,554.167 111.5,516.833 111.5,479.5C 74.1667,479.5 36.8333,479.5 -0.5,479.5C -0.5,474.167 -0.5,468.833 -0.5,463.5C 4.83333,463.5 10.1667,463.5 15.5,463.5C 15.5,436.833 15.5,410.167 15.5,383.5C 10.1667,383.5 4.83333,383.5 -0.5,383.5C -0.5,372.833 -0.5,362.167 -0.5,351.5 Z"/></g>
<g><path style="opacity:1" fill="#000000" d="M 15.5,351.5 C 20.8333,351.5 26.1667,351.5 31.5,351.5C 31.5,356.833 31.5,362.167 31.5,367.5C 26.1667,367.5 20.8333,367.5 15.5,367.5C 15.5,362.167 15.5,356.833 15.5,351.5 Z"/></g>
<g><path style="opacity:1" fill="#000000" d="M 63.5,351.5 C 63.5,356.833 63.5,362.167 63.5,367.5C 58.1667,367.5 52.8333,367.5 47.5,367.5C 47.5,362.167 47.5,356.833 47.5,351.5C 52.8333,351.5 58.1667,351.5 63.5,351.5 Z"/></g>
<g><path style="opacity:1" fill="#fefffe" d="M 63.5,351.5 C 68.8333,351.5 74.1667,351.5 79.5,351.5C 79.5,356.833 79.5,362.167 79.5,367.5C 74.1667,367.5 68.8333,367.5 63.5,367.5C 63.5,362.167 63.5,356.833 63.5,351.5 Z"/></g>
<g><path style="opacity:1" fill="#fefffe" d="M 127.5,351.5 C 132.833,351.5 138.167,351.5 143.5,351.5C 143.5,356.833 143.5,362.167 143.5,367.5C 138.167,367.5 132.833,367.5 127.5,367.5C 127.5,362.167 127.5,356.833 127.5,351.5 Z"/></g>
<g><path style="opacity:1" fill="#000000" d="M 511.5,383.5 C 506.167,383.5 500.833,383.5 495.5,383.5C 495.5,388.833 495.5,394.167 495.5,399.5C 484.833,399.5 474.167,399.5 463.5,399.5C 463.5,383.5 463.5,367.5 463.5,351.5C 468.833,351.5 474.167,351.5 479.5,351.5C 479.5,356.833 479.5,362.167 479.5,367.5C 490.167,367.5 500.833,367.5 511.5,367.5C 511.5,372.833 511.5,378.167 511.5,383.5 Z"/></g>
<g><path style="opacity:1" fill="#000000" d="M 31.5,367.5 C 36.8333,367.5 42.1667,367.5 47.5,367.5C 47.5,372.833 47.5,378.167 47.5,383.5C 42.1667,383.5 36.8333,383.5 31.5,383.5C 31.5,378.167 31.5,372.833 31.5,367.5 Z"/></g>
<g><path style="opacity:1" fill="#fefffe" d="M 127.5,367.5 C 127.5,372.833 127.5,378.167 127.5,383.5C 116.833,383.5 106.167,383.5 95.5,383.5C 95.5,378.167 95.5,372.833 95.5,367.5C 106.167,367.5 116.833,367.5 127.5,367.5 Z"/></g>
<g><path style="opacity:1" fill="#000000" d="M 127.5,367.5 C 132.833,367.5 138.167,367.5 143.5,367.5C 143.5,372.833 143.5,378.167 143.5,383.5C 148.833,383.5 154.167,383.5 159.5,383.5C 159.5,388.833 159.5,394.167 159.5,399.5C 164.833,399.5 170.167,399.5 175.5,399.5C 175.5,388.833 175.5,378.167 175.5,367.5C 186.167,367.5 196.833,367.5 207.5,367.5C 207.5,372.833 207.5,378.167 207.5,383.5C 218.167,383.5 228.833,383.5 239.5,383.5C 239.5,388.833 239.5,394.167 239.5,399.5C 234.167,399.5 228.833,399.5 223.5,399.5C 223.5,410.167 223.5,420.833 223.5,431.5C 212.833,431.5 202.167,431.5 191.5,431.5C 191.5,436.833 191.5,442.167 191.5,447.5C 196.833,447.5 202.167,447.5 207.5,447.5C 207.5,452.833 207.5,458.167 207.5,463.5C 202.167,463.5 196.833,463.5 191.5,463.5C 191.5,468.833 191.5,474.167 191.5,479.5C 186.167,479.5 180.833,479.5 175.5,479.5C 175.5,463.5 175.5,447.5 175.5,431.5C 170.167,431.5 164.833,431.5 159.5,431.5C 159.5,426.167 159.5,420.833 159.5,415.5C 148.833,415.5 138.167,415.5 127.5,415.5C 127.5,410.167 127.5,404.833 127.5,399.5C 116.833,399.5 106.167,399.5 95.5,399.5C 95.5,394.167 95.5,388.833 95.5,383.5C 106.167,383.5 116.833,383.5 127.5,383.5C 127.5,378.167 127.5,372.833 127.5,367.5 Z"/></g>
<g><path style="opacity:1" fill="#fefffe" d="M 143.5,367.5 C 154.167,367.5 164.833,367.5 175.5,367.5C 175.5,378.167 175.5,388.833 175.5,399.5C 170.167,399.5 164.833,399.5 159.5,399.5C 159.5,394.167 159.5,388.833 159.5,383.5C 154.167,383.5 148.833,383.5 143.5,383.5C 143.5,378.167 143.5,372.833 143.5,367.5 Z"/></g>
<g><path style="opacity:1" fill="#fefefe" d="M 591.5,367.5 C 591.5,383.5 591.5,399.5 591.5,415.5C 586.167,415.5 580.833,415.5 575.5,415.5C 575.5,399.5 575.5,383.5 575.5,367.5C 580.833,367.5 586.167,367.5 591.5,367.5 Z"/></g>
<g><path style="opacity:1" fill="#000000" d="M -0.5,383.5 C 4.83333,383.5 10.1667,383.5 15.5,383.5C 15.5,410.167 15.5,436.833 15.5,463.5C 10.1667,463.5 4.83333,463.5 -0.5,463.5C -0.5,436.833 -0.5,410.167 -0.5,383.5 Z"/></g>
<g><path style="opacity:1" fill="#fefefe" d="M 511.5,383.5 C 511.5,388.833 511.5,394.167 511.5,399.5C 506.167,399.5 500.833,399.5 495.5,399.5C 495.5,394.167 495.5,388.833 495.5,383.5C 500.833,383.5 506.167,383.5 511.5,383.5 Z"/></g>
<g><path style="opacity:1" fill="#fefefe" d="M 303.5,399.5 C 298.167,399.5 292.833,399.5 287.5,399.5C 287.5,394.5 287.5,389.5 287.5,384.5C 292.833,384.5 298.167,384.5 303.5,384.5C 303.5,389.5 303.5,394.5 303.5,399.5 Z"/></g>
<g><path style="opacity:1" fill="#fefefe" d="M 175.5,399.5 C 186.167,399.5 196.833,399.5 207.5,399.5C 207.5,404.833 207.5,410.167 207.5,415.5C 196.833,415.5 186.167,415.5 175.5,415.5C 175.5,410.167 175.5,404.833 175.5,399.5 Z"/></g>
<g><path style="opacity:1" fill="#000000" d="M 287.5,399.5 C 292.833,399.5 298.167,399.5 303.5,399.5C 303.5,404.833 303.5,410.167 303.5,415.5C 298.167,415.5 292.833,415.5 287.5,415.5C 287.5,410.167 287.5,404.833 287.5,399.5 Z"/></g>
<g><path style="opacity:1" fill="#fefefe" d="M 303.5,399.5 C 308.833,399.5 314.167,399.5 319.5,399.5C 319.5,404.833 319.5,410.167 319.5,415.5C 314.167,415.5 308.833,415.5 303.5,415.5C 303.5,410.167 303.5,404.833 303.5,399.5 Z"/></g>
<g><path style="opacity:1" fill="#000000" d="M 399.5,415.5 C 394.167,415.5 388.833,415.5 383.5,415.5C 383.5,410.167 383.5,404.833 383.5,399.5C 388.833,399.5 394.167,399.5 399.5,399.5C 399.5,404.833 399.5,410.167 399.5,415.5 Z"/></g>
<g><path style="opacity:1" fill="#fefefe" d="M 463.5,399.5 C 474.167,399.5 484.833,399.5 495.5,399.5C 495.5,404.833 495.5,410.167 495.5,415.5C 490.167,415.5 484.833,415.5 479.5,415.5C 479.5,420.833 479.5,426.167 479.5,431.5C 474.167,431.5 468.833,431.5 463.5,431.5C 463.5,420.833 463.5,410.167 463.5,399.5 Z"/></g>
<g><path style="opacity:1" fill="#fefefe" d="M 511.5,399.5 C 516.833,399.5 522.167,399.5 527.5,399.5C 527.5,404.833 527.5,410.167 527.5,415.5C 522.167,415.5 516.833,415.5 511.5,415.5C 511.5,410.167 511.5,404.833 511.5,399.5 Z"/></g>
<g><path style="opacity:1" fill="#fefefe" d="M 543.5,399.5 C 548.833,399.5 554.167,399.5 559.5,399.5C 559.5,404.833 559.5,410.167 559.5,415.5C 554.167,415.5 548.833,415.5 543.5,415.5C 543.5,410.167 543.5,404.833 543.5,399.5 Z"/></g>
<g><path style="opacity:1" fill="#000000" d="M 31.5,415.5 C 36.8333,415.5 42.1667,415.5 47.5,415.5C 47.5,420.833 47.5,426.167 47.5,431.5C 42.1667,431.5 36.8333,431.5 31.5,431.5C 31.5,426.167 31.5,420.833 31.5,415.5 Z"/></g>
<g><path style="opacity:1" fill="#000000" d="M 127.5,415.5 C 127.5,426.167 127.5,436.833 127.5,447.5C 122.167,447.5 116.833,447.5 111.5,447.5C 111.5,442.167 111.5,436.833 111.5,431.5C 106.167,431.5 100.833,431.5 95.5,431.5C 95.5,426.167 95.5,420.833 95.5,415.5C 106.167,415.5 116.833,415.5 127.5,415.5 Z"/></g>
<g><path style="opacity:1" fill="#000000" d="M 303.5,431.5 C 303.5,436.833 303.5,442.167 303.5,447.5C 287.5,447.5 271.5,447.5 255.5,447.5C 255.5,463.5 255.5,479.5 255.5,495.5C 250.167,495.5 244.833,495.5 239.5,495.5C 239.5,490.167 239.5,484.833 239.5,479.5C 234.167,479.5 228.833,479.5 223.5,479.5C 223.5,484.833 223.5,490.167 223.5,495.5C 212.833,495.5 202.167,495.5 191.5,495.5C 191.5,490.167 191.5,484.833 191.5,479.5C 196.833,479.5 202.167,479.5 207.5,479.5C 207.5,474.167 207.5,468.833 207.5,463.5C 218.167,463.5 228.833,463.5 239.5,463.5C 239.5,458.167 239.5,452.833 239.5,447.5C 234.167,447.5 228.833,447.5 223.5,447.5C 223.5,442.167 223.5,436.833 223.5,431.5C 234.167,431.5 244.833,431.5 255.5,431.5C 255.5,426.167 255.5,420.833 255.5,415.5C 260.833,415.5 266.167,415.5 271.5,415.5C 271.5,420.833 271.5,426.167 271.5,431.5C 282.167,431.5 292.833,431.5 303.5,431.5 Z"/></g>
<g><path style="opacity:1" fill="#000000" d="M 303.5,415.5 C 308.833,415.5 314.167,415.5 319.5,415.5C 319.5,420.833 319.5,426.167 319.5,431.5C 314.167,431.5 308.833,431.5 303.5,431.5C 303.5,426.167 303.5,420.833 303.5,415.5 Z"/></g>
<g><path style="opacity:1" fill="#fefefe" d="M 319.5,415.5 C 324.833,415.5 330.167,415.5 335.5,415.5C 335.5,420.833 335.5,426.167 335.5,431.5C 340.833,431.5 346.167,431.5 351.5,431.5C 351.5,442.167 351.5,452.833 351.5,463.5C 356.833,463.5 362.167,463.5 367.5,463.5C 367.5,468.833 367.5,474.167 367.5,479.5C 356.833,479.5 346.167,479.5 335.5,479.5C 335.5,490.167 335.5,500.833 335.5,511.5C 351.5,511.5 367.5,511.5 383.5,511.5C 383.5,516.833 383.5,522.167 383.5,527.5C 388.833,527.5 394.167,527.5 399.5,527.5C 399.5,532.833 399.5,538.167 399.5,543.5C 388.833,543.5 378.167,543.5 367.5,543.5C 367.5,548.833 367.5,554.167 367.5,559.5C 362.167,559.5 356.833,559.5 351.5,559.5C 351.5,548.833 351.5,538.167 351.5,527.5C 335.5,527.5 319.5,527.5 303.5,527.5C 303.5,516.833 303.5,506.167 303.5,495.5C 298.167,495.5 292.833,495.5 287.5,495.5C 287.5,500.833 287.5,506.167 287.5,511.5C 282.167,511.5 276.833,511.5 271.5,511.5C 271.5,506.167 271.5,500.833 271.5,495.5C 266.167,495.5 260.833,495.5 255.5,495.5C 255.5,479.5 255.5,463.5 255.5,447.5C 271.5,447.5 287.5,447.5 303.5,447.5C 303.5,442.167 303.5,436.833 303.5,431.5C 308.833,431.5 314.167,431.5 319.5,431.5C 319.5,426.167 319.5,420.833 319.5,415.5 Z"/></g>
<g><path style="opacity:1" fill="#000000" d="M 111.5,447.5 C 111.5,452.833 111.5,458.167 111.5,463.5C 84.8333,463.5 58.1667,463.5 31.5,463.5C 31.5,458.167 31.5,452.833 31.5,447.5C 42.1667,447.5 52.8333,447.5 63.5,447.5C 63.5,442.167 63.5,436.833 63.5,431.5C 68.8333,431.5 74.1667,431.5 79.5,431.5C 79.5,436.833 79.5,442.167 79.5,447.5C 90.1667,447.5 100.833,447.5 111.5,447.5 Z"/></g>
<g><path style="opacity:1" fill="#fefefe" d="M 223.5,431.5 C 223.5,436.833 223.5,442.167 223.5,447.5C 228.833,447.5 234.167,447.5 239.5,447.5C 239.5,452.833 239.5,458.167 239.5,463.5C 228.833,463.5 218.167,463.5 207.5,463.5C 207.5,458.167 207.5,452.833 207.5,447.5C 202.167,447.5 196.833,447.5 191.5,447.5C 191.5,442.167 191.5,436.833 191.5,431.5C 202.167,431.5 212.833,431.5 223.5,431.5 Z"/></g>
<g><path style="opacity:1" fill="#fefefe" d="M 399.5,431.5 C 404.833,431.5 410.167,431.5 415.5,431.5C 415.5,436.833 415.5,442.167 415.5,447.5C 410.167,447.5 404.833,447.5 399.5,447.5C 399.5,442.167 399.5,436.833 399.5,431.5 Z"/></g>
<g><path style="opacity:1" fill="#fefefe" d="M 463.5,431.5 C 463.5,436.833 463.5,442.167 463.5,447.5C 452.833,447.5 442.167,447.5 431.5,447.5C 431.5,442.167 431.5,436.833 431.5,431.5C 442.167,431.5 452.833,431.5 463.5,431.5 Z"/></g>
<g><path style="opacity:1" fill="#fefefe" d="M 479.5,431.5 C 506.167,431.5 532.833,431.5 559.5,431.5C 559.5,436.833 559.5,442.167 559.5,447.5C 532.833,447.5 506.167,447.5 479.5,447.5C 479.5,442.167 479.5,436.833 479.5,431.5 Z"/></g>
<g><path style="opacity:1" fill="#fefefe" d="M 591.5,431.5 C 591.5,447.5 591.5,463.5 591.5,479.5C 586.167,479.5 580.833,479.5 575.5,479.5C 575.5,463.5 575.5,447.5 575.5,431.5C 580.833,431.5 586.167,431.5 591.5,431.5 Z"/></g>
<g><path style="opacity:1" fill="#000000" d="M 127.5,447.5 C 138.167,447.5 148.833,447.5 159.5,447.5C 159.5,452.833 159.5,458.167 159.5,463.5C 154.167,463.5 148.833,463.5 143.5,463.5C 143.5,468.833 143.5,474.167 143.5,479.5C 138.167,479.5 132.833,479.5 127.5,479.5C 127.5,468.833 127.5,458.167 127.5,447.5 Z"/></g>
<g><path style="opacity:1" fill="#000000" d="M 319.5,447.5 C 324.833,447.5 330.167,447.5 335.5,447.5C 335.5,452.833 335.5,458.167 335.5,463.5C 330.167,463.5 324.833,463.5 319.5,463.5C 319.5,458.167 319.5,452.833 319.5,447.5 Z"/></g>
<g><path style="opacity:1" fill="#fefefe" d="M 207.5,463.5 C 207.5,468.833 207.5,474.167 207.5,479.5C 202.167,479.5 196.833,479.5 191.5,479.5C 191.5,474.167 191.5,468.833 191.5,463.5C 196.833,463.5 202.167,463.5 207.5,463.5 Z"/></g>
<g><path style="opacity:1" fill="#000000" d="M 287.5,463.5 C 292.833,463.5 298.167,463.5 303.5,463.5C 303.5,468.833 303.5,474.167 303.5,479.5C 298.167,479.5 292.833,479.5 287.5,479.5C 287.5,474.167 287.5,468.833 287.5,463.5 Z"/></g>
<g><path style="opacity:1" fill="#000000" d="M 367.5,463.5 C 372.833,463.5 378.167,463.5 383.5,463.5C 383.5,468.833 383.5,474.167 383.5,479.5C 378.167,479.5 372.833,479.5 367.5,479.5C 367.5,474.167 367.5,468.833 367.5,463.5 Z"/></g>
<g><path style="opacity:1" fill="#fefefe" d="M 383.5,463.5 C 394.167,463.5 404.833,463.5 415.5,463.5C 415.5,468.833 415.5,474.167 415.5,479.5C 410.167,479.5 404.833,479.5 399.5,479.5C 399.5,484.833 399.5,490.167 399.5,495.5C 388.833,495.5 378.167,495.5 367.5,495.5C 367.5,490.167 367.5,484.833 367.5,479.5C 372.833,479.5 378.167,479.5 383.5,479.5C 383.5,474.167 383.5,468.833 383.5,463.5 Z"/></g>
<g><path style="opacity:1" fill="#fefefe" d="M 463.5,463.5 C 479.5,463.5 495.5,463.5 511.5,463.5C 511.5,479.5 511.5,495.5 511.5,511.5C 495.5,511.5 479.5,511.5 463.5,511.5C 463.5,495.5 463.5,479.5 463.5,463.5 Z"/></g>
<g><path style="opacity:1" fill="#fefefe" d="M 591.5,527.5 C 591.5,532.833 591.5,538.167 591.5,543.5C 586.167,543.5 580.833,543.5 575.5,543.5C 575.5,554.167 575.5,564.833 575.5,575.5C 564.833,575.5 554.167,575.5 543.5,575.5C 543.5,580.833 543.5,586.167 543.5,591.5C 538.167,591.5 532.833,591.5 527.5,591.5C 527.5,580.833 527.5,570.167 527.5,559.5C 532.833,559.5 538.167,559.5 543.5,559.5C 543.5,554.167 543.5,548.833 543.5,543.5C 538.167,543.5 532.833,543.5 527.5,543.5C 527.5,527.5 527.5,511.5 527.5,495.5C 532.833,495.5 538.167,495.5 543.5,495.5C 543.5,490.167 543.5,484.833 543.5,479.5C 538.167,479.5 532.833,479.5 527.5,479.5C 527.5,474.167 527.5,468.833 527.5,463.5C 538.167,463.5 548.833,463.5 559.5,463.5C 559.5,479.5 559.5,495.5 559.5,511.5C 554.167,511.5 548.833,511.5 543.5,511.5C 543.5,516.833 543.5,522.167 543.5,527.5C 559.5,527.5 575.5,527.5 591.5,527.5 Z"/></g>
<g><path style="opacity:1" fill="#000000" d="M -0.5,479.5 C 36.8333,479.5 74.1667,479.5 111.5,479.5C 111.5,516.833 111.5,554.167 111.5,591.5C 74.1667,591.5 36.8333,591.5 -0.5,591.5C -0.5,554.167 -0.5,516.833 -0.5,479.5 Z"/></g>
<g><path style="opacity:1" fill="#000000" d="M 175.5,479.5 C 175.5,490.167 175.5,500.833 175.5,511.5C 180.833,511.5 186.167,511.5 191.5,511.5C 191.5,516.833 191.5,522.167 191.5,527.5C 180.833,527.5 170.167,527.5 159.5,527.5C 159.5,522.167 159.5,516.833 159.5,511.5C 154.167,511.5 148.833,511.5 143.5,511.5C 143.5,506.167 143.5,500.833 143.5,495.5C 148.833,495.5 154.167,495.5 159.5,495.5C 159.5,490.167 159.5,484.833 159.5,479.5C 164.833,479.5 170.167,479.5 175.5,479.5 Z"/></g>
<g><path style="opacity:1" fill="#fefefe" d="M 175.5,479.5 C 180.833,479.5 186.167,479.5 191.5,479.5C 191.5,484.833 191.5,490.167 191.5,495.5C 202.167,495.5 212.833,495.5 223.5,495.5C 223.5,500.833 223.5,506.167 223.5,511.5C 218.167,511.5 212.833,511.5 207.5,511.5C 207.5,516.833 207.5,522.167 207.5,527.5C 202.167,527.5 196.833,527.5 191.5,527.5C 191.5,522.167 191.5,516.833 191.5,511.5C 186.167,511.5 180.833,511.5 175.5,511.5C 175.5,500.833 175.5,490.167 175.5,479.5 Z"/></g>
<g><path style="opacity:1" fill="#fefefe" d="M 239.5,495.5 C 234.167,495.5 228.833,495.5 223.5,495.5C 223.5,490.167 223.5,484.833 223.5,479.5C 228.833,479.5 234.167,479.5 239.5,479.5C 239.5,484.833 239.5,490.167 239.5,495.5 Z"/></g>
<g><path style="opacity:1" fill="#000000" d="M 415.5,479.5 C 415.5,484.833 415.5,490.167 415.5,495.5C 410.167,495.5 404.833,495.5 399.5,495.5C 399.5,490.167 399.5,484.833 399.5,479.5C 404.833,479.5 410.167,479.5 415.5,479.5 Z"/></g>
<g><path style="opacity:1" fill="#fefefe" d="M 415.5,479.5 C 426.167,479.5 436.833,479.5 447.5,479.5C 447.5,490.167 447.5,500.833 447.5,511.5C 442.167,511.5 436.833,511.5 431.5,511.5C 431.5,506.167 431.5,500.833 431.5,495.5C 426.167,495.5 420.833,495.5 415.5,495.5C 415.5,490.167 415.5,484.833 415.5,479.5 Z"/></g>
<g><path style="opacity:1" fill="#000000" d="M 479.5,479.5 C 484.833,479.5 490.167,479.5 495.5,479.5C 495.5,484.833 495.5,490.167 495.5,495.5C 490.167,495.5 484.833,495.5 479.5,495.5C 479.5,490.167 479.5,484.833 479.5,479.5 Z"/></g>
<g><path style="opacity:1" fill="#fefffe" d="M 15.5,495.5 C 42.1667,495.5 68.8333,495.5 95.5,495.5C 95.5,522.167 95.5,548.833 95.5,575.5C 68.8333,575.5 42.1667,575.5 15.5,575.5C 15.5,548.833 15.5,522.167 15.5,495.5 Z"/></g>
<g><path style="opacity:1" fill="#000000" d="M 223.5,495.5 C 228.833,495.5 234.167,495.5 239.5,495.5C 239.5,500.833 239.5,506.167 239.5,511.5C 234.167,511.5 228.833,511.5 223.5,511.5C 223.5,506.167 223.5,500.833 223.5,495.5 Z"/></g>
<g><path style="opacity:1" fill="#fefefe" d="M 239.5,495.5 C 244.833,495.5 250.167,495.5 255.5,495.5C 260.833,495.5 266.167,495.5 271.5,495.5C 271.5,500.833 271.5,506.167 271.5,511.5C 271.5,516.833 271.5,522.167 271.5,527.5C 282.167,527.5 292.833,527.5 303.5,527.5C 303.5,532.833 303.5,538.167 303.5,543.5C 298.167,543.5 292.833,543.5 287.5,543.5C 287.5,548.833 287.5,554.167 287.5,559.5C 292.833,559.5 298.167,559.5 303.5,559.5C 303.5,564.833 303.5,570.167 303.5,575.5C 292.833,575.5 282.167,575.5 271.5,575.5C 271.5,564.833 271.5,554.167 271.5,543.5C 266.167,543.5 260.833,543.5 255.5,543.5C 255.5,538.167 255.5,532.833 255.5,527.5C 250.167,527.5 244.833,527.5 239.5,527.5C 239.5,532.833 239.5,538.167 239.5,543.5C 234.167,543.5 228.833,543.5 223.5,543.5C 223.5,532.833 223.5,522.167 223.5,511.5C 228.833,511.5 234.167,511.5 239.5,511.5C 239.5,506.167 239.5,500.833 239.5,495.5 Z"/></g>
<g><path style="opacity:1" fill="#000000" d="M 255.5,495.5 C 260.833,495.5 266.167,495.5 271.5,495.5C 271.5,500.833 271.5,506.167 271.5,511.5C 266.167,511.5 260.833,511.5 255.5,511.5C 255.5,506.167 255.5,500.833 255.5,495.5 Z"/></g>
<g><path style="opacity:1" fill="#000000" d="M 303.5,527.5 C 292.833,527.5 282.167,527.5 271.5,527.5C 271.5,522.167 271.5,516.833 271.5,511.5C 276.833,511.5 282.167,511.5 287.5,511.5C 287.5,506.167 287.5,500.833 287.5,495.5C 292.833,495.5 298.167,495.5 303.5,495.5C 303.5,506.167 303.5,516.833 303.5,527.5 Z"/></g>
<g><path style="opacity:1" fill="#fefefe" d="M 399.5,495.5 C 404.833,495.5 410.167,495.5 415.5,495.5C 415.5,500.833 415.5,506.167 415.5,511.5C 410.167,511.5 404.833,511.5 399.5,511.5C 399.5,506.167 399.5,500.833 399.5,495.5 Z"/></g>
<g><path style="opacity:1" fill="#fefefe" d="M 591.5,495.5 C 591.5,500.833 591.5,506.167 591.5,511.5C 586.167,511.5 580.833,511.5 575.5,511.5C 575.5,506.167 575.5,500.833 575.5,495.5C 580.833,495.5 586.167,495.5 591.5,495.5 Z"/></g>
<g><path style="opacity:1" fill="#000000" d="M 31.5,511.5 C 47.5,511.5 63.5,511.5 79.5,511.5C 79.5,527.5 79.5,543.5 79.5,559.5C 63.5,559.5 47.5,559.5 31.5,559.5C 31.5,543.5 31.5,527.5 31.5,511.5 Z"/></g>
<g><path style="opacity:1" fill="#000000" d="M 143.5,511.5 C 143.5,527.5 143.5,543.5 143.5,559.5C 138.167,559.5 132.833,559.5 127.5,559.5C 127.5,543.5 127.5,527.5 127.5,511.5C 132.833,511.5 138.167,511.5 143.5,511.5 Z"/></g>
<g><path style="opacity:1" fill="#000000" d="M 223.5,511.5 C 223.5,522.167 223.5,532.833 223.5,543.5C 212.833,543.5 202.167,543.5 191.5,543.5C 191.5,538.167 191.5,532.833 191.5,527.5C 196.833,527.5 202.167,527.5 207.5,527.5C 207.5,522.167 207.5,516.833 207.5,511.5C 212.833,511.5 218.167,511.5 223.5,511.5 Z"/></g>
<g><path style="opacity:1" fill="#000000" d="M 255.5,543.5 C 250.167,543.5 244.833,543.5 239.5,543.5C 239.5,538.167 239.5,532.833 239.5,527.5C 244.833,527.5 250.167,527.5 255.5,527.5C 255.5,532.833 255.5,538.167 255.5,543.5 Z"/></g>
<g><path style="opacity:1" fill="#fefefe" d="M 447.5,543.5 C 436.833,543.5 426.167,543.5 415.5,543.5C 415.5,538.167 415.5,532.833 415.5,527.5C 426.167,527.5 436.833,527.5 447.5,527.5C 447.5,532.833 447.5,538.167 447.5,543.5 Z"/></g>
<g><path style="opacity:1" fill="#fefefe" d="M 479.5,543.5 C 474.167,543.5 468.833,543.5 463.5,543.5C 463.5,538.167 463.5,532.833 463.5,527.5C 468.833,527.5 474.167,527.5 479.5,527.5C 479.5,532.833 479.5,538.167 479.5,543.5 Z"/></g>
<g><path style="opacity:1" fill="#000000" d="M 191.5,543.5 C 191.5,548.833 191.5,554.167 191.5,559.5C 196.833,559.5 202.167,559.5 207.5,559.5C 207.5,570.167 207.5,580.833 207.5,591.5C 202.167,591.5 196.833,591.5 191.5,591.5C 191.5,586.167 191.5,580.833 191.5,575.5C 186.167,575.5 180.833,575.5 175.5,575.5C 175.5,564.833 175.5,554.167 175.5,543.5C 180.833,543.5 186.167,543.5 191.5,543.5 Z"/></g>
<g><path style="opacity:1" fill="#fefefe" d="M 191.5,543.5 C 202.167,543.5 212.833,543.5 223.5,543.5C 223.5,554.167 223.5,564.833 223.5,575.5C 228.833,575.5 234.167,575.5 239.5,575.5C 239.5,580.833 239.5,586.167 239.5,591.5C 228.833,591.5 218.167,591.5 207.5,591.5C 207.5,580.833 207.5,570.167 207.5,559.5C 202.167,559.5 196.833,559.5 191.5,559.5C 191.5,554.167 191.5,548.833 191.5,543.5 Z"/></g>
<g><path style="opacity:1" fill="#000000" d="M 223.5,543.5 C 228.833,543.5 234.167,543.5 239.5,543.5C 239.5,554.167 239.5,564.833 239.5,575.5C 234.167,575.5 228.833,575.5 223.5,575.5C 223.5,564.833 223.5,554.167 223.5,543.5 Z"/></g>
<g><path style="opacity:1" fill="#fefefe" d="M 239.5,543.5 C 244.833,543.5 250.167,543.5 255.5,543.5C 255.5,554.167 255.5,564.833 255.5,575.5C 250.167,575.5 244.833,575.5 239.5,575.5C 239.5,564.833 239.5,554.167 239.5,543.5 Z"/></g>
<g><path style="opacity:1" fill="#000000" d="M 255.5,543.5 C 260.833,543.5 266.167,543.5 271.5,543.5C 271.5,554.167 271.5,564.833 271.5,575.5C 282.167,575.5 292.833,575.5 303.5,575.5C 303.5,580.833 303.5,586.167 303.5,591.5C 282.167,591.5 260.833,591.5 239.5,591.5C 239.5,586.167 239.5,580.833 239.5,575.5C 244.833,575.5 250.167,575.5 255.5,575.5C 255.5,564.833 255.5,554.167 255.5,543.5 Z"/></g>
<g><path style="opacity:1" fill="#000000" d="M 303.5,543.5 C 303.5,548.833 303.5,554.167 303.5,559.5C 298.167,559.5 292.833,559.5 287.5,559.5C 287.5,554.167 287.5,548.833 287.5,543.5C 292.833,543.5 298.167,543.5 303.5,543.5 Z"/></g>
<g><path style="opacity:1" fill="#fefefe" d="M 303.5,543.5 C 314.167,543.5 324.833,543.5 335.5,543.5C 335.5,548.833 335.5,554.167 335.5,559.5C 324.833,559.5 314.167,559.5 303.5,559.5C 303.5,554.167 303.5,548.833 303.5,543.5 Z"/></g>
<g><path style="opacity:1" fill="#fefefe" d="M 447.5,543.5 C 452.833,543.5 458.167,543.5 463.5,543.5C 463.5,548.833 463.5,554.167 463.5,559.5C 458.167,559.5 452.833,559.5 447.5,559.5C 447.5,554.167 447.5,548.833 447.5,543.5 Z"/></g>
<g><path style="opacity:1" fill="#000000" d="M 463.5,543.5 C 468.833,543.5 474.167,543.5 479.5,543.5C 479.5,548.833 479.5,554.167 479.5,559.5C 474.167,559.5 468.833,559.5 463.5,559.5C 463.5,554.167 463.5,548.833 463.5,543.5 Z"/></g>
<g><path style="opacity:1" fill="#fefefe" d="M 479.5,543.5 C 484.833,543.5 490.167,543.5 495.5,543.5C 495.5,548.833 495.5,554.167 495.5,559.5C 490.167,559.5 484.833,559.5 479.5,559.5C 479.5,554.167 479.5,548.833 479.5,543.5 Z"/></g>
<g><path style="opacity:1" fill="#fefefe" d="M 527.5,543.5 C 527.5,548.833 527.5,554.167 527.5,559.5C 522.167,559.5 516.833,559.5 511.5,559.5C 511.5,554.167 511.5,548.833 511.5,543.5C 516.833,543.5 522.167,543.5 527.5,543.5 Z"/></g>
<g><path style="opacity:1" fill="#000000" d="M 527.5,543.5 C 532.833,543.5 538.167,543.5 543.5,543.5C 543.5,548.833 543.5,554.167 543.5,559.5C 538.167,559.5 532.833,559.5 527.5,559.5C 527.5,554.167 527.5,548.833 527.5,543.5 Z"/></g>
<g><path style="opacity:1" fill="#000000" d="M 591.5,543.5 C 591.5,559.5 591.5,575.5 591.5,591.5C 575.5,591.5 559.5,591.5 543.5,591.5C 543.5,586.167 543.5,580.833 543.5,575.5C 554.167,575.5 564.833,575.5 575.5,575.5C 575.5,564.833 575.5,554.167 575.5,543.5C 580.833,543.5 586.167,543.5 591.5,543.5 Z"/></g>
<g><path style="opacity:1" fill="#fefefe" d="M 399.5,591.5 C 394.167,591.5 388.833,591.5 383.5,591.5C 383.5,580.833 383.5,570.167 383.5,559.5C 394.167,559.5 404.833,559.5 415.5,559.5C 415.5,564.833 415.5,570.167 415.5,575.5C 410.167,575.5 404.833,575.5 399.5,575.5C 399.5,580.833 399.5,586.167 399.5,591.5 Z"/></g>
<g><path style="opacity:1" fill="#fefefe" d="M 463.5,559.5 C 468.833,559.5 474.167,559.5 479.5,559.5C 479.5,570.167 479.5,580.833 479.5,591.5C 463.5,591.5 447.5,591.5 431.5,591.5C 431.5,586.167 431.5,580.833 431.5,575.5C 442.167,575.5 452.833,575.5 463.5,575.5C 463.5,570.167 463.5,564.833 463.5,559.5 Z"/></g>
<g><path style="opacity:1" fill="#000000" d="M 175.5,575.5 C 175.5,580.833 175.5,586.167 175.5,591.5C 170.167,591.5 164.833,591.5 159.5,591.5C 159.5,586.167 159.5,580.833 159.5,575.5C 164.833,575.5 170.167,575.5 175.5,575.5 Z"/></g>
<g><path style="opacity:1" fill="#fefefe" d="M 175.5,575.5 C 180.833,575.5 186.167,575.5 191.5,575.5C 191.5,580.833 191.5,586.167 191.5,591.5C 186.167,591.5 180.833,591.5 175.5,591.5C 175.5,586.167 175.5,580.833 175.5,575.5 Z"/></g>
<g><path style="opacity:1" fill="#fefefe" d="M 303.5,575.5 C 314.167,575.5 324.833,575.5 335.5,575.5C 335.5,580.833 335.5,586.167 335.5,591.5C 324.833,591.5 314.167,591.5 303.5,591.5C 303.5,586.167 303.5,580.833 303.5,575.5 Z"/></g>
<g><path style="opacity:1" fill="#fefefe" d="M 367.5,591.5 C 362.167,591.5 356.833,591.5 351.5,591.5C 351.5,586.167 351.5,580.833 351.5,575.5C 356.833,575.5 362.167,575.5 367.5,575.5C 367.5,580.833 367.5,586.167 367.5,591.5 Z"/></g>
</svg>
