<?xml version="1.0" encoding="UTF-8"?>
<!DOCTYPE svg PUBLIC "-//W3C//DTD SVG 1.1//EN" "http://www.w3.org/Graphics/SVG/1.1/DTD/svg11.dtd">
<svg xmlns="http://www.w3.org/2000/svg" version="1.1" width="500px" height="500px" style="shape-rendering:geometricPrecision; text-rendering:geometricPrecision; image-rendering:optimizeQuality; fill-rule:evenodd; clip-rule:evenodd" xmlns:xlink="http://www.w3.org/1999/xlink">
<g><path style="opacity:1" fill="#fdfdfd" d="M 248.5,-0.5 C 249.5,-0.5 250.5,-0.5 251.5,-0.5C 257.979,0.490707 264.646,0.82404 271.5,0.5C 277.737,0.80221 283.737,2.13554 289.5,4.5C 289.833,4.5 290.167,4.5 290.5,4.5C 290.731,7.06316 292.065,8.72983 294.5,9.5C 295.906,9.97306 296.573,10.9731 296.5,12.5C 296.565,15.4282 297.232,18.0948 298.5,20.5C 297.36,38.7897 297.193,57.123 298,75.5C 299.011,76.3366 300.178,76.67 301.5,76.5C 304.687,79.9253 308.687,81.2587 313.5,80.5C 316.335,82.7851 319.668,84.1184 323.5,84.5C 323.369,85.3764 323.702,86.0431 324.5,86.5C 329.089,88.3797 333.589,90.3797 338,92.5C 341.25,91.659 343.083,89.659 343.5,86.5C 346.833,85.1667 349.167,82.8333 350.5,79.5C 353.833,78.1667 356.167,75.8333 357.5,72.5C 361.167,70.8333 363.833,68.1667 365.5,64.5C 370.271,58.3904 375.938,53.3904 382.5,49.5C 387.463,48.746 392.463,48.4126 397.5,48.5C 398.552,50.256 400.219,50.9227 402.5,50.5C 403.035,52.4456 404.368,53.4456 406.5,53.5C 407.5,53.8333 408.167,54.5 408.5,55.5C 412.167,61.1667 416.833,65.8333 422.5,69.5C 424.167,70.5 425.5,71.8333 426.5,73.5C 427.167,76.8333 429.167,78.8333 432.5,79.5C 433.167,82.8333 435.167,84.8333 438.5,85.5C 438.525,88.179 439.858,89.5123 442.5,89.5C 443.833,90.1667 444.833,91.1667 445.5,92.5C 445.241,94.9893 446.241,96.656 448.5,97.5C 448.863,100.563 449.53,103.563 450.5,106.5C 449.411,110.097 448.745,113.763 448.5,117.5C 447.928,119.255 447.094,120.922 446,122.5C 433.965,134.702 421.798,146.702 409.5,158.5C 407.571,158.231 405.905,158.731 404.5,160C 407.776,164.66 410.776,169.493 413.5,174.5C 413.502,178.165 414.835,181.165 417.5,183.5C 417.166,186.491 418.166,188.824 420.5,190.5C 420.5,190.833 420.5,191.167 420.5,191.5C 420.41,194.152 421.076,196.485 422.5,198.5C 422.414,199.496 422.748,200.329 423.5,201C 444.181,201.252 464.848,201.752 485.5,202.5C 486.634,205.034 488.634,206.367 491.5,206.5C 492.08,208.749 493.413,210.415 495.5,211.5C 497.428,214.622 498.761,217.955 499.5,221.5C 499.5,223.167 499.5,224.833 499.5,226.5C 499.167,226.5 498.833,226.5 498.5,226.5C 497.76,243.268 497.76,260.268 498.5,277.5C 498.45,285.192 495.117,290.859 488.5,294.5C 485.654,294.552 483.32,295.552 481.5,297.5C 462.201,298.143 442.868,298.809 423.5,299.5C 423.137,300.183 422.804,300.85 422.5,301.5C 419.664,305.431 417.498,309.765 416,314.5C 415.505,316.473 415.338,318.473 415.5,320.5C 412.188,325.113 409.354,330.113 407,335.5C 406.227,337.352 406.727,338.686 408.5,339.5C 411.167,341.5 413.5,343.833 415.5,346.5C 416.167,349.167 417.833,350.833 420.5,351.5C 429.167,359.5 437.5,367.833 445.5,376.5C 445.427,378.027 446.094,379.027 447.5,379.5C 448.167,379.5 448.5,379.833 448.5,380.5C 448.517,382.565 448.85,384.565 449.5,386.5C 449.635,391.95 448.969,397.284 447.5,402.5C 435.859,415.808 423.526,428.475 410.5,440.5C 409.094,440.973 408.427,441.973 408.5,443.5C 408.5,444.167 408.167,444.5 407.5,444.5C 404.446,444.354 402.446,445.687 401.5,448.5C 394.833,449.833 388.167,449.833 381.5,448.5C 376.223,446.223 372.223,442.556 369.5,437.5C 368.089,435.086 366.089,433.419 363.5,432.5C 362.5,429.5 360.5,427.5 357.5,426.5C 356.167,425.833 355.167,424.833 354.5,423.5C 353.833,420.167 351.833,418.167 348.5,417.5C 345.5,414.167 342.5,410.833 339.5,407.5C 338.399,406.402 337.066,406.235 335.5,407C 330.704,409.053 326.371,411.553 322.5,414.5C 322.167,414.5 321.833,414.5 321.5,414.5C 318.607,414.031 316.607,415.031 315.5,417.5C 311.703,419.396 307.703,420.73 303.5,421.5C 301.533,421.261 299.699,421.594 298,422.5C 297.205,441.198 297.372,459.865 298.5,478.5C 296.321,482.203 294.655,486.203 293.5,490.5C 292.089,492.914 290.089,494.581 287.5,495.5C 284.084,495.528 281.084,496.528 278.5,498.5C 276.167,498.5 273.833,498.5 271.5,498.5C 254.005,497.668 236.338,497.168 218.5,497C 216.655,495.872 214.655,495.372 212.5,495.5C 211.415,493.413 209.749,492.08 207.5,491.5C 206.5,491.167 205.833,490.5 205.5,489.5C 202.908,483.796 201.574,477.796 201.5,471.5C 202.166,463.507 202.5,455.34 202.5,447C 202.498,438.472 201.831,430.305 200.5,422.5C 194.767,419.922 188.767,417.922 182.5,416.5C 180.824,414.166 178.491,413.166 175.5,413.5C 174.393,411.031 172.393,410.031 169.5,410.5C 166.606,409.039 163.606,408.206 160.5,408C 152.802,415.364 145.469,423.03 138.5,431C 132.275,436.732 125.942,442.232 119.5,447.5C 117.973,447.427 116.973,448.094 116.5,449.5C 112.519,450.021 108.519,450.354 104.5,450.5C 99.9136,449.54 95.9136,447.54 92.5,444.5C 92.5123,441.858 91.179,440.525 88.5,440.5C 88.719,439.325 88.3857,438.325 87.5,437.5C 84.0665,433.725 80.3998,430.391 76.5,427.5C 76.0269,426.094 75.0269,425.427 73.5,425.5C 73.067,422.715 71.7337,420.381 69.5,418.5C 68.4231,417.295 67.0898,416.628 65.5,416.5C 64.8333,413.833 63.1667,412.167 60.5,411.5C 59.0892,409.086 57.0892,407.419 54.5,406.5C 53.3995,405.395 52.7329,404.062 52.5,402.5C 52.2451,400.033 51.2451,398.033 49.5,396.5C 49.335,393.15 49.5017,389.817 50,386.5C 51.9532,383.745 53.1199,380.745 53.5,377.5C 55.5,376.167 57.1667,374.5 58.5,372.5C 59.1667,371.167 60.1667,370.167 61.5,369.5C 64.5,368.5 66.5,366.5 67.5,363.5C 72.5,360.5 76.5,356.5 79.5,351.5C 84.1667,348.833 87.8333,345.167 90.5,340.5C 93.2436,339.928 94.0769,338.262 93,335.5C 90.0109,329.178 86.8442,323.178 83.5,317.5C 83.6545,314.284 82.6545,311.617 80.5,309.5C 79.8333,305.5 79.1667,301.5 78.5,297.5C 59.1667,297.5 39.8333,297.5 20.5,297.5C 16.9557,297.868 13.9557,296.868 11.5,294.5C 10.7377,292.738 9.40435,291.738 7.5,291.5C 5.17823,290.198 3.8449,288.198 3.5,285.5C 3.06704,282.834 2.56704,280.168 2,277.5C 1.50005,258.836 1.33339,240.17 1.5,221.5C 1.62778,212.233 5.96111,205.899 14.5,202.5C 35.1429,201.713 55.8095,201.213 76.5,201C 78.4035,198.123 79.4035,194.956 79.5,191.5C 79.5,191.167 79.5,190.833 79.5,190.5C 81.8337,188.824 82.8337,186.491 82.5,183.5C 82.5,183.167 82.5,182.833 82.5,182.5C 86.8261,176.846 89.8261,170.512 91.5,163.5C 94.3053,161.244 93.972,159.577 90.5,158.5C 90.5,156.5 89.5,155.5 87.5,155.5C 87.5,153.5 86.5,152.5 84.5,152.5C 83.2712,149.026 80.9378,146.693 77.5,145.5C 77.5,143.5 76.5,142.5 74.5,142.5C 74.1667,139.5 72.5,137.833 69.5,137.5C 66.1667,132.167 61.8333,127.833 56.5,124.5C 55.5,124.167 54.8333,123.5 54.5,122.5C 54.7593,120.011 53.7593,118.344 51.5,117.5C 50.3166,110.807 50.3166,104.141 51.5,97.5C 52.1103,95.5659 53.1103,93.8993 54.5,92.5C 61.8333,87.1667 68.1667,80.8333 73.5,73.5C 73.5,72.8333 73.8333,72.5 74.5,72.5C 80.5,68.5 85.5,63.5 89.5,57.5C 90.5,55.8333 91.8333,54.5 93.5,53.5C 95.0269,53.573 96.0269,52.9063 96.5,51.5C 99.2257,51.7361 101.559,50.9028 103.5,49C 107.152,48.5014 110.818,48.3347 114.5,48.5C 115.784,50.6138 117.784,51.6138 120.5,51.5C 122.749,52.0798 124.415,53.4131 125.5,55.5C 135.91,67.4135 146.91,78.9135 158.5,90C 159.094,90.4643 159.761,90.631 160.5,90.5C 161.391,91.1098 162.391,91.4431 163.5,91.5C 171.539,88.3193 179.539,84.8193 187.5,81C 192.429,79.1898 197.429,77.6898 202.5,76.5C 202.83,59.6583 202.497,42.9916 201.5,26.5C 201.855,17.464 205.188,9.79731 211.5,3.5C 214.288,1.02369 217.622,0.0236931 221.5,0.5C 230.628,1.79028 239.628,1.79028 248.5,0.5C 248.5,0.166667 248.5,-0.166667 248.5,-0.5 Z M 267.5,134.5 C 271.076,135.485 274.742,136.152 278.5,136.5C 281.215,138.072 284.215,139.072 287.5,139.5C 289.936,140.871 292.603,141.871 295.5,142.5C 299.849,145.341 304.516,147.674 309.5,149.5C 309.973,150.906 310.973,151.573 312.5,151.5C 315.475,154.323 318.808,156.656 322.5,158.5C 326.5,163.167 330.833,167.5 335.5,171.5C 336.167,172.833 337.167,173.833 338.5,174.5C 339.124,176.754 340.457,178.421 342.5,179.5C 342.427,181.027 343.094,182.027 344.5,182.5C 345.026,184.23 346.026,185.564 347.5,186.5C 347.328,187.492 347.662,188.158 348.5,188.5C 348.427,190.027 349.094,191.027 350.5,191.5C 350.328,192.492 350.662,193.158 351.5,193.5C 351.66,195.153 352.326,196.486 353.5,197.5C 353.992,199.819 354.992,201.819 356.5,203.5C 356.402,205.553 357.069,207.22 358.5,208.5C 358.928,211.785 359.928,214.785 361.5,217.5C 361.232,219.099 361.566,220.432 362.5,221.5C 365.256,236.078 365.922,250.745 364.5,265.5C 364.5,265.833 364.5,266.167 364.5,266.5C 363.419,269.627 362.753,272.96 362.5,276.5C 361.055,279.937 360.055,283.603 359.5,287.5C 357.597,290.53 356.263,293.863 355.5,297.5C 353.659,299.849 352.326,302.515 351.5,305.5C 349.75,306.659 348.75,308.326 348.5,310.5C 347.094,310.973 346.427,311.973 346.5,313.5C 344.674,315.147 343.34,317.147 342.5,319.5C 340.177,322.126 337.843,324.793 335.5,327.5C 331.167,331.167 327.167,335.167 323.5,339.5C 320.467,341.016 317.8,343.016 315.5,345.5C 313.326,345.75 311.659,346.75 310.5,348.5C 306.345,349.742 302.678,351.742 299.5,354.5C 291.748,357.194 284.081,359.861 276.5,362.5C 267.708,363.769 258.875,364.769 250,365.5C 241.114,364.857 232.281,363.857 223.5,362.5C 219.981,361.036 216.314,360.036 212.5,359.5C 211.22,358.069 209.553,357.402 207.5,357.5C 203.355,355.264 199.022,353.264 194.5,351.5C 194.027,350.094 193.027,349.427 191.5,349.5C 191.158,348.662 190.492,348.328 189.5,348.5C 189.027,347.094 188.027,346.427 186.5,346.5C 186.158,345.662 185.492,345.328 184.5,345.5C 183.421,343.457 181.754,342.124 179.5,341.5C 178.421,339.457 176.754,338.124 174.5,337.5C 173.833,336.167 172.833,335.167 171.5,334.5C 168.167,330.5 164.5,326.833 160.5,323.5C 160.262,321.596 159.262,320.262 157.5,319.5C 155.745,316.32 153.745,313.32 151.5,310.5C 151.573,308.973 150.906,307.973 149.5,307.5C 147.438,302.375 145.104,297.375 142.5,292.5C 141.538,288.605 140.204,284.939 138.5,281.5C 138.768,279.901 138.434,278.568 137.5,277.5C 136.763,270.992 135.763,264.659 134.5,258.5C 134.5,258.167 134.5,257.833 134.5,257.5C 134.353,244.008 135.687,230.674 138.5,217.5C 141.011,211.307 143.344,204.973 145.5,198.5C 146.674,197.486 147.34,196.153 147.5,194.5C 148.906,194.027 149.573,193.027 149.5,191.5C 151.153,188.869 152.819,186.203 154.5,183.5C 155.906,183.027 156.573,182.027 156.5,180.5C 164.167,170.833 172.833,162.167 182.5,154.5C 184.027,154.573 185.027,153.906 185.5,152.5C 187.434,151.89 189.101,150.89 190.5,149.5C 192.027,149.573 193.027,148.906 193.5,147.5C 196.485,146.674 199.151,145.341 201.5,143.5C 205.137,142.737 208.47,141.403 211.5,139.5C 214.067,139.279 216.401,138.612 218.5,137.5C 221.067,137.279 223.401,136.612 225.5,135.5C 239.459,133.391 253.459,133.058 267.5,134.5 Z"/></g>
<g><path style="opacity:0.49" fill="#c4c4c4" d="M 221.5,0.5 C 221.5,0.166667 221.5,-0.166667 221.5,-0.5C 223.5,-0.5 225.5,-0.5 227.5,-0.5C 234.313,0.491194 241.313,0.824527 248.5,0.5C 239.628,1.79028 230.628,1.79028 221.5,0.5 Z"/></g>
<g><path style="opacity:0.729" fill="#8d8d8d" d="M 271.5,0.5 C 271.5,0.166667 271.5,-0.166667 271.5,-0.5C 274.833,-0.5 278.167,-0.5 281.5,-0.5C 284.47,0.65323 287.137,2.3199 289.5,4.5C 283.737,2.13554 277.737,0.80221 271.5,0.5 Z"/></g>
<g><path style="opacity:0.255" fill="#8c8c8c" d="M 290.5,4.5 C 292.587,5.58457 293.92,7.25124 294.5,9.5C 292.065,8.72983 290.731,7.06316 290.5,4.5 Z"/></g>
<g><path style="opacity:0.796" fill="#666666" d="M 211.5,3.5 C 205.188,9.79731 201.855,17.464 201.5,26.5C 201.83,43.0085 201.496,59.3419 200.5,75.5C 200.333,56.8304 200.5,38.1637 201,19.5C 201.783,12.2386 205.283,6.90527 211.5,3.5 Z"/></g>
<g><path style="opacity:0.188" fill="#838383" d="M 296.5,12.5 C 298.04,14.8383 298.706,17.5049 298.5,20.5C 297.232,18.0948 296.565,15.4282 296.5,12.5 Z"/></g>
<g><path style="opacity:0.327" fill="#797979" d="M 298.5,20.5 C 299.713,35.8379 299.713,51.3379 298.5,67C 298.667,69.5 298.833,72 299,74.5C 299.995,75.0659 300.828,75.7326 301.5,76.5C 300.178,76.67 299.011,76.3366 298,75.5C 297.193,57.123 297.36,38.7897 298.5,20.5 Z"/></g>
<g><path style="opacity:0.549" fill="#8f8f8f" d="M 114.5,48.5 C 110.818,48.3347 107.152,48.5014 103.5,49C 101.559,50.9028 99.2257,51.7361 96.5,51.5C 97.9746,49.5905 99.9746,48.4238 102.5,48C 106.689,47.1881 110.689,47.3547 114.5,48.5 Z"/></g>
<g><path style="opacity:0.631" fill="#7b7b7b" d="M 397.5,48.5 C 392.463,48.4126 387.463,48.746 382.5,49.5C 382.918,48.7784 383.584,48.2784 384.5,48C 389.02,47.1864 393.354,47.353 397.5,48.5 Z"/></g>
<g><path style="opacity:0.725" fill="#929292" d="M 397.5,48.5 C 399.553,48.4021 401.22,49.0687 402.5,50.5C 400.219,50.9227 398.552,50.256 397.5,48.5 Z"/></g>
<g><path style="opacity:0.455" fill="#919191" d="M 114.5,48.5 C 117.089,48.461 119.089,49.461 120.5,51.5C 117.784,51.6138 115.784,50.6138 114.5,48.5 Z"/></g>
<g><path style="opacity:0.6" fill="#7f7f7f" d="M 402.5,50.5 C 404.23,51.0256 405.564,52.0256 406.5,53.5C 404.368,53.4456 403.035,52.4456 402.5,50.5 Z"/></g>
<g><path style="opacity:0.329" fill="#7c7c7c" d="M 96.5,51.5 C 96.0269,52.9063 95.0269,53.573 93.5,53.5C 93.9731,52.0937 94.9731,51.427 96.5,51.5 Z"/></g>
<g><path style="opacity:0.6" fill="#707070" d="M 125.5,55.5 C 137.5,66.8333 149.167,78.5 160.5,90.5C 159.761,90.631 159.094,90.4643 158.5,90C 146.91,78.9135 135.91,67.4135 125.5,55.5 Z"/></g>
<g><path style="opacity:0.604" fill="#7d7d7d" d="M 408.5,55.5 C 413.5,59.8333 418.167,64.5 422.5,69.5C 416.833,65.8333 412.167,61.1667 408.5,55.5 Z"/></g>
<g><path style="opacity:0.357" fill="#898989" d="M 89.5,57.5 C 85.5,63.5 80.5,68.5 74.5,72.5C 79.1667,67.1667 84.1667,62.1667 89.5,57.5 Z"/></g>
<g><path style="opacity:0.557" fill="#8c8c8c" d="M 365.5,64.5 C 363.833,68.1667 361.167,70.8333 357.5,72.5C 359.833,69.5 362.5,66.8333 365.5,64.5 Z"/></g>
<g><path style="opacity:0.447" fill="#858585" d="M 426.5,73.5 C 428.833,75.1667 430.833,77.1667 432.5,79.5C 429.167,78.8333 427.167,76.8333 426.5,73.5 Z"/></g>
<g><path style="opacity:0.361" fill="#8c8c8c" d="M 73.5,73.5 C 68.1667,80.8333 61.8333,87.1667 54.5,92.5C 60.5,85.8333 66.8333,79.5 73.5,73.5 Z"/></g>
<g><path style="opacity:0.49" fill="#878787" d="M 357.5,72.5 C 356.167,75.8333 353.833,78.1667 350.5,79.5C 352.5,76.8333 354.833,74.5 357.5,72.5 Z"/></g>
<g><path style="opacity:0.827" fill="#a1a1a1" d="M 301.5,76.5 C 305.784,77.2613 309.784,78.5947 313.5,80.5C 308.687,81.2587 304.687,79.9253 301.5,76.5 Z"/></g>
<g><path style="opacity:0.227" fill="#6e6e6e" d="M 313.5,80.5 C 317.137,81.2635 320.47,82.5968 323.5,84.5C 319.668,84.1184 316.335,82.7851 313.5,80.5 Z"/></g>
<g><path style="opacity:0.451" fill="#828282" d="M 432.5,79.5 C 434.833,81.1667 436.833,83.1667 438.5,85.5C 435.167,84.8333 433.167,82.8333 432.5,79.5 Z"/></g>
<g><path style="opacity:0.443" fill="#888888" d="M 350.5,79.5 C 349.167,82.8333 346.833,85.1667 343.5,86.5C 345.5,83.8333 347.833,81.5 350.5,79.5 Z"/></g>
<g><path style="opacity:0.78" fill="#a3a3a3" d="M 201.5,26.5 C 202.497,42.9916 202.83,59.6583 202.5,76.5C 197.429,77.6898 192.429,79.1898 187.5,81C 179.539,84.8193 171.539,88.3193 163.5,91.5C 174.898,84.2475 187.231,78.9142 200.5,75.5C 201.496,59.3419 201.83,43.0085 201.5,26.5 Z"/></g>
<g><path style="opacity:0.184" fill="#818181" d="M 323.5,84.5 C 328.51,86.4213 333.343,88.7547 338,91.5C 339.704,89.6266 341.537,87.9599 343.5,86.5C 343.083,89.659 341.25,91.659 338,92.5C 333.589,90.3797 329.089,88.3797 324.5,86.5C 323.702,86.0431 323.369,85.3764 323.5,84.5 Z"/></g>
<g><path style="opacity:0.882" fill="#a4a4a4" d="M 438.5,85.5 C 440.167,86.5 441.5,87.8333 442.5,89.5C 439.858,89.5123 438.525,88.179 438.5,85.5 Z"/></g>
<g><path style="opacity:0.878" fill="#a9a9a9" d="M 445.5,92.5 C 446.89,93.8993 447.89,95.5659 448.5,97.5C 446.241,96.656 445.241,94.9893 445.5,92.5 Z"/></g>
<g><path style="opacity:0.125" fill="#8b8b8b" d="M 448.5,97.5 C 450.677,100.373 451.677,103.706 451.5,107.5C 451.677,111.294 450.677,114.627 448.5,117.5C 448.745,113.763 449.411,110.097 450.5,106.5C 449.53,103.563 448.863,100.563 448.5,97.5 Z"/></g>
<g><path style="opacity:0.714" fill="#aaaaaa" d="M 51.5,97.5 C 50.3166,104.141 50.3166,110.807 51.5,117.5C 50.0337,116.653 49.2004,115.32 49,113.5C 48.3333,109.5 48.3333,105.5 49,101.5C 49.2004,99.6803 50.0337,98.347 51.5,97.5 Z"/></g>
<g><path style="opacity:0.651" fill="#a7a7a7" d="M 51.5,117.5 C 53.7593,118.344 54.7593,120.011 54.5,122.5C 53.1103,121.101 52.1103,119.434 51.5,117.5 Z"/></g>
<g><path style="opacity:0.49" fill="#7d7d7d" d="M 56.5,124.5 C 61.8333,127.833 66.1667,132.167 69.5,137.5C 64.8333,133.5 60.5,129.167 56.5,124.5 Z"/></g>
<g><path style="opacity:0.204" fill="#949494" d="M 267.5,134.5 C 253.459,133.058 239.459,133.391 225.5,135.5C 233.183,133.115 241.183,132.115 249.5,132.5C 255.749,132.294 261.749,132.96 267.5,134.5 Z"/></g>
<g><path style="opacity:0.09" fill="#868686" d="M 225.5,135.5 C 223.401,136.612 221.067,137.279 218.5,137.5C 220.438,135.837 222.772,135.171 225.5,135.5 Z"/></g>
<g><path style="opacity:0.475" fill="#919191" d="M 278.5,136.5 C 281.916,136.528 284.916,137.528 287.5,139.5C 284.215,139.072 281.215,138.072 278.5,136.5 Z"/></g>
<g><path style="opacity:0.11" fill="#8f8f8f" d="M 218.5,137.5 C 216.401,138.612 214.067,139.279 211.5,139.5C 213.438,137.837 215.772,137.171 218.5,137.5 Z"/></g>
<g><path style="opacity:0.388" fill="#898989" d="M 69.5,137.5 C 72.5,137.833 74.1667,139.5 74.5,142.5C 72.5,141.167 70.8333,139.5 69.5,137.5 Z"/></g>
<g><path style="opacity:0.518" fill="#949494" d="M 287.5,139.5 C 290.716,139.345 293.383,140.345 295.5,142.5C 292.603,141.871 289.936,140.871 287.5,139.5 Z"/></g>
<g><path style="opacity:0.125" fill="#898989" d="M 211.5,139.5 C 208.47,141.403 205.137,142.737 201.5,143.5C 204.37,141.206 207.703,139.872 211.5,139.5 Z"/></g>
<g><path style="opacity:0.384" fill="#7a7a7a" d="M 74.5,142.5 C 76.5,142.5 77.5,143.5 77.5,145.5C 76.1667,144.833 75.1667,143.833 74.5,142.5 Z"/></g>
<g><path style="opacity:0.404" fill="#878787" d="M 77.5,145.5 C 80.9378,146.693 83.2712,149.026 84.5,152.5C 81.8333,150.5 79.5,148.167 77.5,145.5 Z"/></g>
<g><path style="opacity:0.016" fill="#6e6e6e" d="M 193.5,147.5 C 193.027,148.906 192.027,149.573 190.5,149.5C 190.973,148.094 191.973,147.427 193.5,147.5 Z"/></g>
<g><path style="opacity:0.122" fill="#6c6c6c" d="M 309.5,149.5 C 311.027,149.427 312.027,150.094 312.5,151.5C 310.973,151.573 309.973,150.906 309.5,149.5 Z"/></g>
<g><path style="opacity:0.31" fill="#7e7e7e" d="M 84.5,152.5 C 86.5,152.5 87.5,153.5 87.5,155.5C 86.1667,154.833 85.1667,153.833 84.5,152.5 Z"/></g>
<g><path style="opacity:0.012" fill="#727272" d="M 185.5,152.5 C 185.027,153.906 184.027,154.573 182.5,154.5C 182.973,153.094 183.973,152.427 185.5,152.5 Z"/></g>
<g><path style="opacity:0.325" fill="#7a7a7a" d="M 87.5,155.5 C 89.5,155.5 90.5,156.5 90.5,158.5C 89.1667,157.833 88.1667,156.833 87.5,155.5 Z"/></g>
<g><path style="opacity:0.51" fill="#686868" d="M 322.5,158.5 C 327.833,161.833 332.167,166.167 335.5,171.5C 330.833,167.5 326.5,163.167 322.5,158.5 Z"/></g>
<g><path style="opacity:0.337" fill="#828282" d="M 90.5,158.5 C 93.972,159.577 94.3053,161.244 91.5,163.5C 91.4142,162.504 91.7476,161.671 92.5,161C 91.6195,160.292 90.9528,159.458 90.5,158.5 Z"/></g>
<g><path style="opacity:0.714" fill="#9e9e9e" d="M 409.5,158.5 C 409.047,159.458 408.381,160.292 407.5,161C 410.173,165.181 412.173,169.681 413.5,174.5C 410.776,169.493 407.776,164.66 404.5,160C 405.905,158.731 407.571,158.231 409.5,158.5 Z"/></g>
<g><path style="opacity:0.659" fill="#808080" d="M 338.5,174.5 C 340.531,175.539 341.864,177.205 342.5,179.5C 340.457,178.421 339.124,176.754 338.5,174.5 Z"/></g>
<g><path style="opacity:0.851" fill="#a7a7a7" d="M 413.5,174.5 C 415.592,177.088 416.925,180.088 417.5,183.5C 414.835,181.165 413.502,178.165 413.5,174.5 Z"/></g>
<g><path style="opacity:0.663" fill="#888888" d="M 91.5,163.5 C 89.8261,170.512 86.8261,176.846 82.5,182.5C 84.7176,175.734 87.7176,169.401 91.5,163.5 Z"/></g>
<g><path style="opacity:0.016" fill="#5a5a5a" d="M 342.5,179.5 C 343.906,179.973 344.573,180.973 344.5,182.5C 343.094,182.027 342.427,181.027 342.5,179.5 Z"/></g>
<g><path style="opacity:0.012" fill="#727272" d="M 156.5,180.5 C 156.573,182.027 155.906,183.027 154.5,183.5C 154.427,181.973 155.094,180.973 156.5,180.5 Z"/></g>
<g><path style="opacity:0.643" fill="#7f7f7f" d="M 344.5,182.5 C 346.446,183.035 347.446,184.368 347.5,186.5C 346.026,185.564 345.026,184.23 344.5,182.5 Z"/></g>
<g><path style="opacity:0.655" fill="#797979" d="M 82.5,183.5 C 82.8337,186.491 81.8337,188.824 79.5,190.5C 79.9348,187.843 80.9348,185.509 82.5,183.5 Z"/></g>
<g><path style="opacity:0.659" fill="#7d7d7d" d="M 417.5,183.5 C 419.065,185.509 420.065,187.843 420.5,190.5C 418.166,188.824 417.166,186.491 417.5,183.5 Z"/></g>
<g><path style="opacity:0.078" fill="#656565" d="M 348.5,188.5 C 349.906,188.973 350.573,189.973 350.5,191.5C 349.094,191.027 348.427,190.027 348.5,188.5 Z"/></g>
<g><path style="opacity:0.075" fill="#838383" d="M 149.5,191.5 C 149.573,193.027 148.906,194.027 147.5,194.5C 147.427,192.973 148.094,191.973 149.5,191.5 Z"/></g>
<g><path style="opacity:0.412" fill="#858585" d="M 420.5,191.5 C 421.924,193.515 422.59,195.848 422.5,198.5C 421.076,196.485 420.41,194.152 420.5,191.5 Z"/></g>
<g><path style="opacity:0.145" fill="#717171" d="M 351.5,193.5 C 353.104,194.287 353.771,195.62 353.5,197.5C 352.326,196.486 351.66,195.153 351.5,193.5 Z"/></g>
<g><path style="opacity:0.319" fill="#787878" d="M 79.5,191.5 C 79.4035,194.956 78.4035,198.123 76.5,201C 55.8095,201.213 35.1429,201.713 14.5,202.5C 15.2625,201.732 16.2625,201.232 17.5,201C 26.1749,200.633 34.8416,200.133 43.5,199.5C 54.1546,200.512 64.8213,200.679 75.5,200C 76.9478,197.124 78.2811,194.291 79.5,191.5 Z"/></g>
<g><path style="opacity:0.276" fill="#8d8d8d" d="M 422.5,198.5 C 423.289,198.783 423.956,199.283 424.5,200C 443.833,200.333 463.167,200.667 482.5,201C 483.737,201.232 484.737,201.732 485.5,202.5C 464.848,201.752 444.181,201.252 423.5,201C 422.748,200.329 422.414,199.496 422.5,198.5 Z"/></g>
<g><path style="opacity:0.925" fill="#a6a6a6" d="M 485.5,202.5 C 488.198,202.845 490.198,204.178 491.5,206.5C 488.634,206.367 486.634,205.034 485.5,202.5 Z"/></g>
<g><path style="opacity:0.145" fill="#6c6c6c" d="M 356.5,203.5 C 357.931,204.78 358.598,206.447 358.5,208.5C 357.069,207.22 356.402,205.553 356.5,203.5 Z"/></g>
<g><path style="opacity:0.69" fill="#a3a3a3" d="M 491.5,206.5 C 493.587,207.585 494.92,209.251 495.5,211.5C 493.413,210.415 492.08,208.749 491.5,206.5 Z"/></g>
<g><path style="opacity:0.161" fill="#6f6f6f" d="M 145.5,198.5 C 143.344,204.973 141.011,211.307 138.5,217.5C 139.47,210.581 141.804,204.248 145.5,198.5 Z"/></g>
<g><path style="opacity:0.2" fill="#727272" d="M 358.5,208.5 C 360.472,211.084 361.472,214.084 361.5,217.5C 359.928,214.785 358.928,211.785 358.5,208.5 Z"/></g>
<g><path style="opacity:0.178" fill="#7d7d7d" d="M 138.5,217.5 C 135.687,230.674 134.353,244.008 134.5,257.5C 132.395,243.842 133.728,230.508 138.5,217.5 Z"/></g>
<g><path style="opacity:0.432" fill="#969696" d="M 498.5,226.5 C 498.176,233.354 498.509,240.021 499.5,246.5C 499.5,248.167 499.5,249.833 499.5,251.5C 498.167,252.167 498.167,252.833 499.5,253.5C 499.5,261.5 499.5,269.5 499.5,277.5C 499.167,277.5 498.833,277.5 498.5,277.5C 497.76,260.268 497.76,243.268 498.5,226.5 Z"/></g>
<g><path style="opacity:0.259" fill="#767676" d="M 362.5,221.5 C 364.423,226.199 365.59,231.199 366,236.5C 366.667,244.5 366.667,252.5 366,260.5C 365.802,262.382 365.302,264.048 364.5,265.5C 365.922,250.745 365.256,236.078 362.5,221.5 Z"/></g>
<g><path style="opacity:0.776" fill="#8f8f8f" d="M 364.5,266.5 C 364.665,269.518 364.498,272.518 364,275.5C 363.617,276.056 363.117,276.389 362.5,276.5C 362.753,272.96 363.419,269.627 364.5,266.5 Z"/></g>
<g><path style="opacity:0.345" fill="#858585" d="M 134.5,258.5 C 135.763,264.659 136.763,270.992 137.5,277.5C 135.306,271.493 134.306,265.16 134.5,258.5 Z"/></g>
<g><path style="opacity:0.404" fill="#787878" d="M 362.5,276.5 C 362.568,280.57 361.568,284.237 359.5,287.5C 360.055,283.603 361.055,279.937 362.5,276.5 Z"/></g>
<g><path style="opacity:0.165" fill="#676767" d="M 1.5,221.5 C 1.33339,240.17 1.50005,258.836 2,277.5C 2.56704,280.168 3.06704,282.834 3.5,285.5C 1.98912,283.524 1.15579,281.191 1,278.5C 0.171073,259.329 0.33774,240.329 1.5,221.5 Z"/></g>
<g><path style="opacity:0.506" fill="#8c8c8c" d="M 138.5,281.5 C 140.204,284.939 141.538,288.605 142.5,292.5C 140.01,289.374 138.677,285.708 138.5,281.5 Z"/></g>
<g><path style="opacity:0.686" fill="#888888" d="M 359.5,287.5 C 359.248,291.327 357.915,294.66 355.5,297.5C 356.263,293.863 357.597,290.53 359.5,287.5 Z"/></g>
<g><path style="opacity:0.345" fill="#838383" d="M 7.5,291.5 C 9.40435,291.738 10.7377,292.738 11.5,294.5C 9.59565,294.262 8.26231,293.262 7.5,291.5 Z"/></g>
<g><path style="opacity:0.208" fill="#959595" d="M 488.5,294.5 C 486.574,296.293 484.241,297.293 481.5,297.5C 483.32,295.552 485.654,294.552 488.5,294.5 Z"/></g>
<g><path style="opacity:0.569" fill="#7e7e7e" d="M 20.5,297.5 C 39.8333,297.5 59.1667,297.5 78.5,297.5C 79.1667,301.5 79.8333,305.5 80.5,309.5C 78.6035,306.495 77.2702,303.162 76.5,299.5C 57.6711,298.833 39.0044,298.167 20.5,297.5 Z"/></g>
<g><path style="opacity:0.808" fill="#9a9a9a" d="M 422.5,301.5 C 420.738,308.127 418.405,314.461 415.5,320.5C 415.338,318.473 415.505,316.473 416,314.5C 417.498,309.765 419.664,305.431 422.5,301.5 Z"/></g>
<g><path style="opacity:0.169" fill="#7b7b7b" d="M 149.5,307.5 C 150.906,307.973 151.573,308.973 151.5,310.5C 150.094,310.027 149.427,309.027 149.5,307.5 Z"/></g>
<g><path style="opacity:0.863" fill="#a1a1a1" d="M 351.5,305.5 C 351.408,307.848 350.408,309.514 348.5,310.5C 348.75,308.326 349.75,306.659 351.5,305.5 Z"/></g>
<g><path style="opacity:0.447" fill="#8a8a8a" d="M 80.5,309.5 C 82.6545,311.617 83.6545,314.284 83.5,317.5C 81.7329,315.208 80.7329,312.542 80.5,309.5 Z"/></g>
<g><path style="opacity:0.157" fill="#6a6a6a" d="M 348.5,310.5 C 348.573,312.027 347.906,313.027 346.5,313.5C 346.427,311.973 347.094,310.973 348.5,310.5 Z"/></g>
<g><path style="opacity:0.188" fill="#727272" d="M 346.5,313.5 C 346.155,316.198 344.822,318.198 342.5,319.5C 343.34,317.147 344.674,315.147 346.5,313.5 Z"/></g>
<g><path style="opacity:0.337" fill="#7a7a7a" d="M 157.5,319.5 C 159.262,320.262 160.262,321.596 160.5,323.5C 158.738,322.738 157.738,321.404 157.5,319.5 Z"/></g>
<g><path style="opacity:0.62" fill="#7b7b7b" d="M 160.5,323.5 C 164.5,326.833 168.167,330.5 171.5,334.5C 166.833,331.833 163.167,328.167 160.5,323.5 Z"/></g>
<g><path style="opacity:0.165" fill="#848484" d="M 415.5,320.5 C 413.245,326.177 410.578,331.677 407.5,337C 408.252,337.671 408.586,338.504 408.5,339.5C 406.727,338.686 406.227,337.352 407,335.5C 409.354,330.113 412.188,325.113 415.5,320.5 Z"/></g>
<g><path style="opacity:0.173" fill="#989898" d="M 83.5,317.5 C 86.8442,323.178 90.0109,329.178 93,335.5C 94.0769,338.262 93.2436,339.928 90.5,340.5C 91.1408,339.518 91.8075,338.518 92.5,337.5C 88.9335,331.038 85.9335,324.371 83.5,317.5 Z"/></g>
<g><path style="opacity:0.008" fill="#8a8a8a" d="M 174.5,337.5 C 176.754,338.124 178.421,339.457 179.5,341.5C 177.205,340.864 175.539,339.531 174.5,337.5 Z"/></g>
<g><path style="opacity:0.616" fill="#a1a1a1" d="M 335.5,327.5 C 332.5,332.5 328.5,336.5 323.5,339.5C 327.167,335.167 331.167,331.167 335.5,327.5 Z"/></g>
<g><path style="opacity:0.733" fill="#969696" d="M 179.5,341.5 C 181.754,342.124 183.421,343.457 184.5,345.5C 182.205,344.864 180.539,343.531 179.5,341.5 Z"/></g>
<g><path style="opacity:0.012" fill="#6d6d6d" d="M 186.5,346.5 C 188.027,346.427 189.027,347.094 189.5,348.5C 187.973,348.573 186.973,347.906 186.5,346.5 Z"/></g>
<g><path style="opacity:0.357" fill="#9d9d9d" d="M 315.5,345.5 C 314.514,347.408 312.848,348.408 310.5,348.5C 311.659,346.75 313.326,345.75 315.5,345.5 Z"/></g>
<g><path style="opacity:0.576" fill="#959595" d="M 415.5,346.5 C 417.5,347.833 419.167,349.5 420.5,351.5C 417.833,350.833 416.167,349.167 415.5,346.5 Z"/></g>
<g><path style="opacity:0.667" fill="#a2a2a2" d="M 90.5,340.5 C 87.8333,345.167 84.1667,348.833 79.5,351.5C 82.8333,347.5 86.5,343.833 90.5,340.5 Z"/></g>
<g><path style="opacity:0.012" fill="#6d6d6d" d="M 191.5,349.5 C 193.027,349.427 194.027,350.094 194.5,351.5C 192.973,351.573 191.973,350.906 191.5,349.5 Z"/></g>
<g><path style="opacity:0.659" fill="#a2a2a2" d="M 79.5,351.5 C 76.5,356.5 72.5,360.5 67.5,363.5C 71.1667,359.167 75.1667,355.167 79.5,351.5 Z"/></g>
<g><path style="opacity:0.576" fill="#9a9a9a" d="M 299.5,354.5 C 298.942,355.79 297.942,356.623 296.5,357C 290.002,359.557 283.335,361.39 276.5,362.5C 284.081,359.861 291.748,357.194 299.5,354.5 Z"/></g>
<g><path style="opacity:0.161" fill="#7e7e7e" d="M 207.5,357.5 C 209.553,357.402 211.22,358.069 212.5,359.5C 210.447,359.598 208.78,358.931 207.5,357.5 Z"/></g>
<g><path style="opacity:0.319" fill="#9f9f9f" d="M 223.5,362.5 C 232.281,363.857 241.114,364.857 250,365.5C 258.875,364.769 267.708,363.769 276.5,362.5C 274.981,363.41 273.315,364.243 271.5,365C 256.117,367.147 240.783,366.814 225.5,364C 224.584,363.722 223.918,363.222 223.5,362.5 Z"/></g>
<g><path style="opacity:0.651" fill="#a1a1a1" d="M 67.5,363.5 C 66.5,366.5 64.5,368.5 61.5,369.5C 63.1667,367.167 65.1667,365.167 67.5,363.5 Z"/></g>
<g><path style="opacity:0.204" fill="#595959" d="M 58.5,372.5 C 57.1667,374.5 55.5,376.167 53.5,377.5C 54.1667,374.833 55.8333,373.167 58.5,372.5 Z"/></g>
<g><path style="opacity:0.412" fill="#767676" d="M 445.5,376.5 C 446.906,376.973 447.573,377.973 447.5,379.5C 446.094,379.027 445.427,378.027 445.5,376.5 Z"/></g>
<g><path style="opacity:0.784" fill="#9a9a9a" d="M 53.5,377.5 C 53.1199,380.745 51.9532,383.745 50,386.5C 49.5017,389.817 49.335,393.15 49.5,396.5C 47.3844,389.469 48.7178,383.135 53.5,377.5 Z"/></g>
<g><path style="opacity:0.114" fill="#6f6f6f" d="M 448.5,380.5 C 449.793,381.842 450.626,383.509 451,385.5C 451.81,389.358 451.643,393.024 450.5,396.5C 450.813,392.958 450.479,389.625 449.5,386.5C 448.85,384.565 448.517,382.565 448.5,380.5 Z"/></g>
<g><path style="opacity:0.839" fill="#c0c0c0" d="M 449.5,386.5 C 450.479,389.625 450.813,392.958 450.5,396.5C 450.539,399.089 449.539,401.089 447.5,402.5C 448.969,397.284 449.635,391.95 449.5,386.5 Z"/></g>
<g><path style="opacity:0.443" fill="#a8a8a8" d="M 49.5,396.5 C 51.2451,398.033 52.2451,400.033 52.5,402.5C 50.461,401.089 49.461,399.089 49.5,396.5 Z"/></g>
<g><path style="opacity:0.212" fill="#6b6b6b" d="M 54.5,406.5 C 57.0892,407.419 59.0892,409.086 60.5,411.5C 57.9108,410.581 55.9108,408.914 54.5,406.5 Z"/></g>
<g><path style="opacity:0.153" fill="#818181" d="M 339.5,407.5 C 333.73,409.551 328.063,411.884 322.5,414.5C 326.371,411.553 330.704,409.053 335.5,407C 337.066,406.235 338.399,406.402 339.5,407.5 Z"/></g>
<g><path style="opacity:0.753" fill="#a3a3a3" d="M 169.5,410.5 C 172.393,410.031 174.393,411.031 175.5,413.5C 173.181,413.008 171.181,412.008 169.5,410.5 Z"/></g>
<g><path style="opacity:0.631" fill="#a7a7a7" d="M 60.5,411.5 C 63.1667,412.167 64.8333,413.833 65.5,416.5C 63.5,415.167 61.8333,413.5 60.5,411.5 Z"/></g>
<g><path style="opacity:0.671" fill="#9f9f9f" d="M 175.5,413.5 C 178.491,413.166 180.824,414.166 182.5,416.5C 179.843,416.065 177.509,415.065 175.5,413.5 Z"/></g>
<g><path style="opacity:0.478" fill="#a0a0a0" d="M 321.5,414.5 C 319.819,416.008 317.819,417.008 315.5,417.5C 316.607,415.031 318.607,414.031 321.5,414.5 Z"/></g>
<g><path style="opacity:0.541" fill="#8f8f8f" d="M 182.5,416.5 C 188.767,417.922 194.767,419.922 200.5,422.5C 194.085,421.473 188.085,419.473 182.5,416.5 Z"/></g>
<g><path style="opacity:0.631" fill="#acacac" d="M 65.5,416.5 C 67.0898,416.628 68.4231,417.295 69.5,418.5C 71.7337,420.381 73.067,422.715 73.5,425.5C 70.8621,422.526 68.1954,419.526 65.5,416.5 Z"/></g>
<g><path style="opacity:0.2" fill="#5e5e5e" d="M 348.5,417.5 C 351.833,418.167 353.833,420.167 354.5,423.5C 352.167,421.833 350.167,419.833 348.5,417.5 Z"/></g>
<g><path style="opacity:0.367" fill="#737373" d="M 303.5,421.5 C 301.374,422.126 299.707,423.459 298.5,425.5C 299.698,443.189 299.698,460.855 298.5,478.5C 297.372,459.865 297.205,441.198 298,422.5C 299.699,421.594 301.533,421.261 303.5,421.5 Z"/></g>
<g><path style="opacity:0.176" fill="#7c7c7c" d="M 73.5,425.5 C 75.0269,425.427 76.0269,426.094 76.5,427.5C 74.9731,427.573 73.9731,426.906 73.5,425.5 Z"/></g>
<g><path style="opacity:0.208" fill="#5f5f5f" d="M 357.5,426.5 C 360.5,427.5 362.5,429.5 363.5,432.5C 361.167,430.833 359.167,428.833 357.5,426.5 Z"/></g>
<g><path style="opacity:0.647" fill="#808080" d="M 76.5,427.5 C 80.3998,430.391 84.0665,433.725 87.5,437.5C 88.3857,438.325 88.719,439.325 88.5,440.5C 83.7923,436.793 79.7923,432.46 76.5,427.5 Z"/></g>
<g><path style="opacity:0.204" fill="#606060" d="M 363.5,432.5 C 366.089,433.419 368.089,435.086 369.5,437.5C 366.911,436.581 364.911,434.914 363.5,432.5 Z"/></g>
<g><path style="opacity:0.461" fill="#acacac" d="M 200.5,422.5 C 201.831,430.305 202.498,438.472 202.5,447C 202.5,455.34 202.166,463.507 201.5,471.5C 201.5,456.167 201.5,440.833 201.5,425.5C 200.89,424.609 200.557,423.609 200.5,422.5 Z"/></g>
<g><path style="opacity:0.808" fill="#9f9f9f" d="M 88.5,440.5 C 91.179,440.525 92.5123,441.858 92.5,444.5C 90.8333,443.5 89.5,442.167 88.5,440.5 Z"/></g>
<g><path style="opacity:0.012" fill="#6e6e6e" d="M 410.5,440.5 C 410.573,442.027 409.906,443.027 408.5,443.5C 408.427,441.973 409.094,440.973 410.5,440.5 Z"/></g>
<g><path style="opacity:0.259" fill="#929292" d="M 407.5,444.5 C 405.777,446.218 403.777,447.551 401.5,448.5C 402.446,445.687 404.446,444.354 407.5,444.5 Z"/></g>
<g><path style="opacity:0.012" fill="#727272" d="M 119.5,447.5 C 119.027,448.906 118.027,449.573 116.5,449.5C 116.973,448.094 117.973,447.427 119.5,447.5 Z"/></g>
<g><path style="opacity:0.443" fill="#959595" d="M 381.5,448.5 C 388.167,449.833 394.833,449.833 401.5,448.5C 394.846,452.497 388.179,452.497 381.5,448.5 Z"/></g>
<g><path style="opacity:0.082" fill="#5f5f5f" d="M 116.5,449.5 C 114.321,450.926 111.821,451.592 109,451.5C 107.293,451.492 105.793,451.158 104.5,450.5C 108.519,450.354 112.519,450.021 116.5,449.5 Z"/></g>
<g><path style="opacity:0.039" fill="#3b3b3b" d="M 201.5,425.5 C 201.5,440.833 201.5,456.167 201.5,471.5C 201.574,477.796 202.908,483.796 205.5,489.5C 202.962,486.755 201.462,483.422 201,479.5C 200.171,461.329 200.338,443.329 201.5,425.5 Z"/></g>
<g><path style="opacity:0.635" fill="#a3a3a3" d="M 298.5,478.5 C 298.457,483.244 296.79,487.244 293.5,490.5C 294.655,486.203 296.321,482.203 298.5,478.5 Z"/></g>
<g><path style="opacity:0.639" fill="#a7a7a7" d="M 207.5,491.5 C 209.749,492.08 211.415,493.413 212.5,495.5C 210.251,494.92 208.585,493.587 207.5,491.5 Z"/></g>
<g><path style="opacity:0.659" fill="#a5a5a5" d="M 287.5,495.5 C 284.916,497.472 281.916,498.472 278.5,498.5C 281.084,496.528 284.084,495.528 287.5,495.5 Z"/></g>
<g><path style="opacity:0.29" fill="#aaaaaa" d="M 212.5,495.5 C 214.655,495.372 216.655,495.872 218.5,497C 236.338,497.168 254.005,497.668 271.5,498.5C 264.313,498.175 257.313,498.509 250.5,499.5C 250.167,499.5 249.833,499.5 249.5,499.5C 239.008,498.67 228.341,498.17 217.5,498C 215.509,497.626 213.842,496.793 212.5,495.5 Z"/></g>
</svg>
