<?xml version="1.0" encoding="UTF-8"?>
<!DOCTYPE svg PUBLIC "-//W3C//DTD SVG 1.1//EN" "http://www.w3.org/Graphics/SVG/1.1/DTD/svg11.dtd">
<svg xmlns="http://www.w3.org/2000/svg" version="1.1" width="500px" height="500px" style="shape-rendering:geometricPrecision; text-rendering:geometricPrecision; image-rendering:optimizeQuality; fill-rule:evenodd; clip-rule:evenodd" xmlns:xlink="http://www.w3.org/1999/xlink">
<g><path style="opacity:0.386" fill="#ababab" d="M 215.5,-0.5 C 238.167,-0.5 260.833,-0.5 283.5,-0.5C 285.076,0.142944 286.41,1.14294 287.5,2.5C 286.833,2.5 286.167,2.5 285.5,2.5C 283.485,1.07619 281.152,0.409526 278.5,0.5C 256.807,0.210834 235.14,0.544167 213.5,1.5C 214.167,0.833333 214.833,0.166667 215.5,-0.5 Z"/></g>
<g><path style="opacity:1" fill="#010101" d="M 278.5,0.5 C 280.515,1.92381 282.848,2.59047 285.5,2.5C 286.167,2.5 286.833,2.5 287.5,2.5C 287.973,3.90632 288.973,4.57298 290.5,4.5C 290.5,6.5 291.5,7.5 293.5,7.5C 293.896,10.721 295.229,13.3877 297.5,15.5C 298.108,35.9848 298.774,56.3181 299.5,76.5C 301.214,77.7384 303.214,78.405 305.5,78.5C 310.238,79.6983 314.905,81.1983 319.5,83C 325.104,86.141 330.771,88.9744 336.5,91.5C 340.122,92.9392 342.456,91.6058 343.5,87.5C 345.833,84.5 348.5,81.8333 351.5,79.5C 352.239,79.631 352.906,79.4643 353.5,79C 360.428,72.5772 366.762,65.7438 372.5,58.5C 375.194,55.1395 378.194,52.1395 381.5,49.5C 383.565,49.4828 385.565,49.1495 387.5,48.5C 393.727,47.8121 399.393,49.1454 404.5,52.5C 418.5,66.1667 432.5,79.8333 446.5,93.5C 446.427,95.0269 447.094,96.0269 448.5,96.5C 451.525,104.396 451.025,112.063 447,119.5C 436.661,130.672 426.161,141.672 415.5,152.5C 414.761,152.369 414.094,152.536 413.5,153C 410.976,155.446 408.643,158.112 406.5,161C 407.644,164.807 409.644,167.973 412.5,170.5C 412.12,172.698 412.787,174.365 414.5,175.5C 414.755,177.967 415.755,179.967 417.5,181.5C 417.259,183.898 417.926,185.898 419.5,187.5C 420.167,190.833 420.833,194.167 421.5,197.5C 421.33,198.822 421.663,199.989 422.5,201C 441.164,201.5 459.83,201.667 478.5,201.5C 484.319,201.58 489.319,203.58 493.5,207.5C 493.738,209.404 494.738,210.738 496.5,211.5C 496.5,212.833 496.5,214.167 496.5,215.5C 497.049,226.655 497.716,237.655 498.5,248.5C 498.5,258.167 498.5,267.833 498.5,277.5C 497.023,285.603 492.69,291.769 485.5,296C 464.536,297.416 443.536,297.916 422.5,297.5C 422.322,300.216 421.822,302.883 421,305.5C 418.179,312.124 415.679,318.791 413.5,325.5C 412.326,326.514 411.66,327.847 411.5,329.5C 409.992,331.181 408.992,333.181 408.5,335.5C 406.656,336.204 406.156,337.537 407,339.5C 419.471,350.97 431.638,362.804 443.5,375C 444.094,375.464 444.761,375.631 445.5,375.5C 445.427,377.027 446.094,378.027 447.5,378.5C 447.427,380.027 448.094,381.027 449.5,381.5C 452.255,391.674 450.255,400.674 443.5,408.5C 443.5,409.167 443.167,409.5 442.5,409.5C 435.854,414.146 430.188,419.812 425.5,426.5C 419.167,430.833 413.833,436.167 409.5,442.5C 407.772,444.226 405.772,445.559 403.5,446.5C 399.681,448.44 395.681,449.773 391.5,450.5C 387.76,450.124 384.094,449.457 380.5,448.5C 379.738,446.738 378.404,445.738 376.5,445.5C 375.5,445.167 374.833,444.5 374.5,443.5C 369.833,436.833 364.167,431.167 357.5,426.5C 351.847,418.847 345.18,412.18 337.5,406.5C 327.292,412.272 316.625,416.939 305.5,420.5C 302.801,420.466 300.301,421.133 298,422.5C 297.171,440.338 297.338,458.005 298.5,475.5C 297.801,484.843 293.467,491.843 285.5,496.5C 274.008,497.026 262.675,497.693 251.5,498.5C 238.416,498.964 225.416,498.298 212.5,496.5C 206.767,491.688 203.1,485.688 201.5,478.5C 201.5,459.833 201.5,441.167 201.5,422.5C 200.5,422.5 199.5,422.5 198.5,422.5C 192.097,419.642 185.43,417.309 178.5,415.5C 176.967,413.755 174.967,412.755 172.5,412.5C 170.853,410.674 168.853,409.34 166.5,408.5C 165.833,408.5 165.167,408.5 164.5,408.5C 163.686,406.727 162.352,406.227 160.5,407C 148.605,418.393 137.271,430.227 126.5,442.5C 125.833,443.833 124.833,444.833 123.5,445.5C 120.243,446.462 117.243,447.962 114.5,450C 108.685,450.789 103.019,450.289 97.5,448.5C 96.7377,446.738 95.4044,445.738 93.5,445.5C 93.1436,443.81 92.1436,442.81 90.5,442.5C 88.8333,438.833 86.1667,436.167 82.5,434.5C 80.5,430.5 77.5,427.5 73.5,425.5C 68.1667,418.167 61.8333,411.833 54.5,406.5C 54.2671,404.938 53.6005,403.605 52.5,402.5C 48.5063,394.87 48.5063,387.204 52.5,379.5C 66.1728,365.494 79.8395,351.494 93.5,337.5C 91.1712,333.649 89.0045,329.649 87,325.5C 84.138,316.921 80.9713,308.588 77.5,300.5C 77.5858,299.504 77.2524,298.671 76.5,298C 56.1694,297.5 35.8361,297.333 15.5,297.5C 14.4863,296.326 13.153,295.66 11.5,295.5C 6.81553,291.465 3.64886,286.465 2,280.5C 1.50005,260.503 1.33338,240.503 1.5,220.5C 2.92381,218.485 3.59047,216.152 3.5,213.5C 3.5,212.833 3.5,212.167 3.5,211.5C 6.29709,209.205 8.96376,206.705 11.5,204C 13.087,203.138 14.7536,202.471 16.5,202C 36.8584,202.157 56.8584,201.324 76.5,199.5C 80.2057,191.397 83.539,183.064 86.5,174.5C 87.8897,173.101 88.8897,171.434 89.5,169.5C 89.5,169.167 89.5,168.833 89.5,168.5C 93.3373,165.702 94.3373,162.036 92.5,157.5C 91.5832,156.873 90.5832,156.539 89.5,156.5C 77.5,144.833 65.5,133.167 53.5,121.5C 52.8717,118.91 51.705,116.577 50,114.5C 49.3742,108.805 49.5409,103.138 50.5,97.5C 64.9376,82.5617 79.6043,67.7284 94.5,53C 100.193,49.0358 106.527,47.5358 113.5,48.5C 119.227,50.3621 123.893,53.6955 127.5,58.5C 128.5,61.5 130.5,63.5 133.5,64.5C 134.5,64.8333 135.167,65.5 135.5,66.5C 136.167,69.1667 137.833,70.8333 140.5,71.5C 142.139,75.1387 144.805,77.8054 148.5,79.5C 150.139,83.1387 152.805,85.8054 156.5,87.5C 156.833,87.5 157.167,87.5 157.5,87.5C 158.167,88.8333 159.167,89.8333 160.5,90.5C 161.601,91.5983 162.934,91.765 164.5,91C 170.465,88.6842 176.132,85.8509 181.5,82.5C 187.977,79.9315 194.644,77.9315 201.5,76.5C 201.5,57.8333 201.5,39.1667 201.5,20.5C 202.924,18.4855 203.59,16.1522 203.5,13.5C 203.5,12.8333 203.5,12.1667 203.5,11.5C 206.5,7.83333 209.833,4.5 213.5,1.5C 235.14,0.544167 256.807,0.210834 278.5,0.5 Z M 363.5,267.5 C 363.5,267.833 363.5,268.167 363.5,268.5C 353.693,311.639 328.359,341.639 287.5,358.5C 265.006,365.394 242.339,366.061 219.5,360.5C 171.536,344.619 143.702,311.619 136,261.5C 135.5,253.507 135.334,245.507 135.5,237.5C 143.084,187.876 170.751,155.043 218.5,139C 267.727,127.52 308.56,141.02 341,179.5C 360.348,205.719 367.848,235.053 363.5,267.5 Z"/></g>
<g><path style="opacity:0.898" fill="#3f3f3f" d="M 278.5,0.5 C 281.152,0.409526 283.485,1.07619 285.5,2.5C 282.848,2.59047 280.515,1.92381 278.5,0.5 Z"/></g>
<g><path style="opacity:0.114" fill="#c3c3c3" d="M 287.5,2.5 C 289.027,2.42702 290.027,3.09368 290.5,4.5C 288.973,4.57298 287.973,3.90632 287.5,2.5 Z"/></g>
<g><path style="opacity:0.745" fill="#919191" d="M 290.5,4.5 C 292.19,4.85637 293.19,5.85637 293.5,7.5C 291.5,7.5 290.5,6.5 290.5,4.5 Z"/></g>
<g><path style="opacity:0.373" fill="#bababa" d="M 213.5,1.5 C 209.833,4.5 206.5,7.83333 203.5,11.5C 205.167,6.5 208.5,3.16667 213.5,1.5 Z"/></g>
<g><path style="opacity:0.816" fill="#707070" d="M 293.5,7.5 C 295.822,8.80214 297.155,10.8021 297.5,13.5C 297.5,14.1667 297.5,14.8333 297.5,15.5C 295.229,13.3877 293.896,10.721 293.5,7.5 Z"/></g>
<g><path style="opacity:0.063" fill="#e5e5e5" d="M 203.5,11.5 C 203.5,12.1667 203.5,12.8333 203.5,13.5C 202.833,14.1667 202.167,14.8333 201.5,15.5C 201.229,13.6203 201.896,12.287 203.5,11.5 Z"/></g>
<g><path style="opacity:0.624" fill="#686868" d="M 203.5,13.5 C 203.59,16.1522 202.924,18.4855 201.5,20.5C 201.5,19.1667 201.5,17.8333 201.5,16.5C 201.5,16.1667 201.5,15.8333 201.5,15.5C 202.167,14.8333 202.833,14.1667 203.5,13.5 Z"/></g>
<g><path style="opacity:0.171" fill="#d1d1d1" d="M 297.5,13.5 C 298.29,14.6085 298.79,15.9419 299,17.5C 299.5,36.8305 299.667,56.1638 299.5,75.5C 301.099,75.2322 302.432,75.5655 303.5,76.5C 302.167,76.5 300.833,76.5 299.5,76.5C 298.774,56.3181 298.108,35.9848 297.5,15.5C 297.5,14.8333 297.5,14.1667 297.5,13.5 Z"/></g>
<g><path style="opacity:0.204" fill="#cccccc" d="M 201.5,16.5 C 201.5,17.8333 201.5,19.1667 201.5,20.5C 201.5,39.1667 201.5,57.8333 201.5,76.5C 194.644,77.9315 187.977,79.9315 181.5,82.5C 180.833,82.5 180.167,82.5 179.5,82.5C 186.085,79.1937 193.085,76.8604 200.5,75.5C 200.17,55.6596 200.503,35.9929 201.5,16.5 Z"/></g>
<g><path style="opacity:0.122" fill="#d6d6d6" d="M 396.5,47.5 C 393.287,47.19 390.287,47.5233 387.5,48.5C 385.565,49.1495 383.565,49.4828 381.5,49.5C 382.842,48.207 384.509,47.3736 386.5,47C 390.027,46.1925 393.36,46.3592 396.5,47.5 Z"/></g>
<g><path style="opacity:0.239" fill="#c9c9c9" d="M 113.5,48.5 C 113.5,48.1667 113.5,47.8333 113.5,47.5C 120.692,49.0886 126.025,53.0886 129.5,59.5C 128.833,59.1667 128.167,58.8333 127.5,58.5C 123.893,53.6955 119.227,50.3621 113.5,48.5 Z"/></g>
<g><path style="opacity:0.518" fill="#999999" d="M 387.5,48.5 C 390.287,47.5233 393.287,47.19 396.5,47.5C 399.754,47.7936 402.421,49.127 404.5,51.5C 404.5,51.8333 404.5,52.1667 404.5,52.5C 399.393,49.1454 393.727,47.8121 387.5,48.5 Z"/></g>
<g><path style="opacity:0.004" fill="#d8d8d8" d="M 404.5,52.5 C 404.5,52.1667 404.5,51.8333 404.5,51.5C 418.748,64.2447 432.581,77.578 446,91.5C 446.464,92.0944 446.631,92.7611 446.5,93.5C 432.5,79.8333 418.5,66.1667 404.5,52.5 Z"/></g>
<g><path style="opacity:0.949" fill="#404040" d="M 127.5,58.5 C 128.167,58.8333 128.833,59.1667 129.5,59.5C 130.833,61.1667 132.167,62.8333 133.5,64.5C 130.5,63.5 128.5,61.5 127.5,58.5 Z"/></g>
<g><path style="opacity:0.012" fill="#dddddd" d="M 129.5,59.5 C 136.167,64.1667 141.833,69.8333 146.5,76.5C 144.5,74.8333 142.5,73.1667 140.5,71.5C 139.167,69.5 137.5,67.8333 135.5,66.5C 135.167,65.5 134.5,64.8333 133.5,64.5C 132.167,62.8333 130.833,61.1667 129.5,59.5 Z"/></g>
<g><path style="opacity:0.384" fill="#c3c3c3" d="M 113.5,47.5 C 113.5,47.8333 113.5,48.1667 113.5,48.5C 106.527,47.5358 100.193,49.0358 94.5,53C 79.6043,67.7284 64.9376,82.5617 50.5,97.5C 51.412,95.4048 52.5787,93.4048 54,91.5C 67.1667,78.3333 80.3333,65.1667 93.5,52C 99.5567,47.0205 106.223,45.5205 113.5,47.5 Z"/></g>
<g><path style="opacity:0.937" fill="#414141" d="M 135.5,66.5 C 137.5,67.8333 139.167,69.5 140.5,71.5C 137.833,70.8333 136.167,69.1667 135.5,66.5 Z"/></g>
<g><path style="opacity:0.984" fill="#383838" d="M 372.5,58.5 C 366.762,65.7438 360.428,72.5772 353.5,79C 352.906,79.4643 352.239,79.631 351.5,79.5C 358.167,72.1667 365.167,65.1667 372.5,58.5 Z"/></g>
<g><path style="opacity:0.929" fill="#3b3b3b" d="M 140.5,71.5 C 142.5,73.1667 144.5,74.8333 146.5,76.5C 147.167,77.5 147.833,78.5 148.5,79.5C 144.805,77.8054 142.139,75.1387 140.5,71.5 Z"/></g>
<g><path style="opacity:0.012" fill="#dedede" d="M 146.5,76.5 C 148.5,76.5 149.5,77.5 149.5,79.5C 149.167,79.5 148.833,79.5 148.5,79.5C 147.833,78.5 147.167,77.5 146.5,76.5 Z"/></g>
<g><path style="opacity:0.459" fill="#676767" d="M 299.5,76.5 C 300.833,76.5 302.167,76.5 303.5,76.5C 304.167,77.1667 304.833,77.8333 305.5,78.5C 303.214,78.405 301.214,77.7384 299.5,76.5 Z"/></g>
<g><path style="opacity:0.404" fill="#c4c4c4" d="M 381.5,49.5 C 378.194,52.1395 375.194,55.1395 372.5,58.5C 365.167,65.1667 358.167,72.1667 351.5,79.5C 348.5,81.8333 345.833,84.5 343.5,87.5C 341.637,89.7053 339.303,91.0387 336.5,91.5C 330.771,88.9744 325.104,86.141 319.5,83C 314.905,81.1983 310.238,79.6983 305.5,78.5C 304.833,77.8333 304.167,77.1667 303.5,76.5C 315.486,79.49 326.819,84.1567 337.5,90.5C 350.653,77.8475 363.653,65.0141 376.5,52C 378.078,50.9055 379.745,50.0722 381.5,49.5 Z"/></g>
<g><path style="opacity:0.012" fill="#dddddd" d="M 149.5,79.5 C 151.5,79.5 152.5,80.5 152.5,82.5C 151.167,81.8333 150.167,80.8333 149.5,79.5 Z"/></g>
<g><path style="opacity:0.929" fill="#3c3c3c" d="M 148.5,79.5 C 148.833,79.5 149.167,79.5 149.5,79.5C 150.167,80.8333 151.167,81.8333 152.5,82.5C 152.833,83.5 153.5,84.1667 154.5,84.5C 155.167,85.5 155.833,86.5 156.5,87.5C 152.805,85.8054 150.139,83.1387 148.5,79.5 Z"/></g>
<g><path style="opacity:0.012" fill="#dfdfdf" d="M 152.5,82.5 C 153.833,82.5 154.5,83.1667 154.5,84.5C 153.5,84.1667 152.833,83.5 152.5,82.5 Z"/></g>
<g><path style="opacity:0.757" fill="#999999" d="M 179.5,82.5 C 180.167,82.5 180.833,82.5 181.5,82.5C 176.132,85.8509 170.465,88.6842 164.5,91C 162.934,91.765 161.601,91.5983 160.5,90.5C 166.908,88.133 173.241,85.4664 179.5,82.5 Z"/></g>
<g><path style="opacity:0.004" fill="#dedede" d="M 154.5,84.5 C 156.5,84.5 157.5,85.5 157.5,87.5C 157.167,87.5 156.833,87.5 156.5,87.5C 155.833,86.5 155.167,85.5 154.5,84.5 Z"/></g>
<g><path style="opacity:0.004" fill="#dfdfdf" d="M 157.5,87.5 C 159.5,87.5 160.5,88.5 160.5,90.5C 159.167,89.8333 158.167,88.8333 157.5,87.5 Z"/></g>
<g><path style="opacity:0.976" fill="#434343" d="M 343.5,87.5 C 342.456,91.6058 340.122,92.9392 336.5,91.5C 339.303,91.0387 341.637,89.7053 343.5,87.5 Z"/></g>
<g><path style="opacity:0.369" fill="#bababa" d="M 446.5,93.5 C 447.906,93.9731 448.573,94.9731 448.5,96.5C 447.094,96.0269 446.427,95.0269 446.5,93.5 Z"/></g>
<g><path style="opacity:0.635" fill="#adadad" d="M 50.5,97.5 C 49.5409,103.138 49.3742,108.805 50,114.5C 51.705,116.577 52.8717,118.91 53.5,121.5C 48.1627,116.309 46.3294,109.975 48,102.5C 48.3736,100.509 49.207,98.842 50.5,97.5 Z"/></g>
<g><path style="opacity:0.059" fill="#d5d5d5" d="M 53.5,121.5 C 65.5,133.167 77.5,144.833 89.5,156.5C 90.9076,157.911 91.9076,159.577 92.5,161.5C 92.5466,163.038 91.8799,164.038 90.5,164.5C 91.0283,163.153 91.195,161.819 91,160.5C 77.911,147.914 65.411,134.914 53.5,121.5 Z"/></g>
<g><path style="opacity:0.6" fill="#5e5e5e" d="M 269.5,134.5 C 256.167,133.167 242.833,133.167 229.5,134.5C 235.936,133.013 242.602,132.346 249.5,132.5C 256.398,132.346 263.064,133.013 269.5,134.5 Z"/></g>
<g><path style="opacity:0.027" fill="#d0d0d0" d="M 448.5,96.5 C 449.79,97.0577 450.623,98.0577 451,99.5C 453.553,108.404 451.886,116.404 446,123.5C 435.965,133.702 425.798,143.702 415.5,153.5C 415.5,153.167 415.5,152.833 415.5,152.5C 426.161,141.672 436.661,130.672 447,119.5C 451.025,112.063 451.525,104.396 448.5,96.5 Z"/></g>
<g><path style="opacity:1" fill="#3e3e3e" d="M 89.5,156.5 C 90.5832,156.539 91.5832,156.873 92.5,157.5C 94.3373,162.036 93.3373,165.702 89.5,168.5C 89.5,167.833 89.5,167.167 89.5,166.5C 89.3284,165.508 89.6618,164.842 90.5,164.5C 91.8799,164.038 92.5466,163.038 92.5,161.5C 91.9076,159.577 90.9076,157.911 89.5,156.5 Z"/></g>
<g><path style="opacity:0.596" fill="#ababab" d="M 415.5,152.5 C 415.5,152.833 415.5,153.167 415.5,153.5C 413.189,156.147 410.856,158.814 408.5,161.5C 410.12,164.404 411.453,167.404 412.5,170.5C 409.644,167.973 407.644,164.807 406.5,161C 408.643,158.112 410.976,155.446 413.5,153C 414.094,152.536 414.761,152.369 415.5,152.5 Z"/></g>
<g><path style="opacity:0.059" fill="#dadada" d="M 89.5,166.5 C 89.5,167.167 89.5,167.833 89.5,168.5C 89.5,168.833 89.5,169.167 89.5,169.5C 88.8333,169.833 88.1667,170.167 87.5,170.5C 87.2291,168.62 87.8958,167.287 89.5,166.5 Z"/></g>
<g><path style="opacity:0.69" fill="#7e7e7e" d="M 89.5,169.5 C 88.8897,171.434 87.8897,173.101 86.5,174.5C 86.5,173.833 86.5,173.167 86.5,172.5C 86.3284,171.508 86.6618,170.842 87.5,170.5C 88.1667,170.167 88.8333,169.833 89.5,169.5 Z"/></g>
<g><path style="opacity:0.694" fill="#a8a8a8" d="M 412.5,170.5 C 413.931,171.78 414.598,173.447 414.5,175.5C 412.787,174.365 412.12,172.698 412.5,170.5 Z"/></g>
<g><path style="opacity:0.145" fill="#d1d1d1" d="M 414.5,175.5 C 416.539,176.911 417.539,178.911 417.5,181.5C 415.755,179.967 414.755,177.967 414.5,175.5 Z"/></g>
<g><path style="opacity:0.604" fill="#b3b3b3" d="M 86.5,172.5 C 86.5,173.167 86.5,173.833 86.5,174.5C 83.539,183.064 80.2057,191.397 76.5,199.5C 78.6671,189.991 82.0004,180.991 86.5,172.5 Z"/></g>
<g><path style="opacity:0.486" fill="#c2c2c2" d="M 417.5,181.5 C 418.738,183.214 419.405,185.214 419.5,187.5C 417.926,185.898 417.259,183.898 417.5,181.5 Z"/></g>
<g><path style="opacity:0.231" fill="#bdbdbd" d="M 269.5,134.5 C 323.917,146.753 356.083,180.42 366,235.5C 366.755,245.201 366.588,254.868 365.5,264.5C 364.833,265.5 364.167,266.5 363.5,267.5C 367.848,235.053 360.348,205.719 341,179.5C 308.56,141.02 267.727,127.52 218.5,139C 170.751,155.043 143.084,187.876 135.5,237.5C 135.5,234.833 135.5,232.167 135.5,229.5C 142.146,194.032 160.812,166.866 191.5,148C 203.345,141.218 216.012,136.718 229.5,134.5C 242.833,133.167 256.167,133.167 269.5,134.5 Z"/></g>
<g><path style="opacity:0.455" fill="#bcbcbc" d="M 419.5,187.5 C 421.806,191.085 423.139,195.085 423.5,199.5C 422.833,198.833 422.167,198.167 421.5,197.5C 420.833,194.167 420.167,190.833 419.5,187.5 Z"/></g>
<g><path style="opacity:0.106" fill="#bebebe" d="M 76.5,199.5 C 56.8584,201.324 36.8584,202.157 16.5,202C 14.7536,202.471 13.087,203.138 11.5,204C 8.96376,206.705 6.29709,209.205 3.5,211.5C 6.47496,205.699 11.1416,201.866 17.5,200C 37.1638,199.5 56.8305,199.333 76.5,199.5 Z"/></g>
<g><path style="opacity:0.11" fill="#e4e4e4" d="M 423.5,199.5 C 442.836,199.333 462.17,199.5 481.5,200C 486.746,200.775 490.746,203.275 493.5,207.5C 489.319,203.58 484.319,201.58 478.5,201.5C 460.167,200.833 441.833,200.167 423.5,199.5 Z"/></g>
<g><path style="opacity:0.593" fill="#6d6d6d" d="M 421.5,197.5 C 422.167,198.167 422.833,198.833 423.5,199.5C 441.833,200.167 460.167,200.833 478.5,201.5C 459.83,201.667 441.164,201.5 422.5,201C 421.663,199.989 421.33,198.822 421.5,197.5 Z"/></g>
<g><path style="opacity:0.447" fill="#c3c3c3" d="M 493.5,207.5 C 495.262,208.262 496.262,209.596 496.5,211.5C 494.738,210.738 493.738,209.404 493.5,207.5 Z"/></g>
<g><path style="opacity:0.294" fill="#d7d7d7" d="M 3.5,211.5 C 3.5,212.167 3.5,212.833 3.5,213.5C 2.83333,214.5 2.16667,215.5 1.5,216.5C 1.12012,214.302 1.78679,212.635 3.5,211.5 Z"/></g>
<g><path style="opacity:0.733" fill="#565656" d="M 3.5,213.5 C 3.59047,216.152 2.92381,218.485 1.5,220.5C 1.5,219.167 1.5,217.833 1.5,216.5C 2.16667,215.5 2.83333,214.5 3.5,213.5 Z"/></g>
<g><path style="opacity:0.726" fill="#3e3e3e" d="M 496.5,215.5 C 497.222,215.918 497.722,216.584 498,217.5C 498.5,227.828 498.666,238.161 498.5,248.5C 497.716,237.655 497.049,226.655 496.5,215.5 Z"/></g>
<g><path style="opacity:0.575" fill="#6d6d6d" d="M 135.5,229.5 C 135.5,232.167 135.5,234.833 135.5,237.5C 134.509,244.313 134.175,251.313 134.5,258.5C 133.835,255.016 133.501,251.349 133.5,247.5C 133.38,241.267 134.047,235.267 135.5,229.5 Z"/></g>
<g><path style="opacity:0.211" fill="#c3c3c3" d="M 496.5,211.5 C 497.687,213.072 498.687,214.739 499.5,216.5C 499.5,238.5 499.5,260.5 499.5,282.5C 499.167,282.5 498.833,282.5 498.5,282.5C 498.5,280.833 498.5,279.167 498.5,277.5C 498.5,267.833 498.5,258.167 498.5,248.5C 498.666,238.161 498.5,227.828 498,217.5C 497.722,216.584 497.222,215.918 496.5,215.5C 496.5,214.167 496.5,212.833 496.5,211.5 Z"/></g>
<g><path style="opacity:0.248" fill="#c2c2c2" d="M 1.5,216.5 C 1.5,217.833 1.5,219.167 1.5,220.5C 1.33338,240.503 1.50005,260.503 2,280.5C 3.64886,286.465 6.81553,291.465 11.5,295.5C 6.02651,292.851 2.52651,288.517 1,282.5C 0.17047,260.329 0.337136,238.329 1.5,216.5 Z"/></g>
<g><path style="opacity:0.475" fill="#7b7b7b" d="M 365.5,264.5 C 365.324,267.727 364.657,270.727 363.5,273.5C 363.5,271.833 363.5,270.167 363.5,268.5C 363.5,268.167 363.5,267.833 363.5,267.5C 364.167,266.5 364.833,265.5 365.5,264.5 Z"/></g>
<g><path style="opacity:0.098" fill="#dedede" d="M 11.5,295.5 C 13.153,295.66 14.4863,296.326 15.5,297.5C 13.6203,297.771 12.287,297.104 11.5,295.5 Z"/></g>
<g><path style="opacity:0.387" fill="#bbbbbb" d="M 498.5,277.5 C 498.5,279.167 498.5,280.833 498.5,282.5C 496.546,289.962 491.879,295.128 484.5,298C 464.207,299.427 443.874,299.927 423.5,299.5C 421.525,308.768 418.192,317.435 413.5,325.5C 415.679,318.791 418.179,312.124 421,305.5C 421.822,302.883 422.322,300.216 422.5,297.5C 443.536,297.916 464.536,297.416 485.5,296C 492.69,291.769 497.023,285.603 498.5,277.5 Z"/></g>
<g><path style="opacity:0.03" fill="#dddddd" d="M 15.5,297.5 C 35.8361,297.333 56.1694,297.5 76.5,298C 77.2524,298.671 77.5858,299.504 77.5,300.5C 77.5,301.167 77.5,301.833 77.5,302.5C 76.596,301.791 76.2627,300.791 76.5,299.5C 58.1636,299.667 39.8303,299.5 21.5,299C 19.2922,298.809 17.2922,298.309 15.5,297.5 Z"/></g>
<g><path style="opacity:0.075" fill="#c2c2c2" d="M 135.5,237.5 C 135.334,245.507 135.5,253.507 136,261.5C 143.702,311.619 171.536,344.619 219.5,360.5C 218.167,360.5 216.833,360.5 215.5,360.5C 184.598,350.431 161.431,331.098 146,302.5C 139.512,288.623 135.679,273.956 134.5,258.5C 134.175,251.313 134.509,244.313 135.5,237.5 Z"/></g>
<g><path style="opacity:0.106" fill="#d8d8d8" d="M 413.5,325.5 C 413.771,327.38 413.104,328.713 411.5,329.5C 411.66,327.847 412.326,326.514 413.5,325.5 Z"/></g>
<g><path style="opacity:0.129" fill="#d7d7d7" d="M 411.5,329.5 C 411.539,332.089 410.539,334.089 408.5,335.5C 408.992,333.181 409.992,331.181 411.5,329.5 Z"/></g>
<g><path style="opacity:0.353" fill="#c1c1c1" d="M 363.5,268.5 C 363.5,270.167 363.5,271.833 363.5,273.5C 354.757,310.454 333.424,337.62 299.5,355C 295.577,356.463 291.577,357.63 287.5,358.5C 328.359,341.639 353.693,311.639 363.5,268.5 Z"/></g>
<g><path style="opacity:0.471" fill="#b5b5b5" d="M 408.5,335.5 C 408.351,336.552 408.517,337.552 409,338.5C 421.369,350.702 433.535,363.035 445.5,375.5C 444.761,375.631 444.094,375.464 443.5,375C 431.638,362.804 419.471,350.97 407,339.5C 406.156,337.537 406.656,336.204 408.5,335.5 Z"/></g>
<g><path style="opacity:0.486" fill="#ababab" d="M 77.5,300.5 C 80.9713,308.588 84.138,316.921 87,325.5C 89.0045,329.649 91.1712,333.649 93.5,337.5C 79.8395,351.494 66.1728,365.494 52.5,379.5C 52.1667,379.5 51.8333,379.5 51.5,379.5C 51.369,378.761 51.5357,378.094 52,377.5C 65.3475,364.319 78.5141,350.986 91.5,337.5C 85.4299,326.365 80.7632,314.698 77.5,302.5C 77.5,301.833 77.5,301.167 77.5,300.5 Z"/></g>
<g><path style="opacity:0.533" fill="#6e6e6e" d="M 215.5,360.5 C 216.833,360.5 218.167,360.5 219.5,360.5C 220.167,361.167 220.833,361.833 221.5,362.5C 219.102,362.741 217.102,362.074 215.5,360.5 Z"/></g>
<g><path style="opacity:0.267" fill="#bfbfbf" d="M 287.5,358.5 C 280.052,362.198 272.052,364.365 263.5,365C 249.333,366.229 235.333,365.396 221.5,362.5C 220.833,361.833 220.167,361.167 219.5,360.5C 242.339,366.061 265.006,365.394 287.5,358.5 Z"/></g>
<g><path style="opacity:0.259" fill="#cdcdcd" d="M 445.5,375.5 C 446.906,375.973 447.573,376.973 447.5,378.5C 446.094,378.027 445.427,377.027 445.5,375.5 Z"/></g>
<g><path style="opacity:0.231" fill="#cecece" d="M 447.5,378.5 C 448.906,378.973 449.573,379.973 449.5,381.5C 448.094,381.027 447.427,380.027 447.5,378.5 Z"/></g>
<g><path style="opacity:0.62" fill="#989898" d="M 51.5,379.5 C 51.8333,379.5 52.1667,379.5 52.5,379.5C 48.5063,387.204 48.5063,394.87 52.5,402.5C 51.8333,402.167 51.1667,401.833 50.5,401.5C 46.2763,393.884 46.6096,386.55 51.5,379.5 Z"/></g>
<g><path style="opacity:0.498" fill="#b8b8b8" d="M 449.5,381.5 C 453.646,390.664 452.48,399.33 446,407.5C 445.329,408.252 444.496,408.586 443.5,408.5C 450.255,400.674 452.255,391.674 449.5,381.5 Z"/></g>
<g><path style="opacity:0.055" fill="#cfcfcf" d="M 50.5,401.5 C 51.1667,401.833 51.8333,402.167 52.5,402.5C 53.6005,403.605 54.2671,404.938 54.5,406.5C 52.4131,405.415 51.0798,403.749 50.5,401.5 Z"/></g>
<g><path style="opacity:0.725" fill="#9f9f9f" d="M 54.5,406.5 C 61.8333,411.833 68.1667,418.167 73.5,425.5C 66.8333,419.5 60.5,413.167 54.5,406.5 Z"/></g>
<g><path style="opacity:0.157" fill="#dadada" d="M 164.5,408.5 C 165.167,408.5 165.833,408.5 166.5,408.5C 166.833,409.167 167.167,409.833 167.5,410.5C 165.973,410.573 164.973,409.906 164.5,408.5 Z"/></g>
<g><path style="opacity:0.639" fill="#9a9a9a" d="M 166.5,408.5 C 168.853,409.34 170.853,410.674 172.5,412.5C 170.597,412.204 168.93,411.537 167.5,410.5C 167.167,409.833 166.833,409.167 166.5,408.5 Z"/></g>
<g><path style="opacity:0.31" fill="#b2b2b2" d="M 357.5,426.5 C 350.869,420.369 344.369,414.036 338,407.5C 326.914,414.294 315.081,419.294 302.5,422.5C 303.5,421.833 304.5,421.167 305.5,420.5C 316.625,416.939 327.292,412.272 337.5,406.5C 345.18,412.18 351.847,418.847 357.5,426.5 Z"/></g>
<g><path style="opacity:0.153" fill="#b8b8b8" d="M 442.5,409.5 C 437.119,415.548 431.452,421.215 425.5,426.5C 430.188,419.812 435.854,414.146 442.5,409.5 Z"/></g>
<g><path style="opacity:0.294" fill="#c6c6c6" d="M 172.5,412.5 C 174.967,412.755 176.967,413.755 178.5,415.5C 176.033,415.245 174.033,414.245 172.5,412.5 Z"/></g>
<g><path style="opacity:0.639" fill="#b0b0b0" d="M 178.5,415.5 C 185.43,417.309 192.097,419.642 198.5,422.5C 198.167,422.5 197.833,422.5 197.5,422.5C 190.736,421.136 184.402,418.803 178.5,415.5 Z"/></g>
<g><path style="opacity:0.644" fill="#616161" d="M 305.5,420.5 C 304.5,421.167 303.5,421.833 302.5,422.5C 301.791,423.404 300.791,423.737 299.5,423.5C 298.503,440.659 298.17,457.992 298.5,475.5C 297.338,458.005 297.171,440.338 298,422.5C 300.301,421.133 302.801,420.466 305.5,420.5 Z"/></g>
<g><path style="opacity:0.149" fill="#adadad" d="M 164.5,408.5 C 163.504,408.586 162.671,408.252 162,407.5C 150.298,419.369 138.465,431.035 126.5,442.5C 137.271,430.227 148.605,418.393 160.5,407C 162.352,406.227 163.686,406.727 164.5,408.5 Z"/></g>
<g><path style="opacity:0.62" fill="#999999" d="M 73.5,425.5 C 77.5,427.5 80.5,430.5 82.5,434.5C 79.1667,431.833 76.1667,428.833 73.5,425.5 Z"/></g>
<g><path style="opacity:0.631" fill="#9e9e9e" d="M 357.5,426.5 C 364.167,431.167 369.833,436.833 374.5,443.5C 368.5,438.167 362.833,432.5 357.5,426.5 Z"/></g>
<g><path style="opacity:0.176" fill="#b0b0b0" d="M 425.5,426.5 C 420.5,432.167 415.167,437.5 409.5,442.5C 413.833,436.167 419.167,430.833 425.5,426.5 Z"/></g>
<g><path style="opacity:0.62" fill="#9b9b9b" d="M 82.5,434.5 C 86.1667,436.167 88.8333,438.833 90.5,442.5C 87.5,440.167 84.8333,437.5 82.5,434.5 Z"/></g>
<g><path style="opacity:0.183" fill="#d4d4d4" d="M 197.5,422.5 C 197.833,422.5 198.167,422.5 198.5,422.5C 199.5,422.5 200.5,422.5 201.5,422.5C 201.5,441.167 201.5,459.833 201.5,478.5C 201.5,479.833 201.5,481.167 201.5,482.5C 200.503,463.007 200.17,443.34 200.5,423.5C 199.209,423.737 198.209,423.404 197.5,422.5 Z"/></g>
<g><path style="opacity:0.004" fill="#b8b8b8" d="M 90.5,442.5 C 92.1436,442.81 93.1436,443.81 93.5,445.5C 91.8564,445.19 90.8564,444.19 90.5,442.5 Z"/></g>
<g><path style="opacity:0.514" fill="#bdbdbd" d="M 93.5,445.5 C 95.4044,445.738 96.7377,446.738 97.5,448.5C 95.5956,448.262 94.2623,447.262 93.5,445.5 Z"/></g>
<g><path style="opacity:0.376" fill="#c2c2c2" d="M 376.5,445.5 C 378.404,445.738 379.738,446.738 380.5,448.5C 378.596,448.262 377.262,447.262 376.5,445.5 Z"/></g>
<g><path style="opacity:0.055" fill="#dddddd" d="M 409.5,442.5 C 408.221,445.652 405.888,447.652 402.5,448.5C 402.833,447.833 403.167,447.167 403.5,446.5C 405.772,445.559 407.772,444.226 409.5,442.5 Z"/></g>
<g><path style="opacity:0.435" fill="#afafaf" d="M 123.5,445.5 C 121.422,448.051 118.756,449.884 115.5,451C 110.833,451.667 106.167,451.667 101.5,451C 99.9336,450.392 98.6002,449.558 97.5,448.5C 103.019,450.289 108.685,450.789 114.5,450C 117.243,447.962 120.243,446.462 123.5,445.5 Z"/></g>
<g><path style="opacity:0.445" fill="#a6a6a6" d="M 403.5,446.5 C 403.167,447.167 402.833,447.833 402.5,448.5C 399.362,450.961 395.695,451.961 391.5,451.5C 387.305,451.961 383.638,450.961 380.5,448.5C 384.094,449.457 387.76,450.124 391.5,450.5C 395.681,449.773 399.681,448.44 403.5,446.5 Z"/></g>
<g><path style="opacity:0.38" fill="#aeaeae" d="M 201.5,478.5 C 203.1,485.688 206.767,491.688 212.5,496.5C 206.6,493.599 202.933,488.932 201.5,482.5C 201.5,481.167 201.5,479.833 201.5,478.5 Z"/></g>
<g><path style="opacity:0.165" fill="#c3c3c3" d="M 299.5,423.5 C 299.667,442.503 299.5,461.503 299,480.5C 297.639,488.691 293.139,494.357 285.5,497.5C 285.5,497.167 285.5,496.833 285.5,496.5C 293.467,491.843 297.801,484.843 298.5,475.5C 298.17,457.992 298.503,440.659 299.5,423.5 Z"/></g>
<g><path style="opacity:0.675" fill="#545454" d="M 285.5,496.5 C 285.5,496.833 285.5,497.167 285.5,497.5C 274.198,498.41 262.864,498.743 251.5,498.5C 262.675,497.693 274.008,497.026 285.5,496.5 Z"/></g>
<g><path style="opacity:0.152" fill="#d6d6d6" d="M 212.5,496.5 C 225.416,498.298 238.416,498.964 251.5,498.5C 262.864,498.743 274.198,498.41 285.5,497.5C 284.5,498.167 283.5,498.833 282.5,499.5C 260.833,499.5 239.167,499.5 217.5,499.5C 215.739,498.687 214.072,497.687 212.5,496.5 Z"/></g>
</svg>
