<?xml version="1.0" encoding="UTF-8"?>
<svg version="1.1" xmlns="http://www.w3.org/2000/svg" width="346" height="346">
<path d="M0 0 C6.21319231 3.34883416 11.40804237 8.08558585 16.22907257 13.19689083 C17.9336231 14.93241688 19.69818076 16.49681315 21.55358887 18.0684967 C26.75618782 22.58925293 31.59335878 27.46084609 36.45507812 32.34155273 C37.48066056 33.36741784 38.50646442 34.39306161 39.5324707 35.41850281 C42.29448212 38.18022937 45.05341702 40.94501038 47.81177711 43.71038318 C50.70340072 46.60829242 53.59788955 49.50333705 56.49206543 52.3986969 C61.96203601 57.87176551 67.42945423 63.34737638 72.89594221 68.82392317 C79.12376611 75.06295585 85.35445726 81.29912178 91.58538151 87.5350579 C104.39342958 100.35353573 117.19790302 113.17557882 130 126 C135.95269535 121.06653775 141.39845877 115.73056918 146.84741211 110.25024414 C147.82044951 109.27528389 148.79371756 108.30055378 149.76719666 107.32603455 C151.85130189 105.23878552 153.93384746 103.14999746 156.01518059 101.05998421 C159.31264141 97.74891469 162.6139902 94.44173981 165.91590881 91.13511658 C173.52091874 83.5181012 181.1208982 75.8960731 188.72081757 68.27397919 C195.68802901 61.28653998 202.65632208 54.30018844 209.62868887 47.31789297 C212.90448077 44.03714696 216.17782544 40.75398522 219.44925869 37.46889317 C221.49226074 35.41838098 223.5373782 33.36998838 225.58304787 31.32213783 C226.96917226 29.93327809 228.35277175 28.5418998 229.73626709 27.15042114 C234.14517261 22.74114662 238.60994802 18.47491484 243.35622501 14.42922115 C245.55909771 12.51387855 247.55731486 10.43183231 249.5625 8.3125 C254.72082747 3.16296014 258.72598206 -0.0999078 266.25 -0.75 C277.86763557 -0.22768123 287.12800096 11.37772628 294.62158203 19.43554688 C300.02475438 25.56794652 303.54748783 31.0631085 303.3828125 39.296875 C302.11655756 48.23818541 293.49993115 54.73361872 287.31640625 60.69140625 C285.05632961 62.89612122 282.96069197 65.17130756 280.91612244 67.57629395 C276.50957556 72.63888384 271.77914905 77.35315869 267.02563477 82.08789062 C266.03917801 83.07406467 265.05294265 84.06046023 264.06690979 85.04705811 C261.41261756 87.70163506 258.75527255 90.35313623 256.09733319 93.00406075 C253.31153166 95.78357428 250.528597 98.56595532 247.74534607 101.34802246 C242.48477351 106.60549768 237.22165901 111.86042046 231.95760721 117.11441183 C225.96040686 123.10040126 219.96607512 129.08925983 213.97197258 135.07835102 C201.65115186 147.38874354 189.32676619 159.69556092 177 172 C181.80165409 177.78189376 186.96226453 183.09208992 192.29077148 188.38842773 C193.69718957 189.79260428 195.10360752 191.19678097 196.51002038 192.60096276 C198.01040958 194.09799811 199.51203888 195.59377915 201.01403618 197.08920097 C204.15708497 200.21863303 207.29623175 203.35196008 210.43482971 206.4858551 C217.66481706 213.70384066 224.89981823 220.91679369 232.1348877 228.12968445 C238.76776178 234.74232617 245.39954518 241.35605222 252.02727181 247.97385365 C255.14075912 251.08238948 258.25666056 254.18847795 261.37449825 257.2926501 C262.84998203 258.76243819 264.32429068 260.23339321 265.7980957 261.7048645 C267.58576994 263.489695 269.37521955 265.27275003 271.16688538 267.05357361 C275.4352813 271.32159354 279.55366054 275.65252006 283.46919346 280.24777317 C286.05774803 283.21074377 288.87370817 285.9404648 291.6875 288.6875 C303.02564278 299.76227129 303.02564278 299.76227129 303.4375 307.625 C303.27845914 318.5988195 292.80664888 327.31094497 285.4453125 334.4921875 C278.10872077 341.29358713 273.03877773 345.41174133 262.74609375 345.53125 C255.68865454 344.1659417 250.9256431 338.13902046 246.125 333.1875 C244.77603842 331.80344983 243.42448115 330.42192469 242.0703125 329.04296875 C241.48008301 328.43477295 240.88985352 327.82657715 240.28173828 327.19995117 C238.39384177 325.37972482 236.47371327 323.68265333 234.48214722 321.98016357 C229.43766638 317.57524013 224.72824704 312.86070894 220.00390625 308.11743164 C219.0275843 307.14082697 218.05104082 306.16444372 217.07429504 305.18826294 C214.44657671 302.56082929 211.82193395 299.9303433 209.19786835 297.29926229 C206.44638234 294.54148767 203.69202824 291.78658051 200.93798828 289.03135681 C195.7336369 283.82390826 190.53183797 278.61391787 185.33097076 273.4029898 C179.40543996 267.46624752 173.47703953 261.53237434 167.5484066 255.59873021 C155.36242798 243.40232378 143.18002457 231.20235244 131 219 C125.49106656 223.58945694 120.39746939 228.47123362 115.34594727 233.55639648 C114.50921478 234.39458923 113.6724823 235.23278198 112.81039429 236.09637451 C110.53380262 238.37774091 108.25942023 240.66128319 105.98586392 242.9456737 C103.5934401 245.3481468 101.19771863 247.74732641 98.80223083 250.14674377 C92.20348376 256.75748591 85.60977302 263.37324387 79.01612854 269.98907471 C72.97079895 276.05464516 66.92438005 282.11911932 60.87388271 288.17953545 C58.49567177 290.56188733 56.11853888 292.94529429 53.74392891 295.33123589 C51.09269527 297.99449165 48.43838554 300.65464699 45.78344727 303.31420898 C45.00969254 304.09313004 44.23593781 304.87205109 43.43873596 305.67457581 C39.32501798 309.78868947 35.12676639 313.73290935 30.70575619 317.51599789 C28.31606384 319.59502214 26.11085804 321.82879397 23.90625 324.1015625 C23.02066406 325.00390625 22.13507813 325.90625 21.22265625 326.8359375 C19.40364297 328.69931695 17.58854767 330.56652895 15.77734375 332.4375 C4.30887891 344.08959383 4.30887891 344.08959383 -2.9765625 345.62890625 C-8.89618847 345.48047905 -12.38763946 345.02354856 -17 341 C-18.13888672 340.01580078 -18.13888672 340.01580078 -19.30078125 339.01171875 C-41.2859758 319.69544008 -41.2859758 319.69544008 -42.23828125 310.765625 C-42.41154287 304.89296791 -41.86092719 300.61797174 -38 296 C-35.3738075 293.24083573 -32.70109709 290.57551519 -29.94921875 287.94140625 C-27.82404823 285.87755333 -25.880805 283.72601879 -23.96202087 281.46960449 C-19.42703583 276.26327496 -14.54783387 271.41528741 -9.65844727 266.54492188 C-8.63258216 265.51933944 -7.60693839 264.49353558 -6.58149719 263.4675293 C-3.81977063 260.70551788 -1.05498962 257.94658298 1.71038318 255.18822289 C4.60829242 252.29659928 7.50333705 249.40211045 10.3986969 246.50793457 C15.87176551 241.03796399 21.34737638 235.57054577 26.82392317 230.10405779 C33.06295585 223.87623389 39.29912178 217.64554274 45.5350579 211.41461849 C58.35353573 198.60657042 71.17557882 185.80209698 84 173 C79.14554749 167.14980653 73.91489357 161.78539724 68.52563477 156.42797852 C67.5802307 155.48449748 66.63505691 154.54078567 65.69009399 153.59686279 C63.66668802 151.57659974 61.64174358 149.55789645 59.61557198 147.54040718 C56.40531495 144.34376357 53.19895688 141.14322786 49.9931488 137.94212341 C42.60835022 130.56932814 35.21853828 123.20156454 27.82865906 115.8338623 C21.05395895 109.07939267 14.28034829 102.32383981 7.5107941 95.56421226 C4.3304033 92.38877402 1.14759771 89.2157831 -2.03714168 86.04470646 C-4.02537838 84.06398262 -6.01149297 82.08114098 -7.9970665 80.0977478 C-9.34298541 78.75456267 -10.69142311 77.41390291 -12.03996277 76.073349 C-16.36063282 71.7530517 -20.53443165 67.37336177 -24.49701023 62.72097683 C-27.3767117 59.42361606 -30.56559148 56.42889965 -33.72460938 53.40234375 C-38.96471968 48.27777414 -42.73303961 43.60837104 -43 36 C-41.59775079 23.84717354 -26.85426883 11.66958039 -17.78515625 4.16796875 C-12.16967427 0.04836569 -6.84666148 -1.30683165 0 0 Z " fill="#FAFAFA" transform="translate(43,1)"/>
</svg>
