<?xml version="1.0" encoding="UTF-8"?>
<svg version="1.1" xmlns="http://www.w3.org/2000/svg" width="346" height="346">
<path d="M0 0 C0.8971875 -0.00773438 1.794375 -0.01546875 2.71875 -0.0234375 C14.99138483 1.73472086 24.77769938 15.50939163 33.10009766 23.86157227 C34.22449594 24.98625336 35.34911592 26.11071284 36.47393799 27.23497009 C39.49615261 30.25690039 42.51529633 33.28188132 45.53385592 36.30746198 C48.70039687 39.48029775 51.86981186 42.65026007 55.03890991 45.82054138 C61.02588813 51.81061498 67.01031493 57.80323075 72.99380624 63.7967872 C79.81174582 70.62594392 86.63255995 77.45222655 93.45360494 84.27828133 C107.47224793 98.30734805 121.48731646 112.33998095 135.5 126.375 C142.05192246 120.989665 147.97332675 115.01476711 153.93969727 109.0012207 C155.08344848 107.85226869 156.22744738 106.7035632 157.37167358 105.55508423 C159.82400775 103.09285419 162.27486406 100.62916597 164.7246418 98.16439247 C168.60038355 94.26548611 172.48109072 90.37154769 176.36277771 86.4785614 C187.39617667 75.41180879 198.42533837 64.3408575 209.4440918 53.25952148 C215.53826396 47.13082015 221.63778522 41.00749588 227.74330562 34.89009923 C231.60212661 31.02318819 235.45428879 27.14980207 239.30167973 23.27152026 C241.69646593 20.86071445 244.09753565 18.45624476 246.50043869 16.05353165 C247.61162766 14.93992372 248.72024432 13.8237421 249.82605171 12.70479012 C251.33842338 11.17519703 252.85984507 9.6551973 254.38380432 8.13716125 C255.23198007 7.28492131 256.08015581 6.43268137 256.95403385 5.55461597 C261.23276392 1.89157103 265.2269582 -0.05421841 270.875 -0.0625 C271.74898438 -0.08183594 272.62296875 -0.10117188 273.5234375 -0.12109375 C282.77944199 1.42157367 288.43361173 7.69615378 294.75 14.125 C295.63429688 14.99382813 296.51859375 15.86265625 297.4296875 16.7578125 C302.91318308 22.27444098 307.57600877 27.23848182 308.99609375 35.1328125 C308.97675781 35.91398437 308.95742188 36.69515625 308.9375 37.5 C308.93556641 38.67949219 308.93556641 38.67949219 308.93359375 39.8828125 C306.87048382 51.74104798 293.76566448 61.25648677 285.67529297 69.32910156 C284.62109151 70.38466197 283.56710204 71.44043412 282.51330566 72.49639893 C279.68106545 75.33315315 276.84572561 78.16678932 274.00963354 80.99969196 C271.02722292 83.97954952 268.04727704 86.96187036 265.06692505 89.94378662 C260.06740762 94.94511636 255.0658012 99.94434969 250.06298828 104.94238281 C244.29262546 110.70729588 238.52588573 116.47581437 232.7609967 122.2462008 C227.79189232 127.21985246 222.82083033 132.19154121 217.8481456 137.16161323 C214.88645738 140.12174871 211.92543406 143.0825408 208.96618271 146.04511261 C206.18587435 148.82832351 203.40310451 151.60905026 200.61846924 154.38793182 C199.60139819 155.4036884 198.58516265 156.42028243 197.56985855 157.43780518 C192.37766278 162.64029441 187.16644111 167.69016389 181.5 172.375 C186.90728826 178.86374592 192.5975188 184.89732918 199.01849365 190.39427185 C204.06531574 194.80414303 208.78814178 199.51549328 213.52441406 204.25415039 C214.50411671 205.23085402 215.48402167 206.20735476 216.46411133 207.18367004 C219.1025993 209.81339548 221.73790391 212.44628799 224.37233448 215.08007741 C226.02148625 216.72851496 227.67134947 218.37623701 229.32146454 220.02371025 C235.08629746 225.77931976 240.84857028 231.53747786 246.60839844 237.2980957 C251.96617612 242.65647536 257.32952117 248.00923751 262.69547486 253.35942847 C267.31579869 257.9666656 271.93224756 262.57776131 276.54571319 267.19186586 C279.29549746 269.94190452 282.04679618 272.69038397 284.80200958 275.43498421 C287.39038131 278.01365438 289.9738808 280.59710936 292.55377197 283.18426323 C293.94752631 284.57955601 295.34621105 285.96991842 296.74505615 287.36010742 C308.54884643 299.2231671 308.54884643 299.2231671 308.8125 308.0625 C308.84988281 308.87074219 308.88726562 309.67898438 308.92578125 310.51171875 C307.56114388 319.68859204 301.07576919 325.40988567 294.75 331.625 C293.88117188 332.50929688 293.01234375 333.39359375 292.1171875 334.3046875 C286.59944541 339.78929 281.66200341 344.35460398 273.8125 345.90625 C273.049375 345.8959375 272.28625 345.885625 271.5 345.875 C270.3553125 345.89046875 270.3553125 345.89046875 269.1875 345.90625 C259.32723934 343.95712871 253.13670884 336.55520999 246.39257812 329.72167969 C245.19030283 328.51827484 243.98714355 327.31575259 242.78317261 326.11404419 C239.53093254 322.86294799 236.2911414 319.5997002 233.05349922 316.33407497 C229.6627714 312.91827906 226.26065174 309.51386757 222.85974121 306.10821533 C216.42749237 299.66355263 210.00550493 293.20876496 203.58717108 286.75024724 C196.27703741 279.39534648 188.95549192 272.05185089 181.6329813 264.70927572 C166.57595127 249.61047737 151.53325903 234.4974639 136.5 219.375 C130.02125509 224.707218 124.15099219 230.60355105 118.24389648 236.54931641 C117.11984091 237.67693353 115.99554641 238.80431252 114.87103271 239.93147278 C112.46121162 242.34781481 110.05290926 244.76565665 107.64575005 247.18465042 C103.83678515 251.01199128 100.02340314 254.83491059 96.20924377 258.65707397 C85.36789819 269.52251026 74.53250763 280.39387374 63.70141602 291.26953125 C57.71084749 297.28467064 51.71667232 303.29619265 45.71862847 309.30387819 C41.92859856 313.10043717 38.14311299 316.90145144 34.3609637 320.70586038 C32.00608723 323.07248943 29.64701825 325.4349045 27.28675842 327.79616356 C26.19580092 328.88926326 25.10655911 329.98407849 24.01919746 331.08075523 C22.53083845 332.58136642 21.03635946 334.07561545 19.54026794 335.56851196 C18.70684089 336.40508142 17.87341383 337.24165089 17.01473141 338.10357094 C12.01866491 342.61626386 7.60370632 345.48493655 0.8125 345.6875 C0.00425781 345.72488281 -0.80398437 345.76226562 -1.63671875 345.80078125 C-10.50798061 344.48158951 -16.27586744 338.31478625 -22.33813477 332.22314453 C-23.80848567 330.754011 -25.30573688 329.31673031 -26.80664062 327.87890625 C-33.15737568 321.64672605 -37.40452663 316.05023493 -37.53540039 306.89990234 C-36.95073598 301.72744779 -35.13750668 298.58452774 -31.62001038 294.79898071 C-30.40249682 293.48842146 -30.40249682 293.48842146 -29.16038704 292.15138626 C-24.44716261 287.23265401 -19.65502296 282.39959783 -14.82983398 277.59130859 C-13.68544872 276.44720612 -12.54128503 275.30288198 -11.39732361 274.15835571 C-8.32167613 271.08242384 -5.24297722 268.00956329 -2.16367984 264.9372859 C1.06520978 261.71468991 4.29122709 258.48922103 7.51756287 255.2640686 C13.61388449 249.17084269 19.71274845 243.08016819 25.81255239 236.99042857 C32.76262527 230.05157175 39.709825 223.10984134 46.65679657 216.16787982 C60.93469189 201.90040901 75.2161534 187.63651254 89.5 173.375 C84.114665 166.82307754 78.13976711 160.90167325 72.1262207 154.93530273 C70.97726869 153.79155152 69.8285632 152.64755262 68.68008423 151.50332642 C66.21785419 149.05099225 63.75416597 146.60013594 61.28939247 144.1503582 C57.39048611 140.27461645 53.49654769 136.39390928 49.6035614 132.51222229 C38.53680879 121.47882333 27.4658575 110.44966163 16.38452148 99.4309082 C10.25582015 93.33673604 4.13249588 87.23721478 -1.98490077 81.13169438 C-5.85181181 77.27287339 -9.72519793 73.42071121 -13.60347974 69.57332027 C-16.01428555 67.17853407 -18.41875524 64.77746435 -20.82146835 62.37456131 C-21.93507628 61.26337234 -23.0512579 60.15475568 -24.17020988 59.04894829 C-25.69980297 57.53657662 -27.2198027 56.01515493 -28.73783875 54.49119568 C-29.59007869 53.64301993 -30.44231863 52.79484419 -31.32038403 51.92096615 C-35.33906557 47.22682402 -37.29421483 42.54855499 -37.5 36.375 C-36.45542547 27.32581665 -31.04993634 21.95817182 -24.77661133 15.95874023 C-23.18340374 14.43357869 -21.61885742 12.88300256 -20.05664062 11.32617188 C-8.43998471 -0.07275849 -8.43998471 -0.07275849 0 0 Z " fill="#050505" transform="translate(37.5,0.625)"/>
</svg>
