<?xml version="1.0" encoding="UTF-8"?>
<!DOCTYPE svg PUBLIC "-//W3C//DTD SVG 1.1//EN" "http://www.w3.org/Graphics/SVG/1.1/DTD/svg11.dtd">
<svg xmlns="http://www.w3.org/2000/svg" version="1.1" width="642px" height="389px" style="shape-rendering:geometricPrecision; text-rendering:geometricPrecision; image-rendering:optimizeQuality; fill-rule:evenodd; clip-rule:evenodd" xmlns:xlink="http://www.w3.org/1999/xlink">
<g><path style="opacity:0.999" fill="#fcfcfc" d="M 610.5,14.5 C 610.821,16.0481 611.821,16.7148 613.5,16.5C 632.893,30.6328 640.727,49.6328 637,73.5C 635.015,81.8021 631.681,89.4687 627,96.5C 538.447,185.554 449.28,274.887 359.5,364.5C 339.582,381.703 317.582,384.869 293.5,374C 290.328,372.248 287.328,370.248 284.5,368C 195.333,278.833 106.167,189.667 17,100.5C 15.2765,98.2833 13.7765,95.95 12.5,93.5C 12.7148,91.8212 12.0481,90.8212 10.5,90.5C 3.01548,76.3803 1.68214,61.7137 6.5,46.5C 8.21321,45.3646 8.87988,43.698 8.5,41.5C 12.1301,32.2467 18.1301,24.9134 26.5,19.5C 28.4044,19.2624 29.7377,18.2624 30.5,16.5C 32.8485,14.659 35.5152,13.3257 38.5,12.5C 41.1522,12.5905 43.4855,11.9238 45.5,10.5C 53.7996,9.62868 62.1329,9.29535 70.5,9.5C 77.1459,10.2691 83.1459,12.6024 88.5,16.5C 89.0347,18.4456 90.368,19.4456 92.5,19.5C 105.802,31.1349 118.469,43.4682 130.5,56.5C 130.525,59.179 131.858,60.5123 134.5,60.5C 136.167,61.5 137.5,62.8333 138.5,64.5C 138.525,67.179 139.858,68.5123 142.5,68.5C 148.833,74.1667 154.833,80.1667 160.5,86.5C 160.525,89.179 161.858,90.5123 164.5,90.5C 169.5,94.8333 174.167,99.5 178.5,104.5C 178.525,107.179 179.858,108.512 182.5,108.5C 184.167,109.5 185.5,110.833 186.5,112.5C 186.525,115.179 187.858,116.512 190.5,116.5C 192.167,117.5 193.5,118.833 194.5,120.5C 194.525,123.179 195.858,124.512 198.5,124.5C 202.833,128.167 206.833,132.167 210.5,136.5C 210.525,139.179 211.858,140.512 214.5,140.5C 216.167,141.5 217.5,142.833 218.5,144.5C 218.525,147.179 219.858,148.512 222.5,148.5C 254.833,180.167 286.833,212.167 318.5,244.5C 319.204,246.344 320.537,246.844 322.5,246C 376.751,192.25 430.417,138.083 483.5,83.5C 505.45,63.2177 526.783,42.2177 547.5,20.5C 549.296,18.1 551.63,16.4333 554.5,15.5C 556.027,15.573 557.027,14.9063 557.5,13.5C 558.78,12.0687 560.447,11.4021 562.5,11.5C 565.916,11.4725 568.916,10.4725 571.5,8.5C 585.054,5.5652 598.054,7.5652 610.5,14.5 Z"/></g>
<g><path style="opacity:0.557" fill="#666666" d="M 70.5,9.5 C 62.1329,9.29535 53.7996,9.62868 45.5,10.5C 53.7553,7.34595 62.0886,7.01261 70.5,9.5 Z"/></g>
<g><path style="opacity:0.737" fill="#919191" d="M 571.5,8.5 C 568.916,10.4725 565.916,11.4725 562.5,11.5C 565.145,9.68964 568.145,8.68964 571.5,8.5 Z"/></g>
<g><path style="opacity:0.686" fill="#989898" d="M 45.5,10.5 C 43.4855,11.9238 41.1522,12.5905 38.5,12.5C 40.5145,11.0762 42.8478,10.4095 45.5,10.5 Z"/></g>
<g><path style="opacity:0.518" fill="#767676" d="M 557.5,13.5 C 557.027,14.9063 556.027,15.573 554.5,15.5C 554.973,14.0937 555.973,13.427 557.5,13.5 Z"/></g>
<g><path style="opacity:0.647" fill="#646464" d="M 610.5,14.5 C 611.71,14.9321 612.71,15.5987 613.5,16.5C 611.821,16.7148 610.821,16.0481 610.5,14.5 Z"/></g>
<g><path style="opacity:0.384" fill="#757575" d="M 30.5,16.5 C 29.7377,18.2624 28.4044,19.2624 26.5,19.5C 27.2623,17.7376 28.5956,16.7376 30.5,16.5 Z"/></g>
<g><path style="opacity:0.698" fill="#6e6e6e" d="M 88.5,16.5 C 90.2303,17.0256 91.5637,18.0256 92.5,19.5C 90.368,19.4456 89.0347,18.4456 88.5,16.5 Z"/></g>
<g><path style="opacity:0.455" fill="#696969" d="M 547.5,20.5 C 526.783,42.2177 505.45,63.2177 483.5,83.5C 504.217,61.7823 525.55,40.7823 547.5,20.5 Z"/></g>
<g><path style="opacity:0.533" fill="#747474" d="M 8.5,41.5 C 8.87988,43.698 8.21321,45.3646 6.5,46.5C 6.79586,44.597 7.46253,42.9303 8.5,41.5 Z"/></g>
<g><path style="opacity:0.957" fill="#9e9e9e" d="M 130.5,56.5 C 132.167,57.5 133.5,58.8333 134.5,60.5C 131.858,60.5123 130.525,59.179 130.5,56.5 Z"/></g>
<g><path style="opacity:0.961" fill="#9d9d9d" d="M 138.5,64.5 C 140.167,65.5 141.5,66.8333 142.5,68.5C 139.858,68.5123 138.525,67.179 138.5,64.5 Z"/></g>
<g><path style="opacity:0.965" fill="#9e9e9e" d="M 160.5,86.5 C 162.167,87.5 163.5,88.8333 164.5,90.5C 161.858,90.5123 160.525,89.179 160.5,86.5 Z"/></g>
<g><path style="opacity:0.682" fill="#777777" d="M 10.5,90.5 C 12.0481,90.8212 12.7148,91.8212 12.5,93.5C 11.5987,92.7095 10.9321,91.7095 10.5,90.5 Z"/></g>
<g><path style="opacity:0.957" fill="#9c9c9c" d="M 178.5,104.5 C 180.167,105.5 181.5,106.833 182.5,108.5C 179.858,108.512 178.525,107.179 178.5,104.5 Z"/></g>
<g><path style="opacity:0.961" fill="#9d9d9d" d="M 186.5,112.5 C 188.167,113.5 189.5,114.833 190.5,116.5C 187.858,116.512 186.525,115.179 186.5,112.5 Z"/></g>
<g><path style="opacity:0.961" fill="#9a9a9a" d="M 194.5,120.5 C 196.167,121.5 197.5,122.833 198.5,124.5C 195.858,124.512 194.525,123.179 194.5,120.5 Z"/></g>
<g><path style="opacity:0.953" fill="#9f9f9f" d="M 210.5,136.5 C 212.167,137.5 213.5,138.833 214.5,140.5C 211.858,140.512 210.525,139.179 210.5,136.5 Z"/></g>
<g><path style="opacity:0.953" fill="#989898" d="M 218.5,144.5 C 220.167,145.5 221.5,146.833 222.5,148.5C 219.858,148.512 218.525,147.179 218.5,144.5 Z"/></g>
<g><path style="opacity:0.278" fill="#5c5c5c" d="M 483.5,83.5 C 430.417,138.083 376.751,192.25 322.5,246C 320.537,246.844 319.204,246.344 318.5,244.5C 319.423,245.303 320.423,245.47 321.5,245C 375.368,190.965 429.368,137.132 483.5,83.5 Z"/></g>
</svg>
