<?xml version="1.0" encoding="UTF-8"?>
<!DOCTYPE svg PUBLIC "-//W3C//DTD SVG 1.1//EN" "http://www.w3.org/Graphics/SVG/1.1/DTD/svg11.dtd">
<svg xmlns="http://www.w3.org/2000/svg" version="1.1" width="389px" height="642px" style="shape-rendering:geometricPrecision; text-rendering:geometricPrecision; image-rendering:optimizeQuality; fill-rule:evenodd; clip-rule:evenodd" xmlns:xlink="http://www.w3.org/1999/xlink">
<g><path style="opacity:0.999" fill="#fcfcfc" d="M 367.5,22.5 C 367.427,24.0269 368.094,25.0269 369.5,25.5C 369.738,27.4044 370.738,28.7377 372.5,29.5C 381.791,46.1675 382.958,63.5009 376,81.5C 373.425,86.4146 370.425,91.0813 367,95.5C 291.74,170.093 216.907,244.927 142.5,320C 215.41,393.911 288.91,467.744 363,541.5C 371.656,550.479 376.823,561.145 378.5,573.5C 378.582,580.858 378.248,588.191 377.5,595.5C 369.014,622.162 350.847,636.162 323,637.5C 313.378,637.058 304.545,634.392 296.5,629.5C 296.027,628.094 295.027,627.427 293.5,627.5C 289.091,624.633 285.091,621.299 281.5,617.5C 281.512,614.858 280.179,613.525 277.5,613.5C 191.535,528.035 105.701,442.368 20,356.5C 17.6422,353.778 15.8089,350.778 14.5,347.5C 14.7148,345.821 14.0481,344.821 12.5,344.5C 5.55301,327.929 5.88635,311.596 13.5,295.5C 14.9063,295.027 15.573,294.027 15.5,292.5C 16.5293,289.109 18.5293,286.443 21.5,284.5C 110.5,196.167 199.167,107.5 287.5,18.5C 287.5,17.8333 287.833,17.5 288.5,17.5C 290.749,16.9202 292.415,15.5869 293.5,13.5C 293.973,12.0937 294.973,11.427 296.5,11.5C 298.027,11.573 299.027,10.9063 299.5,9.5C 300.496,9.41423 301.329,9.74756 302,10.5C 304.261,8.92049 306.427,7.25382 308.5,5.5C 331.774,-1.05121 351.44,4.61545 367.5,22.5 Z"/></g>
<g><path style="opacity:0.89" fill="#9b9b9b" d="M 308.5,5.5 C 306.427,7.25382 304.261,8.92049 302,10.5C 301.329,9.74756 300.496,9.41423 299.5,9.5C 302.088,7.40821 305.088,6.07488 308.5,5.5 Z"/></g>
<g><path style="opacity:0.49" fill="#717171" d="M 299.5,9.5 C 299.027,10.9063 298.027,11.573 296.5,11.5C 296.973,10.0937 297.973,9.42702 299.5,9.5 Z"/></g>
<g><path style="opacity:0.792" fill="#9e9e9e" d="M 293.5,13.5 C 292.415,15.5869 290.749,16.9202 288.5,17.5C 289.585,15.4131 291.251,14.0798 293.5,13.5 Z"/></g>
<g><path style="opacity:0.235" fill="#626262" d="M 367.5,22.5 C 368.906,22.9731 369.573,23.9731 369.5,25.5C 368.094,25.0269 367.427,24.0269 367.5,22.5 Z"/></g>
<g><path style="opacity:0.671" fill="#767676" d="M 369.5,25.5 C 371.262,26.2623 372.262,27.5956 372.5,29.5C 370.738,28.7377 369.738,27.4044 369.5,25.5 Z"/></g>
<g><path style="opacity:0.353" fill="#5d5d5d" d="M 287.5,18.5 C 199.167,107.5 110.5,196.167 21.5,284.5C 108.916,195.583 196.916,107.083 285.5,19C 286.094,18.5357 286.761,18.369 287.5,18.5 Z"/></g>
<g><path style="opacity:0.118" fill="#515151" d="M 15.5,292.5 C 15.573,294.027 14.9063,295.027 13.5,295.5C 13.427,293.973 14.0937,292.973 15.5,292.5 Z"/></g>
<g><path style="opacity:0.62" fill="#747474" d="M 12.5,344.5 C 14.0481,344.821 14.7148,345.821 14.5,347.5C 13.5987,346.71 12.9321,345.71 12.5,344.5 Z"/></g>
<g><path style="opacity:0.337" fill="#9f9f9f" d="M 378.5,573.5 C 379.164,576.146 379.498,578.979 379.5,582C 379.634,586.758 378.968,591.258 377.5,595.5C 378.248,588.191 378.582,580.858 378.5,573.5 Z"/></g>
<g><path style="opacity:0.929" fill="#a0a0a0" d="M 277.5,613.5 C 280.179,613.525 281.512,614.858 281.5,617.5C 279.833,616.5 278.5,615.167 277.5,613.5 Z"/></g>
<g><path style="opacity:0.141" fill="#666666" d="M 293.5,627.5 C 295.027,627.427 296.027,628.094 296.5,629.5C 294.973,629.573 293.973,628.906 293.5,627.5 Z"/></g>
</svg>
