<?xml version="1.0" encoding="UTF-8"?>
<!DOCTYPE svg PUBLIC "-//W3C//DTD SVG 1.1//EN" "http://www.w3.org/Graphics/SVG/1.1/DTD/svg11.dtd">
<svg xmlns="http://www.w3.org/2000/svg" version="1.1" width="642px" height="389px" style="shape-rendering:geometricPrecision; text-rendering:geometricPrecision; image-rendering:optimizeQuality; fill-rule:evenodd; clip-rule:evenodd" xmlns:xlink="http://www.w3.org/1999/xlink">
<g><path style="opacity:0.671" fill="#8b8b8b" d="M 310.5,8.5 C 313.649,7.83493 316.982,7.5016 320.5,7.5C 325.437,7.30021 330.104,7.96688 334.5,9.5C 326.529,8.67704 318.529,8.34371 310.5,8.5 Z"/></g>
<g><path style="opacity:1" fill="#020202" d="M 310.5,8.5 C 318.529,8.34371 326.529,8.67704 334.5,9.5C 339.252,10.1932 343.586,11.8599 347.5,14.5C 347.821,16.0481 348.821,16.7148 350.5,16.5C 353.473,18.1468 356.14,20.1468 358.5,22.5C 445.785,111.451 533.785,199.785 622.5,287.5C 623.5,287.833 624.167,288.5 624.5,289.5C 624.738,291.404 625.738,292.738 627.5,293.5C 627.738,295.404 628.738,296.738 630.5,297.5C 632.008,299.181 633.008,301.181 633.5,303.5C 633.12,305.698 633.787,307.365 635.5,308.5C 636.793,311.679 637.46,315.012 637.5,318.5C 637.524,324.857 637.19,331.19 636.5,337.5C 629.063,364.912 611.063,379.579 582.5,381.5C 580.253,380.626 577.92,380.292 575.5,380.5C 573.162,378.96 570.495,378.294 567.5,378.5C 563.851,377.733 560.518,376.4 557.5,374.5C 557.027,373.094 556.027,372.427 554.5,372.5C 551.63,371.567 549.296,369.9 547.5,367.5C 546.089,365.086 544.089,363.419 541.5,362.5C 539.5,358.5 536.5,355.5 532.5,353.5C 531.167,350.167 528.833,347.833 525.5,346.5C 523.5,342.5 520.5,339.5 516.5,337.5C 514.833,333.833 512.167,331.167 508.5,329.5C 507.167,326.167 504.833,323.833 501.5,322.5C 499.5,318.5 496.5,315.5 492.5,313.5C 488.167,307.167 482.833,301.833 476.5,297.5C 473.833,292.833 470.167,289.167 465.5,286.5C 465.167,284.167 463.833,282.833 461.5,282.5C 459.5,278.5 456.5,275.5 452.5,273.5C 448.167,267.167 442.833,261.833 436.5,257.5C 432.5,251.5 427.5,246.5 421.5,242.5C 389.418,208.917 356.752,175.751 323.5,143C 322.906,142.536 322.239,142.369 321.5,142.5C 245.75,216.75 170.416,291.583 95.5,367C 89.0607,372.386 81.7274,375.886 73.5,377.5C 65.2004,378.371 56.8671,378.705 48.5,378.5C 45.4954,376.723 42.1621,375.723 38.5,375.5C 35.5152,374.674 32.8485,373.341 30.5,371.5C 29.7377,369.738 28.4044,368.738 26.5,368.5C 26.0269,367.094 25.0269,366.427 23.5,366.5C 19.7657,363.769 16.7657,360.436 14.5,356.5C 14.4456,354.368 13.4456,353.035 11.5,352.5C 3.78549,339.609 1.78549,325.942 5.5,311.5C 7.31036,308.855 8.31036,305.855 8.5,302.5C 8.99249,300.181 9.99249,298.181 11.5,296.5C 12.9063,296.027 13.573,295.027 13.5,293.5C 15.2624,292.738 16.2624,291.404 16.5,289.5C 31.5524,275.449 45.8857,260.782 59.5,245.5C 61.5,245.5 62.5,244.5 62.5,242.5C 65.8333,241.167 68.1667,238.833 69.5,235.5C 72.5,234.5 74.5,232.5 75.5,229.5C 77.8333,229.167 79.1667,227.833 79.5,225.5C 81.5,225.5 82.5,224.5 82.5,222.5C 83.5,220.833 84.8333,219.5 86.5,218.5C 88.5,218.5 89.5,217.5 89.5,215.5C 89.8333,214.5 90.5,213.833 91.5,213.5C 93.5,213.5 94.5,212.5 94.5,210.5C 97.1667,209.833 98.8333,208.167 99.5,205.5C 103.167,203.833 105.833,201.167 107.5,197.5C 107.833,196.5 108.5,195.833 109.5,195.5C 111.833,195.167 113.167,193.833 113.5,191.5C 115.5,191.5 116.5,190.5 116.5,188.5C 116.833,187.5 117.5,186.833 118.5,186.5C 120.833,186.167 122.167,184.833 122.5,182.5C 122.833,181.5 123.5,180.833 124.5,180.5C 127.167,179.833 128.833,178.167 129.5,175.5C 131.833,175.167 133.167,173.833 133.5,171.5C 136.5,170.5 138.5,168.5 139.5,165.5C 141.833,165.167 143.167,163.833 143.5,161.5C 145.167,159.167 147.167,157.167 149.5,155.5C 151.833,155.167 153.167,153.833 153.5,151.5C 155.167,149.167 157.167,147.167 159.5,145.5C 161.5,145.5 162.5,144.5 162.5,142.5C 164.833,142.167 166.167,140.833 166.5,138.5C 169.167,137.833 170.833,136.167 171.5,133.5C 171.833,132.5 172.5,131.833 173.5,131.5C 175.5,131.5 176.5,130.5 176.5,128.5C 178.5,128.5 179.5,127.5 179.5,125.5C 180.5,123.833 181.833,122.5 183.5,121.5C 185.5,121.5 186.5,120.5 186.5,118.5C 188.5,118.5 189.5,117.5 189.5,115.5C 189.833,114.5 190.5,113.833 191.5,113.5C 193.833,113.167 195.167,111.833 195.5,109.5C 199.167,105.167 203.167,101.167 207.5,97.5C 210.5,96.5 212.5,94.5 213.5,91.5C 215.5,91.5 216.5,90.5 216.5,88.5C 218.5,88.5 219.5,87.5 219.5,85.5C 227.167,77.1667 235.167,69.1667 243.5,61.5C 246.167,60.8333 247.833,59.1667 248.5,56.5C 258.833,45.5 269.5,34.8333 280.5,24.5C 283.089,23.5806 285.089,21.914 286.5,19.5C 286.5,18.8333 286.833,18.5 287.5,18.5C 289.027,18.573 290.027,17.9063 290.5,16.5C 292.027,16.573 293.027,15.9063 293.5,14.5C 295.426,12.7073 297.759,11.7073 300.5,11.5C 304.162,11.2766 307.495,10.2766 310.5,8.5 Z"/></g>
<g><path style="opacity:0.925" fill="#5a5a5a" d="M 310.5,8.5 C 307.495,10.2766 304.162,11.2766 300.5,11.5C 303.408,9.39522 306.742,8.39522 310.5,8.5 Z"/></g>
<g><path style="opacity:0.745" fill="#858585" d="M 293.5,14.5 C 293.027,15.9063 292.027,16.573 290.5,16.5C 290.973,15.0937 291.973,14.427 293.5,14.5 Z"/></g>
<g><path style="opacity:0.957" fill="#6a6a6a" d="M 347.5,14.5 C 348.71,14.9321 349.71,15.5987 350.5,16.5C 348.821,16.7148 347.821,16.0481 347.5,14.5 Z"/></g>
<g><path style="opacity:0.773" fill="#7c7c7c" d="M 290.5,16.5 C 290.027,17.9063 289.027,18.573 287.5,18.5C 287.973,17.0937 288.973,16.427 290.5,16.5 Z"/></g>
<g><path style="opacity:0.859" fill="#636363" d="M 286.5,19.5 C 285.089,21.914 283.089,23.5806 280.5,24.5C 281.911,22.086 283.911,20.4194 286.5,19.5 Z"/></g>
<g><path style="opacity:0.702" fill="#adadad" d="M 358.5,22.5 C 447.215,110.215 535.215,198.549 622.5,287.5C 533.785,199.785 445.785,111.451 358.5,22.5 Z"/></g>
<g><path style="opacity:0.886" fill="#5f5f5f" d="M 248.5,56.5 C 247.833,59.1667 246.167,60.8333 243.5,61.5C 244.833,59.5 246.5,57.8333 248.5,56.5 Z"/></g>
<g><path style="opacity:0.847" fill="#6b6b6b" d="M 219.5,85.5 C 219.5,87.5 218.5,88.5 216.5,88.5C 217.167,87.1667 218.167,86.1667 219.5,85.5 Z"/></g>
<g><path style="opacity:0.859" fill="#6a6a6a" d="M 216.5,88.5 C 216.5,90.5 215.5,91.5 213.5,91.5C 214.167,90.1667 215.167,89.1667 216.5,88.5 Z"/></g>
<g><path style="opacity:0.855" fill="#626262" d="M 213.5,91.5 C 212.5,94.5 210.5,96.5 207.5,97.5C 209.167,95.1667 211.167,93.1667 213.5,91.5 Z"/></g>
<g><path style="opacity:0.847" fill="#6a6a6a" d="M 195.5,109.5 C 195.167,111.833 193.833,113.167 191.5,113.5C 192.5,111.833 193.833,110.5 195.5,109.5 Z"/></g>
<g><path style="opacity:0.843" fill="#696969" d="M 189.5,115.5 C 189.5,117.5 188.5,118.5 186.5,118.5C 187.167,117.167 188.167,116.167 189.5,115.5 Z"/></g>
<g><path style="opacity:0.835" fill="#6c6c6c" d="M 186.5,118.5 C 186.5,120.5 185.5,121.5 183.5,121.5C 184.167,120.167 185.167,119.167 186.5,118.5 Z"/></g>
<g><path style="opacity:0.843" fill="#6c6c6c" d="M 179.5,125.5 C 179.5,127.5 178.5,128.5 176.5,128.5C 177.167,127.167 178.167,126.167 179.5,125.5 Z"/></g>
<g><path style="opacity:0.827" fill="#717171" d="M 176.5,128.5 C 176.5,130.5 175.5,131.5 173.5,131.5C 174.167,130.167 175.167,129.167 176.5,128.5 Z"/></g>
<g><path style="opacity:0.843" fill="#676767" d="M 171.5,133.5 C 170.833,136.167 169.167,137.833 166.5,138.5C 167.833,136.5 169.5,134.833 171.5,133.5 Z"/></g>
<g><path style="opacity:0.827" fill="#6e6e6e" d="M 166.5,138.5 C 166.167,140.833 164.833,142.167 162.5,142.5C 163.5,140.833 164.833,139.5 166.5,138.5 Z"/></g>
<g><path style="opacity:0.584" fill="#aeaeae" d="M 321.5,142.5 C 322.239,142.369 322.906,142.536 323.5,143C 356.752,175.751 389.418,208.917 421.5,242.5C 387.833,209.5 354.5,176.167 321.5,142.5 Z"/></g>
<g><path style="opacity:0.827" fill="#707070" d="M 162.5,142.5 C 162.5,144.5 161.5,145.5 159.5,145.5C 160.167,144.167 161.167,143.167 162.5,142.5 Z"/></g>
<g><path style="opacity:0.824" fill="#707070" d="M 153.5,151.5 C 153.167,153.833 151.833,155.167 149.5,155.5C 150.5,153.833 151.833,152.5 153.5,151.5 Z"/></g>
<g><path style="opacity:0.82" fill="#6d6d6d" d="M 143.5,161.5 C 143.167,163.833 141.833,165.167 139.5,165.5C 140.5,163.833 141.833,162.5 143.5,161.5 Z"/></g>
<g><path style="opacity:0.824" fill="#6e6e6e" d="M 139.5,165.5 C 138.5,168.5 136.5,170.5 133.5,171.5C 135.167,169.167 137.167,167.167 139.5,165.5 Z"/></g>
<g><path style="opacity:0.812" fill="#6f6f6f" d="M 133.5,171.5 C 133.167,173.833 131.833,175.167 129.5,175.5C 130.5,173.833 131.833,172.5 133.5,171.5 Z"/></g>
<g><path style="opacity:0.816" fill="#6c6c6c" d="M 129.5,175.5 C 128.833,178.167 127.167,179.833 124.5,180.5C 125.833,178.5 127.5,176.833 129.5,175.5 Z"/></g>
<g><path style="opacity:0.816" fill="#6f6f6f" d="M 122.5,182.5 C 122.167,184.833 120.833,186.167 118.5,186.5C 119.5,184.833 120.833,183.5 122.5,182.5 Z"/></g>
<g><path style="opacity:0.824" fill="#727272" d="M 116.5,188.5 C 116.5,190.5 115.5,191.5 113.5,191.5C 114.167,190.167 115.167,189.167 116.5,188.5 Z"/></g>
<g><path style="opacity:0.808" fill="#727272" d="M 113.5,191.5 C 113.167,193.833 111.833,195.167 109.5,195.5C 110.5,193.833 111.833,192.5 113.5,191.5 Z"/></g>
<g><path style="opacity:0.816" fill="#6f6f6f" d="M 107.5,197.5 C 105.833,201.167 103.167,203.833 99.5,205.5C 101.833,202.5 104.5,199.833 107.5,197.5 Z"/></g>
<g><path style="opacity:0.816" fill="#747474" d="M 99.5,205.5 C 98.8333,208.167 97.1667,209.833 94.5,210.5C 95.8333,208.5 97.5,206.833 99.5,205.5 Z"/></g>
<g><path style="opacity:0.808" fill="#767676" d="M 94.5,210.5 C 94.5,212.5 93.5,213.5 91.5,213.5C 92.1667,212.167 93.1667,211.167 94.5,210.5 Z"/></g>
<g><path style="opacity:0.796" fill="#797979" d="M 89.5,215.5 C 89.5,217.5 88.5,218.5 86.5,218.5C 87.1667,217.167 88.1667,216.167 89.5,215.5 Z"/></g>
<g><path style="opacity:0.804" fill="#747474" d="M 82.5,222.5 C 82.5,224.5 81.5,225.5 79.5,225.5C 80.1667,224.167 81.1667,223.167 82.5,222.5 Z"/></g>
<g><path style="opacity:0.792" fill="#767676" d="M 79.5,225.5 C 79.1667,227.833 77.8333,229.167 75.5,229.5C 76.5,227.833 77.8333,226.5 79.5,225.5 Z"/></g>
<g><path style="opacity:0.8" fill="#797979" d="M 75.5,229.5 C 74.5,232.5 72.5,234.5 69.5,235.5C 71.1667,233.167 73.1667,231.167 75.5,229.5 Z"/></g>
<g><path style="opacity:0.792" fill="#767676" d="M 69.5,235.5 C 68.1667,238.833 65.8333,241.167 62.5,242.5C 64.5,239.833 66.8333,237.5 69.5,235.5 Z"/></g>
<g><path style="opacity:0.624" fill="#aaaaaa" d="M 421.5,242.5 C 427.5,246.5 432.5,251.5 436.5,257.5C 431.167,252.833 426.167,247.833 421.5,242.5 Z"/></g>
<g><path style="opacity:0.796" fill="#787878" d="M 62.5,242.5 C 62.5,244.5 61.5,245.5 59.5,245.5C 60.1667,244.167 61.1667,243.167 62.5,242.5 Z"/></g>
<g><path style="opacity:0.627" fill="#a7a7a7" d="M 436.5,257.5 C 442.833,261.833 448.167,267.167 452.5,273.5C 446.833,268.5 441.5,263.167 436.5,257.5 Z"/></g>
<g><path style="opacity:0.635" fill="#a6a6a6" d="M 452.5,273.5 C 456.5,275.5 459.5,278.5 461.5,282.5C 458.167,279.833 455.167,276.833 452.5,273.5 Z"/></g>
<g><path style="opacity:0.639" fill="#a9a9a9" d="M 461.5,282.5 C 463.833,282.833 465.167,284.167 465.5,286.5C 463.833,285.5 462.5,284.167 461.5,282.5 Z"/></g>
<g><path style="opacity:0.761" fill="#7a7a7a" d="M 59.5,245.5 C 45.8857,260.782 31.5524,275.449 16.5,289.5C 30.1143,274.218 44.4476,259.551 59.5,245.5 Z"/></g>
<g><path style="opacity:0.643" fill="#a5a5a5" d="M 465.5,286.5 C 470.167,289.167 473.833,292.833 476.5,297.5C 472.5,294.167 468.833,290.5 465.5,286.5 Z"/></g>
<g><path style="opacity:0.867" fill="#7a7a7a" d="M 624.5,289.5 C 626.262,290.262 627.262,291.596 627.5,293.5C 625.738,292.738 624.738,291.404 624.5,289.5 Z"/></g>
<g><path style="opacity:0.729" fill="#747474" d="M 16.5,289.5 C 16.2624,291.404 15.2624,292.738 13.5,293.5C 13.7376,291.596 14.7376,290.262 16.5,289.5 Z"/></g>
<g><path style="opacity:0.447" fill="#969696" d="M 13.5,293.5 C 13.573,295.027 12.9063,296.027 11.5,296.5C 11.427,294.973 12.0937,293.973 13.5,293.5 Z"/></g>
<g><path style="opacity:0.604" fill="#929292" d="M 627.5,293.5 C 629.262,294.262 630.262,295.596 630.5,297.5C 628.738,296.738 627.738,295.404 627.5,293.5 Z"/></g>
<g><path style="opacity:0.651" fill="#a3a3a3" d="M 476.5,297.5 C 482.833,301.833 488.167,307.167 492.5,313.5C 486.833,308.5 481.5,303.167 476.5,297.5 Z"/></g>
<g><path style="opacity:0.835" fill="#848484" d="M 633.5,303.5 C 634.537,304.93 635.204,306.597 635.5,308.5C 633.787,307.365 633.12,305.698 633.5,303.5 Z"/></g>
<g><path style="opacity:0.792" fill="#7e7e7e" d="M 8.5,302.5 C 8.31036,305.855 7.31036,308.855 5.5,311.5C 5.52751,308.084 6.52751,305.084 8.5,302.5 Z"/></g>
<g><path style="opacity:0.655" fill="#a2a2a2" d="M 492.5,313.5 C 496.5,315.5 499.5,318.5 501.5,322.5C 498.167,319.833 495.167,316.833 492.5,313.5 Z"/></g>
<g><path style="opacity:0.655" fill="#a3a3a3" d="M 501.5,322.5 C 504.833,323.833 507.167,326.167 508.5,329.5C 505.833,327.5 503.5,325.167 501.5,322.5 Z"/></g>
<g><path style="opacity:0.117" fill="#d9d9d9" d="M 637.5,318.5 C 638.163,320.641 638.497,322.975 638.5,325.5C 638.589,329.761 637.922,333.761 636.5,337.5C 637.19,331.19 637.524,324.857 637.5,318.5 Z"/></g>
<g><path style="opacity:0.663" fill="#a1a1a1" d="M 508.5,329.5 C 512.167,331.167 514.833,333.833 516.5,337.5C 513.5,335.167 510.833,332.5 508.5,329.5 Z"/></g>
<g><path style="opacity:0.671" fill="#9f9f9f" d="M 516.5,337.5 C 520.5,339.5 523.5,342.5 525.5,346.5C 522.167,343.833 519.167,340.833 516.5,337.5 Z"/></g>
<g><path style="opacity:0.671" fill="#9e9e9e" d="M 525.5,346.5 C 528.833,347.833 531.167,350.167 532.5,353.5C 529.833,351.5 527.5,349.167 525.5,346.5 Z"/></g>
<g><path style="opacity:0.925" fill="#757575" d="M 11.5,352.5 C 13.4456,353.035 14.4456,354.368 14.5,356.5C 13.0256,355.564 12.0256,354.23 11.5,352.5 Z"/></g>
<g><path style="opacity:0.675" fill="#9d9d9d" d="M 532.5,353.5 C 536.5,355.5 539.5,358.5 541.5,362.5C 538.167,359.833 535.167,356.833 532.5,353.5 Z"/></g>
<g><path style="opacity:0.675" fill="#a1a1a1" d="M 541.5,362.5 C 544.089,363.419 546.089,365.086 547.5,367.5C 544.911,366.581 542.911,364.914 541.5,362.5 Z"/></g>
<g><path style="opacity:0.506" fill="#999999" d="M 23.5,366.5 C 25.0269,366.427 26.0269,367.094 26.5,368.5C 24.9731,368.573 23.9731,367.906 23.5,366.5 Z"/></g>
<g><path style="opacity:0.682" fill="#848484" d="M 26.5,368.5 C 28.4044,368.738 29.7377,369.738 30.5,371.5C 28.5956,371.262 27.2623,370.262 26.5,368.5 Z"/></g>
<g><path style="opacity:0.376" fill="#9e9e9e" d="M 554.5,372.5 C 556.027,372.427 557.027,373.094 557.5,374.5C 555.973,374.573 554.973,373.906 554.5,372.5 Z"/></g>
<g><path style="opacity:0.886" fill="#757575" d="M 38.5,375.5 C 42.1621,375.723 45.4954,376.723 48.5,378.5C 44.8379,378.277 41.5046,377.277 38.5,375.5 Z"/></g>
<g><path style="opacity:0.022" fill="#b7b7b7" d="M 73.5,377.5 C 65.2655,380.819 56.9322,381.153 48.5,378.5C 56.8671,378.705 65.2004,378.371 73.5,377.5 Z"/></g>
<g><path style="opacity:0.059" fill="#c8c8c8" d="M 567.5,378.5 C 570.495,378.294 573.162,378.96 575.5,380.5C 572.572,380.435 569.905,379.768 567.5,378.5 Z"/></g>
</svg>
