<?xml version="1.0" encoding="UTF-8"?>
<!DOCTYPE svg PUBLIC "-//W3C//DTD SVG 1.1//EN" "http://www.w3.org/Graphics/SVG/1.1/DTD/svg11.dtd">
<svg xmlns="http://www.w3.org/2000/svg" version="1.1" width="642px" height="389px" style="shape-rendering:geometricPrecision; text-rendering:geometricPrecision; image-rendering:optimizeQuality; fill-rule:evenodd; clip-rule:evenodd" xmlns:xlink="http://www.w3.org/1999/xlink">
<g><path style="opacity:0.998" fill="#fcfcfc" d="M 545.5,365.5 C 545.027,364.094 544.027,363.427 542.5,363.5C 540.167,361.833 538.167,359.833 536.5,357.5C 536.5,355.5 535.5,354.5 533.5,354.5C 528.5,350.167 523.833,345.5 519.5,340.5C 519.5,338.5 518.5,337.5 516.5,337.5C 512.167,333.833 508.167,329.833 504.5,325.5C 504.167,323.167 502.833,321.833 500.5,321.5C 499.5,321.167 498.833,320.5 498.5,319.5C 498.512,316.858 497.179,315.525 494.5,315.5C 492.167,313.833 490.167,311.833 488.5,309.5C 488.5,307.5 487.5,306.5 485.5,306.5C 481.833,303.5 478.5,300.167 475.5,296.5C 475.5,294.5 474.5,293.5 472.5,293.5C 472.167,291.167 470.833,289.833 468.5,289.5C 468.167,287.167 466.833,285.833 464.5,285.5C 464.5,283.5 463.5,282.5 461.5,282.5C 460.5,282.167 459.833,281.5 459.5,280.5C 459.5,278.5 458.5,277.5 456.5,277.5C 456.167,275.167 454.833,273.833 452.5,273.5C 450.833,272.5 449.5,271.167 448.5,269.5C 448.167,267.167 446.833,265.833 444.5,265.5C 444.167,263.167 442.833,261.833 440.5,261.5C 440.167,259.167 438.833,257.833 436.5,257.5C 436.167,255.167 434.833,253.833 432.5,253.5C 432.167,251.167 430.833,249.833 428.5,249.5C 428.5,247.5 427.5,246.5 425.5,246.5C 424.833,243.833 423.167,242.167 420.5,241.5C 420.167,239.167 418.833,237.833 416.5,237.5C 416.167,235.167 414.833,233.833 412.5,233.5C 412.167,231.167 410.833,229.833 408.5,229.5C 408.5,227.5 407.5,226.5 405.5,226.5C 404.833,223.833 403.167,222.167 400.5,221.5C 400.167,219.167 398.833,217.833 396.5,217.5C 396.167,215.167 394.833,213.833 392.5,213.5C 390.833,209.833 388.167,207.167 384.5,205.5C 382.833,201.833 380.167,199.167 376.5,197.5C 375.167,194.167 372.833,191.833 369.5,190.5C 369.167,188.167 367.833,186.833 365.5,186.5C 356.758,176.254 347.425,166.421 337.5,157C 336.906,156.536 336.239,156.369 335.5,156.5C 331.826,153.158 328.492,149.492 325.5,145.5C 324.738,143.738 323.404,142.738 321.5,142.5C 319.745,143.072 318.078,143.906 316.5,145C 244.303,218.198 171.636,291.198 98.5,364C 76.2349,382.271 52.5683,384.271 27.5,370C 9.81007,356.456 2.1434,338.622 4.5,316.5C 6.03954,314.162 6.70621,311.495 6.5,308.5C 8.01864,301.126 11.352,294.793 16.5,289.5C 18.2624,288.738 19.2624,287.404 19.5,285.5C 22.5,281.833 25.8333,278.5 29.5,275.5C 31.5,275.5 32.5,274.5 32.5,272.5C 33.1667,271.167 34.1667,270.167 35.5,269.5C 38.1667,268.833 39.8333,267.167 40.5,264.5C 40.8333,263.5 41.5,262.833 42.5,262.5C 44.5,262.5 45.5,261.5 45.5,259.5C 46.5,257.833 47.8333,256.5 49.5,255.5C 51.5,255.5 52.5,254.5 52.5,252.5C 63.5,240.833 74.8333,229.5 86.5,218.5C 88.5,218.5 89.5,217.5 89.5,215.5C 89.8333,214.5 90.5,213.833 91.5,213.5C 93.5,213.5 94.5,212.5 94.5,210.5C 95.8333,208.5 97.5,206.833 99.5,205.5C 102.5,204.5 104.5,202.5 105.5,199.5C 111.5,192.833 117.833,186.5 124.5,180.5C 127.167,179.833 128.833,178.167 129.5,175.5C 160.5,143.833 191.833,112.5 223.5,81.5C 226.833,80.8333 228.833,78.8333 229.5,75.5C 233.833,70.5 238.5,65.8333 243.5,61.5C 246.167,60.8333 247.833,59.1667 248.5,56.5C 251.5,52.8333 254.833,49.5 258.5,46.5C 262.195,44.8054 264.861,42.1387 266.5,38.5C 270.833,33.5 275.5,28.8333 280.5,24.5C 283.089,23.5806 285.089,21.914 286.5,19.5C 287.262,17.7376 288.596,16.7376 290.5,16.5C 292.027,16.573 293.027,15.9063 293.5,14.5C 295.426,12.7073 297.759,11.7073 300.5,11.5C 303.916,11.4725 306.916,10.4725 309.5,8.5C 328.558,5.13087 345.225,9.9642 359.5,23C 449.333,113.5 539.167,204 629,294.5C 643.208,320.372 640.375,344.206 620.5,366C 597.787,383.732 574.12,385.065 549.5,370C 547.959,368.629 546.625,367.129 545.5,365.5 Z"/></g>
<g><path style="opacity:0.737" fill="#969696" d="M 309.5,8.5 C 306.916,10.4725 303.916,11.4725 300.5,11.5C 303.145,9.68964 306.145,8.68964 309.5,8.5 Z"/></g>
<g><path style="opacity:0.49" fill="#747474" d="M 293.5,14.5 C 293.027,15.9063 292.027,16.573 290.5,16.5C 290.973,15.0937 291.973,14.427 293.5,14.5 Z"/></g>
<g><path style="opacity:0.647" fill="#929292" d="M 286.5,19.5 C 285.089,21.914 283.089,23.5806 280.5,24.5C 281.911,22.086 283.911,20.4194 286.5,19.5 Z"/></g>
<g><path style="opacity:0.678" fill="#9d9d9d" d="M 266.5,38.5 C 264.861,42.1387 262.195,44.8054 258.5,46.5C 260.833,43.5 263.5,40.8333 266.5,38.5 Z"/></g>
<g><path style="opacity:0.647" fill="#959595" d="M 248.5,56.5 C 247.833,59.1667 246.167,60.8333 243.5,61.5C 244.833,59.5 246.5,57.8333 248.5,56.5 Z"/></g>
<g><path style="opacity:0.663" fill="#9c9c9c" d="M 229.5,75.5 C 228.833,78.8333 226.833,80.8333 223.5,81.5C 225.167,79.1667 227.167,77.1667 229.5,75.5 Z"/></g>
<g><path style="opacity:0.294" fill="#545454" d="M 321.5,142.5 C 323.404,142.738 324.738,143.738 325.5,145.5C 323.596,145.262 322.262,144.262 321.5,142.5 Z"/></g>
<g><path style="opacity:0.259" fill="#494949" d="M 335.5,156.5 C 336.239,156.369 336.906,156.536 337.5,157C 347.425,166.421 356.758,176.254 365.5,186.5C 355.167,176.833 345.167,166.833 335.5,156.5 Z"/></g>
<g><path style="opacity:0.569" fill="#878787" d="M 129.5,175.5 C 128.833,178.167 127.167,179.833 124.5,180.5C 125.833,178.5 127.5,176.833 129.5,175.5 Z"/></g>
<g><path style="opacity:0.267" fill="#484848" d="M 365.5,186.5 C 367.833,186.833 369.167,188.167 369.5,190.5C 367.833,189.5 366.5,188.167 365.5,186.5 Z"/></g>
<g><path style="opacity:0.271" fill="#494949" d="M 369.5,190.5 C 372.833,191.833 375.167,194.167 376.5,197.5C 373.833,195.5 371.5,193.167 369.5,190.5 Z"/></g>
<g><path style="opacity:0.286" fill="#4c4c4c" d="M 376.5,197.5 C 380.167,199.167 382.833,201.833 384.5,205.5C 381.5,203.167 378.833,200.5 376.5,197.5 Z"/></g>
<g><path style="opacity:0.561" fill="#878787" d="M 105.5,199.5 C 104.5,202.5 102.5,204.5 99.5,205.5C 101.167,203.167 103.167,201.167 105.5,199.5 Z"/></g>
<g><path style="opacity:0.298" fill="#4c4c4c" d="M 384.5,205.5 C 388.167,207.167 390.833,209.833 392.5,213.5C 389.5,211.167 386.833,208.5 384.5,205.5 Z"/></g>
<g><path style="opacity:0.553" fill="#797979" d="M 94.5,210.5 C 94.5,212.5 93.5,213.5 91.5,213.5C 92.1667,212.167 93.1667,211.167 94.5,210.5 Z"/></g>
<g><path style="opacity:0.302" fill="#4c4c4c" d="M 392.5,213.5 C 394.833,213.833 396.167,215.167 396.5,217.5C 394.833,216.5 393.5,215.167 392.5,213.5 Z"/></g>
<g><path style="opacity:0.557" fill="#797979" d="M 89.5,215.5 C 89.5,217.5 88.5,218.5 86.5,218.5C 87.1667,217.167 88.1667,216.167 89.5,215.5 Z"/></g>
<g><path style="opacity:0.306" fill="#4b4b4b" d="M 396.5,217.5 C 398.833,217.833 400.167,219.167 400.5,221.5C 398.833,220.5 397.5,219.167 396.5,217.5 Z"/></g>
<g><path style="opacity:0.306" fill="#4d4d4d" d="M 400.5,221.5 C 403.167,222.167 404.833,223.833 405.5,226.5C 403.5,225.167 401.833,223.5 400.5,221.5 Z"/></g>
<g><path style="opacity:0.298" fill="#515151" d="M 405.5,226.5 C 407.5,226.5 408.5,227.5 408.5,229.5C 407.167,228.833 406.167,227.833 405.5,226.5 Z"/></g>
<g><path style="opacity:0.294" fill="#4d4d4d" d="M 408.5,229.5 C 410.833,229.833 412.167,231.167 412.5,233.5C 410.833,232.5 409.5,231.167 408.5,229.5 Z"/></g>
<g><path style="opacity:0.298" fill="#4d4d4d" d="M 412.5,233.5 C 414.833,233.833 416.167,235.167 416.5,237.5C 414.833,236.5 413.5,235.167 412.5,233.5 Z"/></g>
<g><path style="opacity:0.298" fill="#4d4d4d" d="M 416.5,237.5 C 418.833,237.833 420.167,239.167 420.5,241.5C 418.833,240.5 417.5,239.167 416.5,237.5 Z"/></g>
<g><path style="opacity:0.314" fill="#4e4e4e" d="M 420.5,241.5 C 423.167,242.167 424.833,243.833 425.5,246.5C 423.5,245.167 421.833,243.5 420.5,241.5 Z"/></g>
<g><path style="opacity:0.294" fill="#4c4c4c" d="M 425.5,246.5 C 427.5,246.5 428.5,247.5 428.5,249.5C 427.167,248.833 426.167,247.833 425.5,246.5 Z"/></g>
<g><path style="opacity:0.306" fill="#4e4e4e" d="M 428.5,249.5 C 430.833,249.833 432.167,251.167 432.5,253.5C 430.833,252.5 429.5,251.167 428.5,249.5 Z"/></g>
<g><path style="opacity:0.294" fill="#4e4e4e" d="M 432.5,253.5 C 434.833,253.833 436.167,255.167 436.5,257.5C 434.833,256.5 433.5,255.167 432.5,253.5 Z"/></g>
<g><path style="opacity:0.533" fill="#797979" d="M 52.5,252.5 C 52.5,254.5 51.5,255.5 49.5,255.5C 50.1667,254.167 51.1667,253.167 52.5,252.5 Z"/></g>
<g><path style="opacity:0.306" fill="#4e4e4e" d="M 436.5,257.5 C 438.833,257.833 440.167,259.167 440.5,261.5C 438.833,260.5 437.5,259.167 436.5,257.5 Z"/></g>
<g><path style="opacity:0.537" fill="#797979" d="M 45.5,259.5 C 45.5,261.5 44.5,262.5 42.5,262.5C 43.1667,261.167 44.1667,260.167 45.5,259.5 Z"/></g>
<g><path style="opacity:0.314" fill="#4f4f4f" d="M 440.5,261.5 C 442.833,261.833 444.167,263.167 444.5,265.5C 442.833,264.5 441.5,263.167 440.5,261.5 Z"/></g>
<g><path style="opacity:0.325" fill="#4e4e4e" d="M 444.5,265.5 C 446.833,265.833 448.167,267.167 448.5,269.5C 446.833,268.5 445.5,267.167 444.5,265.5 Z"/></g>
<g><path style="opacity:0.541" fill="#7f7f7f" d="M 40.5,264.5 C 39.8333,267.167 38.1667,268.833 35.5,269.5C 36.8333,267.5 38.5,265.833 40.5,264.5 Z"/></g>
<g><path style="opacity:0.314" fill="#4e4e4e" d="M 452.5,273.5 C 454.833,273.833 456.167,275.167 456.5,277.5C 454.833,276.5 453.5,275.167 452.5,273.5 Z"/></g>
<g><path style="opacity:0.533" fill="#787878" d="M 32.5,272.5 C 32.5,274.5 31.5,275.5 29.5,275.5C 30.1667,274.167 31.1667,273.167 32.5,272.5 Z"/></g>
<g><path style="opacity:0.31" fill="#505050" d="M 456.5,277.5 C 458.5,277.5 459.5,278.5 459.5,280.5C 458.167,279.833 457.167,278.833 456.5,277.5 Z"/></g>
<g><path style="opacity:0.318" fill="#4d4d4d" d="M 461.5,282.5 C 463.5,282.5 464.5,283.5 464.5,285.5C 463.167,284.833 462.167,283.833 461.5,282.5 Z"/></g>
<g><path style="opacity:0.325" fill="#515151" d="M 464.5,285.5 C 466.833,285.833 468.167,287.167 468.5,289.5C 466.833,288.5 465.5,287.167 464.5,285.5 Z"/></g>
<g><path style="opacity:0.322" fill="#5e5e5e" d="M 19.5,285.5 C 19.2624,287.404 18.2624,288.738 16.5,289.5C 16.7376,287.596 17.7376,286.262 19.5,285.5 Z"/></g>
<g><path style="opacity:0.325" fill="#515151" d="M 468.5,289.5 C 470.833,289.833 472.167,291.167 472.5,293.5C 470.833,292.5 469.5,291.167 468.5,289.5 Z"/></g>
<g><path style="opacity:0.325" fill="#505050" d="M 472.5,293.5 C 474.5,293.5 475.5,294.5 475.5,296.5C 474.167,295.833 473.167,294.833 472.5,293.5 Z"/></g>
<g><path style="opacity:0.337" fill="#525252" d="M 485.5,306.5 C 487.5,306.5 488.5,307.5 488.5,309.5C 487.167,308.833 486.167,307.833 485.5,306.5 Z"/></g>
<g><path style="opacity:0.196" fill="#848484" d="M 6.5,308.5 C 6.70621,311.495 6.03954,314.162 4.5,316.5C 4.56513,313.572 5.2318,310.905 6.5,308.5 Z"/></g>
<g><path style="opacity:0.929" fill="#8f8f8f" d="M 494.5,315.5 C 497.179,315.525 498.512,316.858 498.5,319.5C 496.833,318.5 495.5,317.167 494.5,315.5 Z"/></g>
<g><path style="opacity:0.353" fill="#525252" d="M 500.5,321.5 C 502.833,321.833 504.167,323.167 504.5,325.5C 502.833,324.5 501.5,323.167 500.5,321.5 Z"/></g>
<g><path style="opacity:0.357" fill="#535353" d="M 516.5,337.5 C 518.5,337.5 519.5,338.5 519.5,340.5C 518.167,339.833 517.167,338.833 516.5,337.5 Z"/></g>
<g><path style="opacity:0.361" fill="#555555" d="M 533.5,354.5 C 535.5,354.5 536.5,355.5 536.5,357.5C 535.167,356.833 534.167,355.833 533.5,354.5 Z"/></g>
<g><path style="opacity:0.278" fill="#626262" d="M 542.5,363.5 C 544.027,363.427 545.027,364.094 545.5,365.5C 543.973,365.573 542.973,364.906 542.5,363.5 Z"/></g>
</svg>
