<?xml version="1.0" encoding="UTF-8"?>
<!DOCTYPE svg PUBLIC "-//W3C//DTD SVG 1.1//EN" "http://www.w3.org/Graphics/SVG/1.1/DTD/svg11.dtd">
<svg xmlns="http://www.w3.org/2000/svg" version="1.1" width="642px" height="389px" style="shape-rendering:geometricPrecision; text-rendering:geometricPrecision; image-rendering:optimizeQuality; fill-rule:evenodd; clip-rule:evenodd" xmlns:xlink="http://www.w3.org/1999/xlink">
<g><path style="opacity:0.752" fill="#7d7d7d" d="M 593.5,8.5 C 587.5,8.5 581.5,8.5 575.5,8.5C 575.5,8.16667 575.5,7.83333 575.5,7.5C 581.621,6.64775 587.621,6.98108 593.5,8.5 Z"/></g>
<g><path style="opacity:0.763" fill="#7f7f7f" d="M 66.5,8.5 C 66.5,8.83333 66.5,9.16667 66.5,9.5C 60.5,9.5 54.5,9.5 48.5,9.5C 54.3097,7.65413 60.3097,7.32079 66.5,8.5 Z"/></g>
<g><path style="opacity:0.71" fill="#a8a8a8" d="M 575.5,7.5 C 575.5,7.83333 575.5,8.16667 575.5,8.5C 572.873,9.09157 570.206,9.4249 567.5,9.5C 569.905,8.2318 572.572,7.56513 575.5,7.5 Z"/></g>
<g><path style="opacity:1" fill="#030303" d="M 575.5,8.5 C 581.5,8.5 587.5,8.5 593.5,8.5C 598.845,9.17056 603.845,10.8372 608.5,13.5C 608.821,15.0481 609.821,15.7148 611.5,15.5C 617.783,18.7831 622.783,23.4497 626.5,29.5C 626.738,31.4044 627.738,32.7377 629.5,33.5C 630.338,33.8417 630.672,34.5084 630.5,35.5C 630.427,37.0269 631.094,38.0269 632.5,38.5C 633.931,39.7804 634.598,41.4471 634.5,43.5C 634.742,47.479 635.742,51.1456 637.5,54.5C 639.442,67.9572 636.942,80.6239 630,92.5C 628,95.6657 625.5,98.3324 622.5,100.5C 621.094,100.973 620.427,101.973 620.5,103.5C 619.167,103.5 618.5,104.167 618.5,105.5C 618.5,106.167 618.167,106.5 617.5,106.5C 616.167,106.5 615.5,107.167 615.5,108.5C 614.167,108.5 613.5,109.167 613.5,110.5C 612.167,110.5 611.5,111.167 611.5,112.5C 566.833,157.833 521.833,202.833 476.5,247.5C 474.5,247.5 473.5,248.5 473.5,250.5C 434.007,290.826 394.007,330.66 353.5,370C 340.414,379.358 326.08,382.525 310.5,379.5C 308.485,378.076 306.152,377.41 303.5,377.5C 299.703,377.128 296.37,375.794 293.5,373.5C 293.027,372.094 292.027,371.427 290.5,371.5C 288.596,371.262 287.262,370.262 286.5,368.5C 285.738,366.738 284.404,365.738 282.5,365.5C 194.167,277.833 106.167,189.833 18.5,101.5C 18.573,99.9731 17.9063,98.9731 16.5,98.5C 15.8333,98.5 15.5,98.1667 15.5,97.5C 15.4456,95.368 14.4456,94.0347 12.5,93.5C 12.7148,91.8212 12.0481,90.8212 10.5,90.5C 2.93774,76.3993 1.60441,61.7327 6.5,46.5C 8.21321,45.3646 8.87988,43.698 8.5,41.5C 8.6596,39.847 9.32627,38.5137 10.5,37.5C 11.9063,37.0269 12.573,36.0269 12.5,34.5C 13.9063,34.0269 14.573,33.0269 14.5,31.5C 15.9063,31.0269 16.573,30.0269 16.5,28.5C 17.5,26.8333 18.8333,25.5 20.5,24.5C 23.0892,23.5806 25.0892,21.914 26.5,19.5C 28.4044,19.2624 29.7377,18.2624 30.5,16.5C 32.8485,14.659 35.5152,13.3257 38.5,12.5C 42.1621,12.2766 45.4954,11.2766 48.5,9.5C 54.5,9.5 60.5,9.5 66.5,9.5C 68.8056,9.99255 71.139,10.3259 73.5,10.5C 79.072,11.121 84.072,13.121 88.5,16.5C 89.0347,18.4456 90.368,19.4456 92.5,19.5C 93.1667,19.8333 93.8333,20.1667 94.5,20.5C 94.5,22.5 95.5,23.5 97.5,23.5C 103.833,29.1667 109.833,35.1667 115.5,41.5C 115.525,44.179 116.858,45.5123 119.5,45.5C 121.167,46.5 122.5,47.8333 123.5,49.5C 123.525,52.179 124.858,53.5123 127.5,53.5C 129.167,54.5 130.5,55.8333 131.5,57.5C 131.525,60.179 132.858,61.5123 135.5,61.5C 137.167,62.5 138.5,63.8333 139.5,65.5C 139.525,68.179 140.858,69.5123 143.5,69.5C 145.167,70.5 146.5,71.8333 147.5,73.5C 147.525,76.179 148.858,77.5123 151.5,77.5C 155.833,81.1667 159.833,85.1667 163.5,89.5C 163.525,92.179 164.858,93.5123 167.5,93.5C 169.167,94.5 170.5,95.8333 171.5,97.5C 171.525,100.179 172.858,101.512 175.5,101.5C 180.5,105.833 185.167,110.5 189.5,115.5C 189.5,117.5 190.5,118.5 192.5,118.5C 193.5,118.833 194.167,119.5 194.5,120.5C 194.525,123.179 195.858,124.512 198.5,124.5C 205.5,130.833 212.167,137.5 218.5,144.5C 218.525,147.179 219.858,148.512 222.5,148.5C 230.833,156.167 238.833,164.167 246.5,172.5C 246.5,174.5 247.5,175.5 249.5,175.5C 251.167,176.5 252.5,177.833 253.5,179.5C 254.167,182.167 255.833,183.833 258.5,184.5C 258.5,186.5 259.5,187.5 261.5,187.5C 261.833,189.833 263.167,191.167 265.5,191.5C 267.167,192.5 268.5,193.833 269.5,195.5C 269.833,197.833 271.167,199.167 273.5,199.5C 275.167,200.5 276.5,201.833 277.5,203.5C 278.167,206.167 279.833,207.833 282.5,208.5C 284.167,209.5 285.5,210.833 286.5,212.5C 286.833,214.833 288.167,216.167 290.5,216.5C 292.167,217.5 293.5,218.833 294.5,220.5C 294.833,222.833 296.167,224.167 298.5,224.5C 300.167,225.5 301.5,226.833 302.5,228.5C 303.833,231.833 306.167,234.167 309.5,235.5C 309.833,237.833 311.167,239.167 313.5,239.5C 315.131,243.304 317.798,245.804 321.5,247C 397.035,171.632 472.368,96.1321 547.5,20.5C 549.296,18.1 551.63,16.4333 554.5,15.5C 556.027,15.573 557.027,14.9063 557.5,13.5C 560.518,11.6001 563.851,10.2667 567.5,9.5C 570.206,9.4249 572.873,9.09157 575.5,8.5 Z"/></g>
<g><path style="opacity:0.125" fill="#c0c0c0" d="M 66.5,9.5 C 66.5,9.16667 66.5,8.83333 66.5,8.5C 69.1522,8.40953 71.4855,9.07619 73.5,10.5C 71.139,10.3259 68.8056,9.99255 66.5,9.5 Z"/></g>
<g><path style="opacity:0.847" fill="#6d6d6d" d="M 48.5,9.5 C 45.4954,11.2766 42.1621,12.2766 38.5,12.5C 41.5046,10.7234 44.8379,9.7234 48.5,9.5 Z"/></g>
<g><path style="opacity:0.749" fill="#828282" d="M 557.5,13.5 C 557.027,14.9063 556.027,15.573 554.5,15.5C 554.973,14.0937 555.973,13.427 557.5,13.5 Z"/></g>
<g><path style="opacity:0.941" fill="#717171" d="M 608.5,13.5 C 609.71,13.9321 610.71,14.5987 611.5,15.5C 609.821,15.7148 608.821,15.0481 608.5,13.5 Z"/></g>
<g><path style="opacity:0.682" fill="#838383" d="M 30.5,16.5 C 29.7377,18.2624 28.4044,19.2624 26.5,19.5C 27.2623,17.7376 28.5956,16.7376 30.5,16.5 Z"/></g>
<g><path style="opacity:0.922" fill="#848484" d="M 88.5,16.5 C 90.2303,17.0256 91.5637,18.0256 92.5,19.5C 90.368,19.4456 89.0347,18.4456 88.5,16.5 Z"/></g>
<g><path style="opacity:0.557" fill="#adadad" d="M 94.5,20.5 C 95.8333,21.1667 96.8333,22.1667 97.5,23.5C 95.5,23.5 94.5,22.5 94.5,20.5 Z"/></g>
<g><path style="opacity:0.875" fill="#606060" d="M 26.5,19.5 C 25.0892,21.914 23.0892,23.5806 20.5,24.5C 21.9108,22.086 23.9108,20.4194 26.5,19.5 Z"/></g>
<g><path style="opacity:0.373" fill="#b1b1b1" d="M 16.5,28.5 C 16.573,30.0269 15.9063,31.0269 14.5,31.5C 14.427,29.9731 15.0937,28.9731 16.5,28.5 Z"/></g>
<g><path style="opacity:0.765" fill="#6f6f6f" d="M 626.5,29.5 C 628.262,30.2623 629.262,31.5956 629.5,33.5C 627.738,32.7377 626.738,31.4044 626.5,29.5 Z"/></g>
<g><path style="opacity:0.486" fill="#909090" d="M 14.5,31.5 C 14.573,33.0269 13.9063,34.0269 12.5,34.5C 12.427,32.9731 13.0937,31.9731 14.5,31.5 Z"/></g>
<g><path style="opacity:0.314" fill="#adadad" d="M 12.5,34.5 C 12.573,36.0269 11.9063,37.0269 10.5,37.5C 10.427,35.9731 11.0937,34.9731 12.5,34.5 Z"/></g>
<g><path style="opacity:0.306" fill="#a6a6a6" d="M 630.5,35.5 C 631.906,35.9731 632.573,36.9731 632.5,38.5C 631.094,38.0269 630.427,37.0269 630.5,35.5 Z"/></g>
<g><path style="opacity:0.859" fill="#7f7f7f" d="M 8.5,41.5 C 8.87988,43.698 8.21321,45.3646 6.5,46.5C 6.79586,44.597 7.46253,42.9303 8.5,41.5 Z"/></g>
<g><path style="opacity:1" fill="#515151" d="M 115.5,41.5 C 117.167,42.5 118.5,43.8333 119.5,45.5C 116.858,45.5123 115.525,44.179 115.5,41.5 Z"/></g>
<g><path style="opacity:0.835" fill="#8d8d8d" d="M 634.5,43.5 C 636.258,46.8544 637.258,50.521 637.5,54.5C 635.742,51.1456 634.742,47.479 634.5,43.5 Z"/></g>
<g><path style="opacity:1" fill="#525252" d="M 123.5,49.5 C 125.167,50.5 126.5,51.8333 127.5,53.5C 124.858,53.5123 123.525,52.179 123.5,49.5 Z"/></g>
<g><path style="opacity:1" fill="#525252" d="M 131.5,57.5 C 133.167,58.5 134.5,59.8333 135.5,61.5C 132.858,61.5123 131.525,60.179 131.5,57.5 Z"/></g>
<g><path style="opacity:1" fill="#535353" d="M 139.5,65.5 C 141.167,66.5 142.5,67.8333 143.5,69.5C 140.858,69.5123 139.525,68.179 139.5,65.5 Z"/></g>
<g><path style="opacity:1" fill="#545454" d="M 147.5,73.5 C 149.167,74.5 150.5,75.8333 151.5,77.5C 148.858,77.5123 147.525,76.179 147.5,73.5 Z"/></g>
<g><path style="opacity:0.902" fill="#7d7d7d" d="M 10.5,90.5 C 12.0481,90.8212 12.7148,91.8212 12.5,93.5C 11.5987,92.7095 10.9321,91.7095 10.5,90.5 Z"/></g>
<g><path style="opacity:1" fill="#535353" d="M 163.5,89.5 C 165.167,90.5 166.5,91.8333 167.5,93.5C 164.858,93.5123 163.525,92.179 163.5,89.5 Z"/></g>
<g><path style="opacity:0.969" fill="#767676" d="M 12.5,93.5 C 14.4456,94.0347 15.4456,95.368 15.5,97.5C 14.0256,96.5637 13.0256,95.2303 12.5,93.5 Z"/></g>
<g><path style="opacity:0.02" fill="#c6c6c6" d="M 16.5,98.5 C 17.9063,98.9731 18.573,99.9731 18.5,101.5C 17.0937,101.027 16.427,100.027 16.5,98.5 Z"/></g>
<g><path style="opacity:1" fill="#545454" d="M 171.5,97.5 C 173.167,98.5 174.5,99.8333 175.5,101.5C 172.858,101.512 171.525,100.179 171.5,97.5 Z"/></g>
<g><path style="opacity:0.004" fill="#c9c9c9" d="M 622.5,100.5 C 622.573,102.027 621.906,103.027 620.5,103.5C 620.427,101.973 621.094,100.973 622.5,100.5 Z"/></g>
<g><path style="opacity:0.016" fill="#dbdbdb" d="M 620.5,103.5 C 620.167,104.5 619.5,105.167 618.5,105.5C 618.5,104.167 619.167,103.5 620.5,103.5 Z"/></g>
<g><path style="opacity:0.012" fill="#dbdbdb" d="M 617.5,106.5 C 617.167,107.5 616.5,108.167 615.5,108.5C 615.5,107.167 616.167,106.5 617.5,106.5 Z"/></g>
<g><path style="opacity:0.012" fill="#dbdbdb" d="M 615.5,108.5 C 615.167,109.5 614.5,110.167 613.5,110.5C 613.5,109.167 614.167,108.5 615.5,108.5 Z"/></g>
<g><path style="opacity:0.012" fill="#dbdbdb" d="M 613.5,110.5 C 613.167,111.5 612.5,112.167 611.5,112.5C 611.5,111.167 612.167,110.5 613.5,110.5 Z"/></g>
<g><path style="opacity:0.749" fill="#8e8e8e" d="M 189.5,115.5 C 190.833,116.167 191.833,117.167 192.5,118.5C 190.5,118.5 189.5,117.5 189.5,115.5 Z"/></g>
<g><path style="opacity:1" fill="#565656" d="M 194.5,120.5 C 196.167,121.5 197.5,122.833 198.5,124.5C 195.858,124.512 194.525,123.179 194.5,120.5 Z"/></g>
<g><path style="opacity:1" fill="#585858" d="M 218.5,144.5 C 220.167,145.5 221.5,146.833 222.5,148.5C 219.858,148.512 218.525,147.179 218.5,144.5 Z"/></g>
<g><path style="opacity:0.647" fill="#979797" d="M 547.5,20.5 C 472.368,96.1321 397.035,171.632 321.5,247C 317.798,245.804 315.131,243.304 313.5,239.5C 315.63,241.127 317.63,242.96 319.5,245C 320.167,245.667 320.833,245.667 321.5,245C 396.416,169.583 471.75,94.7497 547.5,20.5 Z"/></g>
<g><path style="opacity:0.733" fill="#939393" d="M 246.5,172.5 C 247.833,173.167 248.833,174.167 249.5,175.5C 247.5,175.5 246.5,174.5 246.5,172.5 Z"/></g>
<g><path style="opacity:0.745" fill="#949494" d="M 253.5,179.5 C 255.5,180.833 257.167,182.5 258.5,184.5C 255.833,183.833 254.167,182.167 253.5,179.5 Z"/></g>
<g><path style="opacity:0.725" fill="#939393" d="M 258.5,184.5 C 259.833,185.167 260.833,186.167 261.5,187.5C 259.5,187.5 258.5,186.5 258.5,184.5 Z"/></g>
<g><path style="opacity:0.741" fill="#959595" d="M 261.5,187.5 C 263.167,188.5 264.5,189.833 265.5,191.5C 263.167,191.167 261.833,189.833 261.5,187.5 Z"/></g>
<g><path style="opacity:0.725" fill="#939393" d="M 269.5,195.5 C 271.167,196.5 272.5,197.833 273.5,199.5C 271.167,199.167 269.833,197.833 269.5,195.5 Z"/></g>
<g><path style="opacity:0.718" fill="#959595" d="M 277.5,203.5 C 279.5,204.833 281.167,206.5 282.5,208.5C 279.833,207.833 278.167,206.167 277.5,203.5 Z"/></g>
<g><path style="opacity:0.714" fill="#999999" d="M 286.5,212.5 C 288.167,213.5 289.5,214.833 290.5,216.5C 288.167,216.167 286.833,214.833 286.5,212.5 Z"/></g>
<g><path style="opacity:0.714" fill="#9b9b9b" d="M 294.5,220.5 C 296.167,221.5 297.5,222.833 298.5,224.5C 296.167,224.167 294.833,222.833 294.5,220.5 Z"/></g>
<g><path style="opacity:0.718" fill="#999999" d="M 302.5,228.5 C 305.167,230.5 307.5,232.833 309.5,235.5C 306.167,234.167 303.833,231.833 302.5,228.5 Z"/></g>
<g><path style="opacity:0.718" fill="#989898" d="M 309.5,235.5 C 311.167,236.5 312.5,237.833 313.5,239.5C 311.167,239.167 309.833,237.833 309.5,235.5 Z"/></g>
<g><path style="opacity:0.035" fill="#c2c2c2" d="M 476.5,247.5 C 475.833,248.833 474.833,249.833 473.5,250.5C 473.5,248.5 474.5,247.5 476.5,247.5 Z"/></g>
<g><path style="opacity:0.82" fill="#838383" d="M 282.5,365.5 C 284.404,365.738 285.738,366.738 286.5,368.5C 284.596,368.262 283.262,367.262 282.5,365.5 Z"/></g>
<g><path style="opacity:0.361" fill="#a1a1a1" d="M 290.5,371.5 C 292.027,371.427 293.027,372.094 293.5,373.5C 291.973,373.573 290.973,372.906 290.5,371.5 Z"/></g>
<g><path style="opacity:0.647" fill="#7a7a7a" d="M 303.5,377.5 C 306.152,377.41 308.485,378.076 310.5,379.5C 307.772,379.829 305.438,379.163 303.5,377.5 Z"/></g>
</svg>
