<?xml version="1.0" encoding="UTF-8"?>
<!DOCTYPE svg PUBLIC "-//W3C//DTD SVG 1.1//EN" "http://www.w3.org/Graphics/SVG/1.1/DTD/svg11.dtd">
<svg xmlns="http://www.w3.org/2000/svg" version="1.1" width="389px" height="642px" style="shape-rendering:geometricPrecision; text-rendering:geometricPrecision; image-rendering:optimizeQuality; fill-rule:evenodd; clip-rule:evenodd" xmlns:xlink="http://www.w3.org/1999/xlink">
<g><path style="opacity:1" fill="#030303" d="M 367.5,22.5 C 367.427,24.0269 368.094,25.0269 369.5,25.5C 369.738,27.4044 370.738,28.7377 372.5,29.5C 373.338,29.8417 373.672,30.5084 373.5,31.5C 373.427,33.0269 374.094,34.0269 375.5,34.5C 376.11,35.391 376.443,36.391 376.5,37.5C 376.723,41.1621 377.723,44.4954 379.5,47.5C 379.5,54.8333 379.5,62.1667 379.5,69.5C 378.076,71.5145 377.41,73.8478 377.5,76.5C 375.796,83.1859 372.463,88.8526 367.5,93.5C 366.094,93.9731 365.427,94.9731 365.5,96.5C 291.535,170.965 217.368,245.299 143,319.5C 142.536,320.094 142.369,320.761 142.5,321.5C 142.5,323.5 143.5,324.5 145.5,324.5C 146.167,327.167 147.833,328.833 150.5,329.5C 150.5,331.5 151.5,332.5 153.5,332.5C 153.5,334.5 154.5,335.5 156.5,335.5C 157.5,335.833 158.167,336.5 158.5,337.5C 158.5,339.5 159.5,340.5 161.5,340.5C 162.167,343.167 163.833,344.833 166.5,345.5C 166.5,347.5 167.5,348.5 169.5,348.5C 170.167,351.167 171.833,352.833 174.5,353.5C 174.5,355.5 175.5,356.5 177.5,356.5C 178.5,356.833 179.167,357.5 179.5,358.5C 179.5,360.5 180.5,361.5 182.5,361.5C 182.5,363.5 183.5,364.5 185.5,364.5C 186.5,364.833 187.167,365.5 187.5,366.5C 187.5,368.5 188.5,369.5 190.5,369.5C 190.5,371.5 191.5,372.5 193.5,372.5C 193.5,374.5 194.5,375.5 196.5,375.5C 196.525,378.179 197.858,379.512 200.5,379.5C 204.167,382.5 207.5,385.833 210.5,389.5C 210.833,391.833 212.167,393.167 214.5,393.5C 220.167,398.5 225.5,403.833 230.5,409.5C 230.5,411.5 231.5,412.5 233.5,412.5C 248.5,426.833 263.167,441.5 277.5,456.5C 277.833,458.833 279.167,460.167 281.5,460.5C 309.167,487.5 336.5,514.833 363.5,542.5C 364.08,544.749 365.413,546.415 367.5,547.5C 367.738,549.404 368.738,550.738 370.5,551.5C 370.427,553.027 371.094,554.027 372.5,554.5C 374.008,556.181 375.008,558.181 375.5,560.5C 375.12,562.698 375.787,564.365 377.5,565.5C 377.5,566.167 377.5,566.833 377.5,567.5C 377.833,570.167 378.167,572.833 378.5,575.5C 378.5,581.167 378.5,586.833 378.5,592.5C 372.428,617.404 356.762,632.237 331.5,637C 324.582,637.929 317.915,637.429 311.5,635.5C 308.855,633.69 305.855,632.69 302.5,632.5C 300.181,632.008 298.181,631.008 296.5,629.5C 296.027,628.094 295.027,627.427 293.5,627.5C 292.738,625.738 291.404,624.738 289.5,624.5C 288.089,622.086 286.089,620.419 283.5,619.5C 282.5,619.167 281.833,618.5 281.5,617.5C 281.512,614.858 280.179,613.525 277.5,613.5C 275.833,612.5 274.5,611.167 273.5,609.5C 273.512,606.858 272.179,605.525 269.5,605.5C 267.833,604.5 266.5,603.167 265.5,601.5C 265.512,598.858 264.179,597.525 261.5,597.5C 257.167,593.833 253.167,589.833 249.5,585.5C 249.512,582.858 248.179,581.525 245.5,581.5C 243.833,580.5 242.5,579.167 241.5,577.5C 241.512,574.858 240.179,573.525 237.5,573.5C 233.167,569.833 229.167,565.833 225.5,561.5C 225.512,558.858 224.179,557.525 221.5,557.5C 217.167,553.833 213.167,549.833 209.5,545.5C 209.512,542.858 208.179,541.525 205.5,541.5C 203.833,540.5 202.5,539.167 201.5,537.5C 201.512,534.858 200.179,533.525 197.5,533.5C 195.833,532.5 194.5,531.167 193.5,529.5C 193.512,526.858 192.179,525.525 189.5,525.5C 187.833,524.5 186.5,523.167 185.5,521.5C 185.512,518.858 184.179,517.525 181.5,517.5C 174.5,511.167 167.833,504.5 161.5,497.5C 161.512,494.858 160.179,493.525 157.5,493.5C 110.472,447.472 64.1383,400.805 18.5,353.5C 18.4456,351.368 17.4456,350.035 15.5,349.5C 12.4316,345.356 10.4316,340.689 9.5,335.5C 8.71028,328.529 8.37694,321.529 8.5,314.5C 8.67412,312.139 9.00745,309.806 9.5,307.5C 10.9238,305.485 11.5905,303.152 11.5,300.5C 11.4021,298.447 12.0687,296.78 13.5,295.5C 14.9063,295.027 15.573,294.027 15.5,292.5C 16.9063,292.027 17.573,291.027 17.5,289.5C 18.0798,287.251 19.4131,285.585 21.5,284.5C 110.5,196.167 199.167,107.5 287.5,18.5C 287.5,17.8333 287.833,17.5 288.5,17.5C 290.981,17.226 292.647,15.8927 293.5,13.5C 293.973,12.0937 294.973,11.427 296.5,11.5C 298.027,11.573 299.027,10.9063 299.5,9.5C 300.514,8.32627 301.847,7.6596 303.5,7.5C 305.698,7.87988 307.365,7.21321 308.5,5.5C 331.783,-1.09844 351.449,4.56823 367.5,22.5 Z"/></g>
<g><path style="opacity:0.824" fill="#838383" d="M 308.5,5.5 C 307.365,7.21321 305.698,7.87988 303.5,7.5C 304.93,6.46253 306.597,5.79586 308.5,5.5 Z"/></g>
<g><path style="opacity:0.71" fill="#888888" d="M 299.5,9.5 C 299.027,10.9063 298.027,11.573 296.5,11.5C 296.973,10.0937 297.973,9.42702 299.5,9.5 Z"/></g>
<g><path style="opacity:0.969" fill="#4e4e4e" d="M 293.5,13.5 C 292.647,15.8927 290.981,17.226 288.5,17.5C 289.585,15.4131 291.251,14.0798 293.5,13.5 Z"/></g>
<g><path style="opacity:0.494" fill="#979797" d="M 367.5,22.5 C 368.906,22.9731 369.573,23.9731 369.5,25.5C 368.094,25.0269 367.427,24.0269 367.5,22.5 Z"/></g>
<g><path style="opacity:0.686" fill="#808080" d="M 369.5,25.5 C 371.262,26.2623 372.262,27.5956 372.5,29.5C 370.738,28.7377 369.738,27.4044 369.5,25.5 Z"/></g>
<g><path style="opacity:0.153" fill="#bfbfbf" d="M 373.5,31.5 C 374.906,31.9731 375.573,32.9731 375.5,34.5C 374.094,34.0269 373.427,33.0269 373.5,31.5 Z"/></g>
<g><path style="opacity:0.878" fill="#787878" d="M 376.5,37.5 C 378.277,40.5046 379.277,43.8379 379.5,47.5C 377.723,44.4954 376.723,41.1621 376.5,37.5 Z"/></g>
<g><path style="opacity:0.651" fill="#8e8e8e" d="M 379.5,47.5 C 380.306,51.0024 380.973,54.669 381.5,58.5C 380.973,62.331 380.306,65.9976 379.5,69.5C 379.5,62.1667 379.5,54.8333 379.5,47.5 Z"/></g>
<g><path style="opacity:0.004" fill="#c9c9c9" d="M 379.5,69.5 C 379.59,72.1522 378.924,74.4855 377.5,76.5C 377.41,73.8478 378.076,71.5145 379.5,69.5 Z"/></g>
<g><path style="opacity:0.012" fill="#c9c9c9" d="M 367.5,93.5 C 367.573,95.0269 366.906,96.0269 365.5,96.5C 365.427,94.9731 366.094,93.9731 367.5,93.5 Z"/></g>
<g><path style="opacity:0.569" fill="#9b9b9b" d="M 287.5,18.5 C 199.167,107.5 110.5,196.167 21.5,284.5C 108.916,195.583 196.916,107.083 285.5,19C 286.094,18.5357 286.761,18.369 287.5,18.5 Z"/></g>
<g><path style="opacity:0.553" fill="#7f7f7f" d="M 17.5,289.5 C 17.573,291.027 16.9063,292.027 15.5,292.5C 15.427,290.973 16.0937,289.973 17.5,289.5 Z"/></g>
<g><path style="opacity:0.333" fill="#a8a8a8" d="M 15.5,292.5 C 15.573,294.027 14.9063,295.027 13.5,295.5C 13.427,293.973 14.0937,292.973 15.5,292.5 Z"/></g>
<g><path style="opacity:0.91" fill="#5d5d5d" d="M 11.5,300.5 C 11.5905,303.152 10.9238,305.485 9.5,307.5C 9.5,306.833 9.5,306.167 9.5,305.5C 9.79586,303.597 10.4625,301.93 11.5,300.5 Z"/></g>
<g><path style="opacity:0.092" fill="#cecece" d="M 9.5,305.5 C 9.5,306.167 9.5,306.833 9.5,307.5C 9.00745,309.806 8.67412,312.139 8.5,314.5C 8.16667,314.5 7.83333,314.5 7.5,314.5C 7.42032,311.219 8.08699,308.219 9.5,305.5 Z"/></g>
<g><path style="opacity:0.694" fill="#9a9a9a" d="M 142.5,321.5 C 143.833,322.167 144.833,323.167 145.5,324.5C 143.5,324.5 142.5,323.5 142.5,321.5 Z"/></g>
<g><path style="opacity:0.69" fill="#9a9a9a" d="M 145.5,324.5 C 147.5,325.833 149.167,327.5 150.5,329.5C 147.833,328.833 146.167,327.167 145.5,324.5 Z"/></g>
<g><path style="opacity:0.706" fill="#9a9a9a" d="M 150.5,329.5 C 151.833,330.167 152.833,331.167 153.5,332.5C 151.5,332.5 150.5,331.5 150.5,329.5 Z"/></g>
<g><path style="opacity:0.047" fill="#a8a8a8" d="M 7.5,314.5 C 7.83333,314.5 8.16667,314.5 8.5,314.5C 8.37694,321.529 8.71028,328.529 9.5,335.5C 8.71003,334.391 8.21003,333.058 8,331.5C 7.50058,325.843 7.33391,320.176 7.5,314.5 Z"/></g>
<g><path style="opacity:0.69" fill="#999999" d="M 153.5,332.5 C 154.833,333.167 155.833,334.167 156.5,335.5C 154.5,335.5 153.5,334.5 153.5,332.5 Z"/></g>
<g><path style="opacity:0.718" fill="#979797" d="M 158.5,337.5 C 159.833,338.167 160.833,339.167 161.5,340.5C 159.5,340.5 158.5,339.5 158.5,337.5 Z"/></g>
<g><path style="opacity:0.702" fill="#989898" d="M 161.5,340.5 C 163.5,341.833 165.167,343.5 166.5,345.5C 163.833,344.833 162.167,343.167 161.5,340.5 Z"/></g>
<g><path style="opacity:0.71" fill="#979797" d="M 166.5,345.5 C 167.833,346.167 168.833,347.167 169.5,348.5C 167.5,348.5 166.5,347.5 166.5,345.5 Z"/></g>
<g><path style="opacity:0.965" fill="#707070" d="M 15.5,349.5 C 17.4456,350.035 18.4456,351.368 18.5,353.5C 17.0256,352.564 16.0256,351.23 15.5,349.5 Z"/></g>
<g><path style="opacity:0.718" fill="#959595" d="M 169.5,348.5 C 171.5,349.833 173.167,351.5 174.5,353.5C 171.833,352.833 170.167,351.167 169.5,348.5 Z"/></g>
<g><path style="opacity:0.706" fill="#999999" d="M 174.5,353.5 C 175.833,354.167 176.833,355.167 177.5,356.5C 175.5,356.5 174.5,355.5 174.5,353.5 Z"/></g>
<g><path style="opacity:0.718" fill="#949494" d="M 179.5,358.5 C 180.833,359.167 181.833,360.167 182.5,361.5C 180.5,361.5 179.5,360.5 179.5,358.5 Z"/></g>
<g><path style="opacity:0.706" fill="#989898" d="M 182.5,361.5 C 183.833,362.167 184.833,363.167 185.5,364.5C 183.5,364.5 182.5,363.5 182.5,361.5 Z"/></g>
<g><path style="opacity:0.729" fill="#949494" d="M 187.5,366.5 C 188.833,367.167 189.833,368.167 190.5,369.5C 188.5,369.5 187.5,368.5 187.5,366.5 Z"/></g>
<g><path style="opacity:0.71" fill="#989898" d="M 190.5,369.5 C 191.833,370.167 192.833,371.167 193.5,372.5C 191.5,372.5 190.5,371.5 190.5,369.5 Z"/></g>
<g><path style="opacity:0.714" fill="#979797" d="M 193.5,372.5 C 194.833,373.167 195.833,374.167 196.5,375.5C 194.5,375.5 193.5,374.5 193.5,372.5 Z"/></g>
<g><path style="opacity:1" fill="#5b5b5b" d="M 196.5,375.5 C 198.167,376.5 199.5,377.833 200.5,379.5C 197.858,379.512 196.525,378.179 196.5,375.5 Z"/></g>
<g><path style="opacity:0.722" fill="#959595" d="M 210.5,389.5 C 212.167,390.5 213.5,391.833 214.5,393.5C 212.167,393.167 210.833,391.833 210.5,389.5 Z"/></g>
<g><path style="opacity:0.722" fill="#959595" d="M 230.5,409.5 C 231.833,410.167 232.833,411.167 233.5,412.5C 231.5,412.5 230.5,411.5 230.5,409.5 Z"/></g>
<g><path style="opacity:0.749" fill="#8d8d8d" d="M 277.5,456.5 C 279.167,457.5 280.5,458.833 281.5,460.5C 279.167,460.167 277.833,458.833 277.5,456.5 Z"/></g>
<g><path style="opacity:1" fill="#4c4c4c" d="M 157.5,493.5 C 160.179,493.525 161.512,494.858 161.5,497.5C 159.833,496.5 158.5,495.167 157.5,493.5 Z"/></g>
<g><path style="opacity:1" fill="#4e4e4e" d="M 181.5,517.5 C 184.179,517.525 185.512,518.858 185.5,521.5C 183.833,520.5 182.5,519.167 181.5,517.5 Z"/></g>
<g><path style="opacity:1" fill="#4c4c4c" d="M 189.5,525.5 C 192.179,525.525 193.512,526.858 193.5,529.5C 191.833,528.5 190.5,527.167 189.5,525.5 Z"/></g>
<g><path style="opacity:1" fill="#4d4d4d" d="M 197.5,533.5 C 200.179,533.525 201.512,534.858 201.5,537.5C 199.833,536.5 198.5,535.167 197.5,533.5 Z"/></g>
<g><path style="opacity:1" fill="#4e4e4e" d="M 205.5,541.5 C 208.179,541.525 209.512,542.858 209.5,545.5C 207.833,544.5 206.5,543.167 205.5,541.5 Z"/></g>
<g><path style="opacity:0.714" fill="#9e9e9e" d="M 363.5,542.5 C 365.587,543.585 366.92,545.251 367.5,547.5C 365.413,546.415 364.08,544.749 363.5,542.5 Z"/></g>
<g><path style="opacity:0.831" fill="#808080" d="M 367.5,547.5 C 369.262,548.262 370.262,549.596 370.5,551.5C 368.738,550.738 367.738,549.404 367.5,547.5 Z"/></g>
<g><path style="opacity:0.29" fill="#b0b0b0" d="M 370.5,551.5 C 371.906,551.973 372.573,552.973 372.5,554.5C 371.094,554.027 370.427,553.027 370.5,551.5 Z"/></g>
<g><path style="opacity:1" fill="#505050" d="M 221.5,557.5 C 224.179,557.525 225.512,558.858 225.5,561.5C 223.833,560.5 222.5,559.167 221.5,557.5 Z"/></g>
<g><path style="opacity:0.8" fill="#929292" d="M 375.5,560.5 C 376.537,561.93 377.204,563.597 377.5,565.5C 375.787,564.365 375.12,562.698 375.5,560.5 Z"/></g>
<g><path style="opacity:1" fill="#505050" d="M 237.5,573.5 C 240.179,573.525 241.512,574.858 241.5,577.5C 239.833,576.5 238.5,575.167 237.5,573.5 Z"/></g>
<g><path style="opacity:0.404" fill="#ababab" d="M 377.5,567.5 C 379.04,569.838 379.706,572.505 379.5,575.5C 379.167,575.5 378.833,575.5 378.5,575.5C 378.167,572.833 377.833,570.167 377.5,567.5 Z"/></g>
<g><path style="opacity:0.743" fill="#8b8b8b" d="M 378.5,575.5 C 378.833,575.5 379.167,575.5 379.5,575.5C 380.571,581.345 380.238,587.012 378.5,592.5C 378.5,586.833 378.5,581.167 378.5,575.5 Z"/></g>
<g><path style="opacity:1" fill="#505050" d="M 245.5,581.5 C 248.179,581.525 249.512,582.858 249.5,585.5C 247.833,584.5 246.5,583.167 245.5,581.5 Z"/></g>
<g><path style="opacity:1" fill="#525252" d="M 261.5,597.5 C 264.179,597.525 265.512,598.858 265.5,601.5C 263.833,600.5 262.5,599.167 261.5,597.5 Z"/></g>
<g><path style="opacity:1" fill="#515151" d="M 269.5,605.5 C 272.179,605.525 273.512,606.858 273.5,609.5C 271.833,608.5 270.5,607.167 269.5,605.5 Z"/></g>
<g><path style="opacity:1" fill="#535353" d="M 277.5,613.5 C 280.179,613.525 281.512,614.858 281.5,617.5C 279.833,616.5 278.5,615.167 277.5,613.5 Z"/></g>
<g><path style="opacity:0.757" fill="#979797" d="M 283.5,619.5 C 286.089,620.419 288.089,622.086 289.5,624.5C 286.911,623.581 284.911,621.914 283.5,619.5 Z"/></g>
<g><path style="opacity:0.718" fill="#747474" d="M 289.5,624.5 C 291.404,624.738 292.738,625.738 293.5,627.5C 291.596,627.262 290.262,626.262 289.5,624.5 Z"/></g>
<g><path style="opacity:0.439" fill="#909090" d="M 293.5,627.5 C 295.027,627.427 296.027,628.094 296.5,629.5C 294.973,629.573 293.973,628.906 293.5,627.5 Z"/></g>
<g><path style="opacity:0.788" fill="#7b7b7b" d="M 302.5,632.5 C 305.855,632.69 308.855,633.69 311.5,635.5C 308.084,635.472 305.084,634.472 302.5,632.5 Z"/></g>
</svg>
